<svg xmlns="http://www.w3.org/2000/svg" xmlns:xlink="http://www.w3.org/1999/xlink" width="2132.053" height="1586.694" viewBox="0 0 2132.053 1586.694">
  <defs>
    <clipPath id="clip-path"/>
    <linearGradient id="linear-gradient" x1="0.144" y1="0.5" x2="0.856" y2="0.5" gradientUnits="objectBoundingBox">
      <stop offset="0"/>
      <stop offset="0.109" stop-color="#050505"/>
      <stop offset="0.252" stop-color="#161616"/>
      <stop offset="0.414" stop-color="#313131"/>
      <stop offset="0.59" stop-color="#575757"/>
      <stop offset="0.777" stop-color="#888"/>
      <stop offset="0.972" stop-color="#c2c2c2"/>
      <stop offset="1" stop-color="#ccc"/>
    </linearGradient>
    <linearGradient id="linear-gradient-2" x1="0.143" y1="0.5" x2="0.857" y2="0.5" xlink:href="#linear-gradient"/>
    <linearGradient id="linear-gradient-3" x1="0.145" y1="0.5" x2="0.855" y2="0.5" xlink:href="#linear-gradient"/>
    <linearGradient id="linear-gradient-4" x1="0.136" y1="0.5" x2="0.864" y2="0.5" xlink:href="#linear-gradient"/>
  </defs>
  <g id="Group_29" data-name="Group 29" transform="translate(41.317 127.997)">
    <g id="Group_16" data-name="Group 16" transform="translate(-41.317 -127.997)">
      <g id="Group_15" data-name="Group 15" clip-path="url(#clip-path)">
        <g id="Group_1" data-name="Group 1" transform="translate(77.232 196.946)" style="mix-blend-mode: overlay;isolation: isolate">
          <path id="Path_5" data-name="Path 5" d="M49.627,578.3c-31.814,0-62.374-10.612-82.425-35.437l1.251-1.01c38.312,47.439,115.767,42.121,165.554,9.991,40.416-26.085,70.188-65.62,98.982-103.852,7.6-10.091,15.457-20.523,23.377-30.531,49.388-62.4,97.827-95.006,148.084-99.693,39.409-3.67,78.295,10.223,115.89,23.666,41.6,14.875,84.622,30.248,127.47,20.948,31.557-6.849,58.572-26.323,84.7-45.158,10.821-7.8,22.006-15.862,33.391-22.949,77.352-48.137,174.558-56.845,252.663-63.838,87.3-7.82,177.572-15.9,253.213-59.827,71.021-41.24,132.279-131.668,105.921-218.018l1.538-.47c12.1,39.66,6.849,82.885-15.206,125-20.269,38.708-52.743,72.4-91.442,94.877-75.95,44.1-166.4,52.2-253.879,60.036-77.934,6.981-174.931,15.666-251.959,63.6-11.336,7.058-22.5,15.106-33.3,22.888-26.259,18.931-53.412,38.509-85.3,45.428-43.279,9.393-86.536-6.057-128.355-21.009-37.428-13.379-76.142-27.224-115.195-23.576-49.8,4.642-97.872,37.055-146.974,99.091-7.907,9.988-15.759,20.417-23.351,30.5-28.881,38.345-58.739,78-99.4,104.235A161.233,161.233,0,0,1,49.627,578.3Z" transform="translate(32.798 47.876)" fill="#fff"/>
        </g>
        <g id="Group_2" data-name="Group 2" transform="translate(633.531 765.816)" style="mix-blend-mode: overlay;isolation: isolate">
          <path id="Path_6" data-name="Path 6" d="M169.157,856.364c-8.293-48.33-16.869-98.306-12.221-148.161,5.224-55.97,27.414-102.7,62.484-131.588C276.493,529.6,360.543,534.684,418.787,542.6c9.075,1.235,18.368,2.6,27.353,3.915C505.693,555.246,567.273,564.279,624,545.1c47.587-16.087,86.987-50.7,125.08-84.165,43.4-38.129,88.283-77.558,144.96-88.762,40.313-7.971,81.669-.463,121.673,6.794,21.5,3.9,43.73,7.936,65.614,9.554a307,307,0,0,0,220.318-72.166,307,307,0,0,0,105.776-206.289l1.6.135a308.609,308.609,0,0,1-106.336,207.38,308.6,308.6,0,0,1-221.479,72.546c-21.971-1.625-44.241-5.665-65.784-9.577-39.85-7.231-81.077-14.711-121.072-6.8-56.253,11.124-100.967,50.4-144.211,88.392-38.213,33.574-77.735,68.29-125.627,84.48-57.083,19.3-118.865,10.242-178.615,1.48-8.978-1.319-18.262-2.68-27.33-3.909-57.958-7.878-141.534-12.954-198.128,33.658-34.735,28.614-56.719,74.959-61.9,130.5-4.629,49.639,3.928,99.51,12.2,147.736Z" transform="translate(-155.626 -110.068)" fill="#fff"/>
        </g>
        <g id="Group_8" data-name="Group 8" style="mix-blend-mode: overlay;isolation: isolate">
          <g id="Group_3" data-name="Group 3">
            <path id="Path_7" data-name="Path 7" d="M276.812,508.264A317.946,317.946,0,0,1-41.317,190.135,317.946,317.946,0,0,1,276.812-128,317.951,317.951,0,0,1,594.944,190.135,317.951,317.951,0,0,1,276.812,508.264Zm0-634.652c-174.533,0-316.52,141.991-316.52,316.524s141.988,316.52,316.52,316.52,316.524-141.991,316.524-316.52S451.344-126.389,276.812-126.389Z" transform="translate(41.317 127.997)" fill="#b3b3b3"/>
          </g>
          <g id="Group_4" data-name="Group 4" transform="translate(39.664 39.667)">
            <path id="Path_8" data-name="Path 8" d="M249.478,441.261C95.932,441.261-28.987,316.345-28.987,162.8S95.932-115.666,249.478-115.666,527.943,9.25,527.943,162.8,403.024,441.261,249.478,441.261Zm0-555.319c-152.661,0-276.857,124.2-276.857,276.857s124.2,276.854,276.857,276.854S526.335,315.457,526.335,162.8,402.136-114.058,249.478-114.058Z" transform="translate(28.987 115.666)" fill="#b3b3b3"/>
          </g>
          <g id="Group_5" data-name="Group 5" transform="translate(79.33 79.33)">
            <path id="Path_9" data-name="Path 9" d="M222.142,374.264c-131.675,0-238.8-107.124-238.8-238.8s107.124-238.8,238.8-238.8,238.8,107.127,238.8,238.8S353.817,374.264,222.142,374.264Zm0-475.992c-130.787,0-237.19,106.4-237.19,237.193s106.4,237.19,237.19,237.19,237.193-106.4,237.193-237.19S352.929-101.728,222.142-101.728Z" transform="translate(16.656 103.336)" fill="#b3b3b3"/>
          </g>
          <g id="Group_6" data-name="Group 6" transform="translate(118.997 118.997)">
            <path id="Path_10" data-name="Path 10" d="M194.807,307.262C85,307.262-4.325,217.93-4.325,108.13S85-91.005,194.807-91.005,393.938-1.674,393.938,108.13,304.61,307.262,194.807,307.262Zm0-396.658C85.894-89.4-2.717-.789-2.717,108.13S85.894,305.653,194.807,305.653,392.33,217.045,392.33,108.13,303.722-89.4,194.807-89.4Z" transform="translate(4.325 91.005)" fill="#b3b3b3"/>
          </g>
          <g id="Group_7" data-name="Group 7" transform="translate(158.661 158.661)">
            <path id="Path_11" data-name="Path 11" d="M167.473,240.261C79.541,240.261,8.005,168.725,8.005,80.8S79.541-78.675,167.473-78.675,326.938-7.136,326.938,80.8,255.4,240.261,167.473,240.261Zm0-317.328C80.429-77.067,9.613-6.248,9.613,80.8s70.815,157.856,157.86,157.856S325.33,167.841,325.33,80.8,254.517-77.067,167.473-77.067Z" transform="translate(-8.005 78.675)" fill="#b3b3b3"/>
          </g>
        </g>
        <g id="Group_14" data-name="Group 14" transform="translate(1495.789 950.43)" style="mix-blend-mode: overlay;isolation: isolate">
          <g id="Group_9" data-name="Group 9" transform="translate(0)">
            <path id="Path_12" data-name="Path 12" d="M741.8,803.722A317.946,317.946,0,1,1,966.811,710.6,316.1,316.1,0,0,1,741.8,803.722Zm0-634.656c-174.533,0-316.524,141.991-316.524,316.524S567.271,802.114,741.8,802.114s316.523-141.994,316.523-316.524S916.336,169.066,741.8,169.066Z" transform="translate(-423.671 -167.458)" fill="#b3b3b3"/>
          </g>
          <g id="Group_10" data-name="Group 10" transform="translate(39.667 39.667)">
            <path id="Path_13" data-name="Path 13" d="M714.467,736.719C560.921,736.719,436,611.8,436,458.254S560.921,179.789,714.467,179.789,992.932,304.705,992.932,458.254,868.013,736.719,714.467,736.719Zm0-555.322c-152.662,0-276.857,124.2-276.857,276.857s124.2,276.857,276.857,276.857,276.857-124.2,276.857-276.857S867.129,181.4,714.467,181.4Z" transform="translate(-436.002 -179.789)" fill="#b3b3b3"/>
          </g>
          <g id="Group_11" data-name="Group 11" transform="translate(79.334 79.33)">
            <path id="Path_14" data-name="Path 14" d="M687.132,669.719c-131.672,0-238.8-107.124-238.8-238.8s107.127-238.8,238.8-238.8,238.8,107.127,238.8,238.8S818.806,669.719,687.132,669.719Zm0-475.992c-130.787,0-237.19,106.4-237.19,237.193s106.4,237.19,237.19,237.19,237.19-106.4,237.19-237.19S817.922,193.727,687.132,193.727Z" transform="translate(-448.333 -192.119)" fill="#b3b3b3"/>
          </g>
          <g id="Group_12" data-name="Group 12" transform="translate(118.997 118.997)">
            <path id="Path_15" data-name="Path 15" d="M659.8,602.717c-109.8,0-199.135-89.331-199.135-199.132S550,204.45,659.8,204.45s199.135,89.332,199.135,199.135S769.6,602.717,659.8,602.717Zm0-396.658c-108.916,0-197.527,88.611-197.527,197.526S550.883,601.108,659.8,601.108,857.325,512.5,857.325,403.585,768.714,206.058,659.8,206.058Z" transform="translate(-460.663 -204.45)" fill="#b3b3b3"/>
          </g>
          <g id="Group_13" data-name="Group 13" transform="translate(158.664 158.664)">
            <path id="Path_16" data-name="Path 16" d="M632.462,535.717c-87.932,0-159.468-71.536-159.468-159.468S544.53,216.781,632.462,216.781,791.93,288.32,791.93,376.249,720.391,535.717,632.462,535.717Zm0-317.328c-87.044,0-157.86,70.815-157.86,157.86s70.815,157.86,157.86,157.86,157.86-70.819,157.86-157.86S719.507,218.389,632.462,218.389Z" transform="translate(-472.994 -216.781)" fill="#b3b3b3"/>
          </g>
        </g>
      </g>
    </g>
    <g id="Group_20" data-name="Group 20" transform="translate(150.852 718.548)" style="mix-blend-mode: color-dodge;isolation: isolate">
      <rect id="Rectangle_4" data-name="Rectangle 4" width="576.435" height="3.216" transform="translate(0 407.601) rotate(-45)" fill="url(#linear-gradient)"/>
    </g>
    <g id="Group_21" data-name="Group 21" transform="translate(418.724 512.98)" style="mix-blend-mode: color-dodge;isolation: isolate">
      <rect id="Rectangle_5" data-name="Rectangle 5" width="297.889" height="3.216" transform="translate(0 210.639) rotate(-45)" fill="url(#linear-gradient-2)"/>
    </g>
    <g id="Group_22" data-name="Group 22" transform="translate(1009.609 675.746)" style="mix-blend-mode: color-dodge;isolation: isolate">
      <rect id="Rectangle_6" data-name="Rectangle 6" width="698.298" height="3.217" transform="translate(0 493.771) rotate(-45)" fill="url(#linear-gradient-3)"/>
    </g>
    <g id="Group_23" data-name="Group 23" transform="translate(1247.602 1009.489)" style="mix-blend-mode: color-dodge;isolation: isolate">
      <rect id="Rectangle_7" data-name="Rectangle 7" width="106.389" height="3.217" transform="translate(0 75.223) rotate(-44.996)" fill="url(#linear-gradient-4)"/>
    </g>
    <g id="Group_24" data-name="Group 24" transform="translate(151.051 453.153)" style="mix-blend-mode: overlay;isolation: isolate">
      <path id="Path_21" data-name="Path 21" d="M19.152,82.5a2.837,2.837,0,1,0-2.837-2.837A2.838,2.838,0,0,0,19.152,82.5Z" transform="translate(-16.315 -76.826)" fill="#fff"/>
      <path id="Path_22" data-name="Path 22" d="M25.152,82.5a2.837,2.837,0,1,0-2.837-2.837A2.838,2.838,0,0,0,25.152,82.5Z" transform="translate(-3.014 -76.826)" fill="#fff"/>
      <path id="Path_23" data-name="Path 23" d="M31.152,82.5a2.837,2.837,0,1,0-2.837-2.837A2.838,2.838,0,0,0,31.152,82.5Z" transform="translate(10.287 -76.826)" fill="#fff"/>
      <path id="Path_24" data-name="Path 24" d="M37.152,82.5a2.837,2.837,0,1,0-2.837-2.837A2.838,2.838,0,0,0,37.152,82.5Z" transform="translate(23.588 -76.826)" fill="#fff"/>
      <path id="Path_25" data-name="Path 25" d="M43.152,82.5a2.837,2.837,0,1,0-2.837-2.837A2.838,2.838,0,0,0,43.152,82.5Z" transform="translate(36.889 -76.826)" fill="#fff"/>
      <path id="Path_26" data-name="Path 26" d="M49.152,82.5a2.837,2.837,0,1,0-2.837-2.837A2.838,2.838,0,0,0,49.152,82.5Z" transform="translate(50.19 -76.826)" fill="#fff"/>
      <path id="Path_27" data-name="Path 27" d="M55.152,82.5a2.837,2.837,0,1,0-2.837-2.837A2.838,2.838,0,0,0,55.152,82.5Z" transform="translate(63.491 -76.826)" fill="#fff"/>
      <path id="Path_28" data-name="Path 28" d="M61.152,82.5a2.837,2.837,0,1,0-2.837-2.837A2.838,2.838,0,0,0,61.152,82.5Z" transform="translate(76.792 -76.826)" fill="#fff"/>
      <path id="Path_29" data-name="Path 29" d="M67.152,82.5a2.837,2.837,0,1,0-2.837-2.837A2.838,2.838,0,0,0,67.152,82.5Z" transform="translate(90.093 -76.826)" fill="#fff"/>
      <path id="Path_30" data-name="Path 30" d="M73.152,82.5a2.837,2.837,0,1,0-2.837-2.837A2.838,2.838,0,0,0,73.152,82.5Z" transform="translate(103.394 -76.826)" fill="#fff"/>
      <path id="Path_31" data-name="Path 31" d="M19.152,88.5a2.837,2.837,0,1,0-2.837-2.837A2.838,2.838,0,0,0,19.152,88.5Z" transform="translate(-16.315 -63.525)" fill="#fff"/>
      <path id="Path_32" data-name="Path 32" d="M25.152,88.5a2.837,2.837,0,1,0-2.837-2.837A2.838,2.838,0,0,0,25.152,88.5Z" transform="translate(-3.014 -63.525)" fill="#fff"/>
      <path id="Path_33" data-name="Path 33" d="M31.152,88.5a2.837,2.837,0,1,0-2.837-2.837A2.838,2.838,0,0,0,31.152,88.5Z" transform="translate(10.287 -63.525)" fill="#fff"/>
      <path id="Path_34" data-name="Path 34" d="M37.152,88.5a2.837,2.837,0,1,0-2.837-2.837A2.838,2.838,0,0,0,37.152,88.5Z" transform="translate(23.588 -63.525)" fill="#fff"/>
      <path id="Path_35" data-name="Path 35" d="M43.152,88.5a2.837,2.837,0,1,0-2.837-2.837A2.838,2.838,0,0,0,43.152,88.5Z" transform="translate(36.889 -63.525)" fill="#fff"/>
      <path id="Path_36" data-name="Path 36" d="M49.152,88.5a2.837,2.837,0,1,0-2.837-2.837A2.838,2.838,0,0,0,49.152,88.5Z" transform="translate(50.19 -63.525)" fill="#fff"/>
      <path id="Path_37" data-name="Path 37" d="M55.152,88.5a2.837,2.837,0,1,0-2.837-2.837A2.838,2.838,0,0,0,55.152,88.5Z" transform="translate(63.491 -63.525)" fill="#fff"/>
      <path id="Path_38" data-name="Path 38" d="M61.152,88.5a2.837,2.837,0,1,0-2.837-2.837A2.838,2.838,0,0,0,61.152,88.5Z" transform="translate(76.792 -63.525)" fill="#fff"/>
      <path id="Path_39" data-name="Path 39" d="M67.152,88.5a2.837,2.837,0,1,0-2.837-2.837A2.838,2.838,0,0,0,67.152,88.5Z" transform="translate(90.093 -63.525)" fill="#fff"/>
      <path id="Path_40" data-name="Path 40" d="M73.152,88.5a2.837,2.837,0,1,0-2.837-2.837A2.838,2.838,0,0,0,73.152,88.5Z" transform="translate(103.394 -63.525)" fill="#fff"/>
      <path id="Path_41" data-name="Path 41" d="M19.152,94.5a2.837,2.837,0,1,0-2.837-2.837A2.838,2.838,0,0,0,19.152,94.5Z" transform="translate(-16.315 -50.224)" fill="#fff"/>
      <path id="Path_42" data-name="Path 42" d="M25.152,94.5a2.837,2.837,0,1,0-2.837-2.837A2.838,2.838,0,0,0,25.152,94.5Z" transform="translate(-3.014 -50.224)" fill="#fff"/>
      <path id="Path_43" data-name="Path 43" d="M31.152,94.5a2.837,2.837,0,1,0-2.837-2.837A2.838,2.838,0,0,0,31.152,94.5Z" transform="translate(10.287 -50.224)" fill="#fff"/>
      <path id="Path_44" data-name="Path 44" d="M37.152,94.5a2.837,2.837,0,1,0-2.837-2.837A2.838,2.838,0,0,0,37.152,94.5Z" transform="translate(23.588 -50.224)" fill="#fff"/>
      <path id="Path_45" data-name="Path 45" d="M43.152,94.5a2.837,2.837,0,1,0-2.837-2.837A2.838,2.838,0,0,0,43.152,94.5Z" transform="translate(36.889 -50.224)" fill="#fff"/>
      <path id="Path_46" data-name="Path 46" d="M49.152,94.5a2.837,2.837,0,1,0-2.837-2.837A2.838,2.838,0,0,0,49.152,94.5Z" transform="translate(50.19 -50.224)" fill="#fff"/>
      <path id="Path_47" data-name="Path 47" d="M55.152,94.5a2.837,2.837,0,1,0-2.837-2.837A2.838,2.838,0,0,0,55.152,94.5Z" transform="translate(63.491 -50.224)" fill="#fff"/>
      <path id="Path_48" data-name="Path 48" d="M61.152,94.5a2.837,2.837,0,1,0-2.837-2.837A2.838,2.838,0,0,0,61.152,94.5Z" transform="translate(76.792 -50.224)" fill="#fff"/>
      <path id="Path_49" data-name="Path 49" d="M67.152,94.5a2.837,2.837,0,1,0-2.837-2.837A2.838,2.838,0,0,0,67.152,94.5Z" transform="translate(90.093 -50.224)" fill="#fff"/>
      <path id="Path_50" data-name="Path 50" d="M73.152,94.5a2.837,2.837,0,1,0-2.837-2.837A2.838,2.838,0,0,0,73.152,94.5Z" transform="translate(103.394 -50.224)" fill="#fff"/>
      <path id="Path_51" data-name="Path 51" d="M19.152,100.5a2.837,2.837,0,1,0-2.837-2.837A2.838,2.838,0,0,0,19.152,100.5Z" transform="translate(-16.315 -36.923)" fill="#fff"/>
      <path id="Path_52" data-name="Path 52" d="M25.152,100.5a2.837,2.837,0,1,0-2.837-2.837A2.838,2.838,0,0,0,25.152,100.5Z" transform="translate(-3.014 -36.923)" fill="#fff"/>
      <path id="Path_53" data-name="Path 53" d="M31.152,100.5a2.837,2.837,0,1,0-2.837-2.837A2.838,2.838,0,0,0,31.152,100.5Z" transform="translate(10.287 -36.923)" fill="#fff"/>
      <path id="Path_54" data-name="Path 54" d="M37.152,100.5a2.837,2.837,0,1,0-2.837-2.837A2.838,2.838,0,0,0,37.152,100.5Z" transform="translate(23.588 -36.923)" fill="#fff"/>
      <path id="Path_55" data-name="Path 55" d="M43.152,100.5a2.837,2.837,0,1,0-2.837-2.837A2.838,2.838,0,0,0,43.152,100.5Z" transform="translate(36.889 -36.923)" fill="#fff"/>
      <path id="Path_56" data-name="Path 56" d="M49.152,100.5a2.837,2.837,0,1,0-2.837-2.837A2.838,2.838,0,0,0,49.152,100.5Z" transform="translate(50.19 -36.923)" fill="#fff"/>
      <path id="Path_57" data-name="Path 57" d="M55.152,100.5a2.837,2.837,0,1,0-2.837-2.837A2.838,2.838,0,0,0,55.152,100.5Z" transform="translate(63.491 -36.923)" fill="#fff"/>
      <path id="Path_58" data-name="Path 58" d="M61.152,100.5a2.837,2.837,0,1,0-2.837-2.837A2.838,2.838,0,0,0,61.152,100.5Z" transform="translate(76.792 -36.923)" fill="#fff"/>
      <path id="Path_59" data-name="Path 59" d="M67.152,100.5a2.837,2.837,0,1,0-2.837-2.837A2.838,2.838,0,0,0,67.152,100.5Z" transform="translate(90.093 -36.923)" fill="#fff"/>
      <path id="Path_60" data-name="Path 60" d="M73.152,100.5a2.837,2.837,0,1,0-2.837-2.837A2.838,2.838,0,0,0,73.152,100.5Z" transform="translate(103.394 -36.923)" fill="#fff"/>
      <path id="Path_61" data-name="Path 61" d="M19.152,106.5a2.837,2.837,0,1,0-2.837-2.837A2.838,2.838,0,0,0,19.152,106.5Z" transform="translate(-16.315 -23.622)" fill="#fff"/>
      <path id="Path_62" data-name="Path 62" d="M25.152,106.5a2.837,2.837,0,1,0-2.837-2.837A2.838,2.838,0,0,0,25.152,106.5Z" transform="translate(-3.014 -23.622)" fill="#fff"/>
      <path id="Path_63" data-name="Path 63" d="M31.152,106.5a2.837,2.837,0,1,0-2.837-2.837A2.838,2.838,0,0,0,31.152,106.5Z" transform="translate(10.287 -23.622)" fill="#fff"/>
      <path id="Path_64" data-name="Path 64" d="M37.152,106.5a2.837,2.837,0,1,0-2.837-2.837A2.838,2.838,0,0,0,37.152,106.5Z" transform="translate(23.588 -23.622)" fill="#fff"/>
      <path id="Path_65" data-name="Path 65" d="M43.152,106.5a2.837,2.837,0,1,0-2.837-2.837A2.838,2.838,0,0,0,43.152,106.5Z" transform="translate(36.889 -23.622)" fill="#fff"/>
      <path id="Path_66" data-name="Path 66" d="M49.152,106.5a2.837,2.837,0,1,0-2.837-2.837A2.838,2.838,0,0,0,49.152,106.5Z" transform="translate(50.19 -23.622)" fill="#fff"/>
      <path id="Path_67" data-name="Path 67" d="M55.152,106.5a2.837,2.837,0,1,0-2.837-2.837A2.838,2.838,0,0,0,55.152,106.5Z" transform="translate(63.491 -23.622)" fill="#fff"/>
      <path id="Path_68" data-name="Path 68" d="M61.152,106.5a2.837,2.837,0,1,0-2.837-2.837A2.838,2.838,0,0,0,61.152,106.5Z" transform="translate(76.792 -23.622)" fill="#fff"/>
      <path id="Path_69" data-name="Path 69" d="M67.152,106.5a2.837,2.837,0,1,0-2.837-2.837A2.838,2.838,0,0,0,67.152,106.5Z" transform="translate(90.093 -23.622)" fill="#fff"/>
      <path id="Path_70" data-name="Path 70" d="M73.152,106.5a2.837,2.837,0,1,0-2.837-2.837A2.838,2.838,0,0,0,73.152,106.5Z" transform="translate(103.394 -23.622)" fill="#fff"/>
      <path id="Path_71" data-name="Path 71" d="M19.152,112.5a2.837,2.837,0,1,0-2.837-2.837A2.838,2.838,0,0,0,19.152,112.5Z" transform="translate(-16.315 -10.321)" fill="#fff"/>
      <path id="Path_72" data-name="Path 72" d="M25.152,112.5a2.837,2.837,0,1,0-2.837-2.837A2.838,2.838,0,0,0,25.152,112.5Z" transform="translate(-3.014 -10.321)" fill="#fff"/>
      <path id="Path_73" data-name="Path 73" d="M31.152,112.5a2.837,2.837,0,1,0-2.837-2.837A2.838,2.838,0,0,0,31.152,112.5Z" transform="translate(10.287 -10.321)" fill="#fff"/>
      <path id="Path_74" data-name="Path 74" d="M37.152,112.5a2.837,2.837,0,1,0-2.837-2.837A2.838,2.838,0,0,0,37.152,112.5Z" transform="translate(23.588 -10.321)" fill="#fff"/>
      <path id="Path_75" data-name="Path 75" d="M43.152,112.5a2.837,2.837,0,1,0-2.837-2.837A2.838,2.838,0,0,0,43.152,112.5Z" transform="translate(36.889 -10.321)" fill="#fff"/>
      <path id="Path_76" data-name="Path 76" d="M49.152,112.5a2.837,2.837,0,1,0-2.837-2.837A2.838,2.838,0,0,0,49.152,112.5Z" transform="translate(50.19 -10.321)" fill="#fff"/>
      <path id="Path_77" data-name="Path 77" d="M55.152,112.5a2.837,2.837,0,1,0-2.837-2.837A2.838,2.838,0,0,0,55.152,112.5Z" transform="translate(63.491 -10.321)" fill="#fff"/>
      <path id="Path_78" data-name="Path 78" d="M61.152,112.5a2.837,2.837,0,1,0-2.837-2.837A2.838,2.838,0,0,0,61.152,112.5Z" transform="translate(76.792 -10.321)" fill="#fff"/>
      <path id="Path_79" data-name="Path 79" d="M67.152,112.5a2.837,2.837,0,1,0-2.837-2.837A2.838,2.838,0,0,0,67.152,112.5Z" transform="translate(90.093 -10.321)" fill="#fff"/>
      <path id="Path_80" data-name="Path 80" d="M73.152,112.5a2.837,2.837,0,1,0-2.837-2.837A2.838,2.838,0,0,0,73.152,112.5Z" transform="translate(103.394 -10.321)" fill="#fff"/>
      <path id="Path_81" data-name="Path 81" d="M19.152,118.5a2.837,2.837,0,1,0-2.837-2.837A2.838,2.838,0,0,0,19.152,118.5Z" transform="translate(-16.315 2.98)" fill="#fff"/>
      <path id="Path_82" data-name="Path 82" d="M25.152,118.5a2.837,2.837,0,1,0-2.837-2.837A2.838,2.838,0,0,0,25.152,118.5Z" transform="translate(-3.014 2.98)" fill="#fff"/>
      <path id="Path_83" data-name="Path 83" d="M31.152,118.5a2.837,2.837,0,1,0-2.837-2.837A2.838,2.838,0,0,0,31.152,118.5Z" transform="translate(10.287 2.98)" fill="#fff"/>
      <path id="Path_84" data-name="Path 84" d="M37.152,118.5a2.837,2.837,0,1,0-2.837-2.837A2.838,2.838,0,0,0,37.152,118.5Z" transform="translate(23.588 2.98)" fill="#fff"/>
      <path id="Path_85" data-name="Path 85" d="M43.152,118.5a2.837,2.837,0,1,0-2.837-2.837A2.838,2.838,0,0,0,43.152,118.5Z" transform="translate(36.889 2.98)" fill="#fff"/>
      <path id="Path_86" data-name="Path 86" d="M49.152,118.5a2.837,2.837,0,1,0-2.837-2.837A2.838,2.838,0,0,0,49.152,118.5Z" transform="translate(50.19 2.98)" fill="#fff"/>
      <path id="Path_87" data-name="Path 87" d="M55.152,118.5a2.837,2.837,0,1,0-2.837-2.837A2.838,2.838,0,0,0,55.152,118.5Z" transform="translate(63.491 2.98)" fill="#fff"/>
      <path id="Path_88" data-name="Path 88" d="M61.152,118.5a2.837,2.837,0,1,0-2.837-2.837A2.838,2.838,0,0,0,61.152,118.5Z" transform="translate(76.792 2.98)" fill="#fff"/>
      <path id="Path_89" data-name="Path 89" d="M67.152,118.5a2.837,2.837,0,1,0-2.837-2.837A2.838,2.838,0,0,0,67.152,118.5Z" transform="translate(90.093 2.98)" fill="#fff"/>
      <path id="Path_90" data-name="Path 90" d="M73.152,118.5a2.837,2.837,0,1,0-2.837-2.837A2.838,2.838,0,0,0,73.152,118.5Z" transform="translate(103.394 2.98)" fill="#fff"/>
      <path id="Path_91" data-name="Path 91" d="M19.152,124.5a2.837,2.837,0,1,0-2.837-2.837A2.838,2.838,0,0,0,19.152,124.5Z" transform="translate(-16.315 16.281)" fill="#fff"/>
      <path id="Path_92" data-name="Path 92" d="M25.152,124.5a2.837,2.837,0,1,0-2.837-2.837A2.838,2.838,0,0,0,25.152,124.5Z" transform="translate(-3.014 16.281)" fill="#fff"/>
      <path id="Path_93" data-name="Path 93" d="M31.152,124.5a2.837,2.837,0,1,0-2.837-2.837A2.838,2.838,0,0,0,31.152,124.5Z" transform="translate(10.287 16.281)" fill="#fff"/>
      <path id="Path_94" data-name="Path 94" d="M37.152,124.5a2.837,2.837,0,1,0-2.837-2.837A2.838,2.838,0,0,0,37.152,124.5Z" transform="translate(23.588 16.281)" fill="#fff"/>
      <path id="Path_95" data-name="Path 95" d="M43.152,124.5a2.837,2.837,0,1,0-2.837-2.837A2.838,2.838,0,0,0,43.152,124.5Z" transform="translate(36.889 16.281)" fill="#fff"/>
      <path id="Path_96" data-name="Path 96" d="M49.152,124.5a2.837,2.837,0,1,0-2.837-2.837A2.838,2.838,0,0,0,49.152,124.5Z" transform="translate(50.19 16.281)" fill="#fff"/>
      <path id="Path_97" data-name="Path 97" d="M55.152,124.5a2.837,2.837,0,1,0-2.837-2.837A2.838,2.838,0,0,0,55.152,124.5Z" transform="translate(63.491 16.281)" fill="#fff"/>
      <path id="Path_98" data-name="Path 98" d="M61.152,124.5a2.837,2.837,0,1,0-2.837-2.837A2.838,2.838,0,0,0,61.152,124.5Z" transform="translate(76.792 16.281)" fill="#fff"/>
      <path id="Path_99" data-name="Path 99" d="M67.152,124.5a2.837,2.837,0,1,0-2.837-2.837A2.838,2.838,0,0,0,67.152,124.5Z" transform="translate(90.093 16.281)" fill="#fff"/>
      <path id="Path_100" data-name="Path 100" d="M73.152,124.5a2.837,2.837,0,1,0-2.837-2.837A2.838,2.838,0,0,0,73.152,124.5Z" transform="translate(103.394 16.281)" fill="#fff"/>
      <path id="Path_101" data-name="Path 101" d="M19.152,130.5a2.837,2.837,0,1,0-2.837-2.837A2.838,2.838,0,0,0,19.152,130.5Z" transform="translate(-16.315 29.582)" fill="#fff"/>
      <path id="Path_102" data-name="Path 102" d="M25.152,130.5a2.837,2.837,0,1,0-2.837-2.837A2.838,2.838,0,0,0,25.152,130.5Z" transform="translate(-3.014 29.582)" fill="#fff"/>
      <path id="Path_103" data-name="Path 103" d="M31.152,130.5a2.837,2.837,0,1,0-2.837-2.837A2.838,2.838,0,0,0,31.152,130.5Z" transform="translate(10.287 29.582)" fill="#fff"/>
      <path id="Path_104" data-name="Path 104" d="M37.152,130.5a2.837,2.837,0,1,0-2.837-2.837A2.838,2.838,0,0,0,37.152,130.5Z" transform="translate(23.588 29.582)" fill="#fff"/>
      <path id="Path_105" data-name="Path 105" d="M43.152,130.5a2.837,2.837,0,1,0-2.837-2.837A2.838,2.838,0,0,0,43.152,130.5Z" transform="translate(36.889 29.582)" fill="#fff"/>
      <path id="Path_106" data-name="Path 106" d="M49.152,130.5a2.837,2.837,0,1,0-2.837-2.837A2.838,2.838,0,0,0,49.152,130.5Z" transform="translate(50.19 29.582)" fill="#fff"/>
      <path id="Path_107" data-name="Path 107" d="M55.152,130.5a2.837,2.837,0,1,0-2.837-2.837A2.838,2.838,0,0,0,55.152,130.5Z" transform="translate(63.491 29.582)" fill="#fff"/>
      <path id="Path_108" data-name="Path 108" d="M61.152,130.5a2.837,2.837,0,1,0-2.837-2.837A2.838,2.838,0,0,0,61.152,130.5Z" transform="translate(76.792 29.582)" fill="#fff"/>
      <path id="Path_109" data-name="Path 109" d="M67.152,130.5a2.837,2.837,0,1,0-2.837-2.837A2.838,2.838,0,0,0,67.152,130.5Z" transform="translate(90.093 29.582)" fill="#fff"/>
      <path id="Path_110" data-name="Path 110" d="M73.152,130.5a2.837,2.837,0,1,0-2.837-2.837A2.838,2.838,0,0,0,73.152,130.5Z" transform="translate(103.394 29.582)" fill="#fff"/>
      <path id="Path_111" data-name="Path 111" d="M19.152,136.5a2.837,2.837,0,1,0-2.837-2.837A2.838,2.838,0,0,0,19.152,136.5Z" transform="translate(-16.315 42.883)" fill="#fff"/>
      <path id="Path_112" data-name="Path 112" d="M25.152,136.5a2.837,2.837,0,1,0-2.837-2.837A2.838,2.838,0,0,0,25.152,136.5Z" transform="translate(-3.014 42.883)" fill="#fff"/>
      <path id="Path_113" data-name="Path 113" d="M31.152,136.5a2.837,2.837,0,1,0-2.837-2.837A2.838,2.838,0,0,0,31.152,136.5Z" transform="translate(10.287 42.883)" fill="#fff"/>
      <path id="Path_114" data-name="Path 114" d="M37.152,136.5a2.837,2.837,0,1,0-2.837-2.837A2.838,2.838,0,0,0,37.152,136.5Z" transform="translate(23.588 42.883)" fill="#fff"/>
      <path id="Path_115" data-name="Path 115" d="M43.152,136.5a2.837,2.837,0,1,0-2.837-2.837A2.838,2.838,0,0,0,43.152,136.5Z" transform="translate(36.889 42.883)" fill="#fff"/>
      <path id="Path_116" data-name="Path 116" d="M49.152,136.5a2.837,2.837,0,1,0-2.837-2.837A2.838,2.838,0,0,0,49.152,136.5Z" transform="translate(50.19 42.883)" fill="#fff"/>
      <path id="Path_117" data-name="Path 117" d="M55.152,136.5a2.837,2.837,0,1,0-2.837-2.837A2.838,2.838,0,0,0,55.152,136.5Z" transform="translate(63.491 42.883)" fill="#fff"/>
      <path id="Path_118" data-name="Path 118" d="M61.152,136.5a2.837,2.837,0,1,0-2.837-2.837A2.838,2.838,0,0,0,61.152,136.5Z" transform="translate(76.792 42.883)" fill="#fff"/>
      <path id="Path_119" data-name="Path 119" d="M67.152,136.5a2.837,2.837,0,1,0-2.837-2.837A2.838,2.838,0,0,0,67.152,136.5Z" transform="translate(90.093 42.883)" fill="#fff"/>
      <path id="Path_120" data-name="Path 120" d="M73.152,136.5a2.837,2.837,0,1,0-2.837-2.837A2.838,2.838,0,0,0,73.152,136.5Z" transform="translate(103.394 42.883)" fill="#fff"/>
      <path id="Path_121" data-name="Path 121" d="M19.152,142.5a2.837,2.837,0,1,0-2.837-2.837A2.838,2.838,0,0,0,19.152,142.5Z" transform="translate(-16.315 56.184)" fill="#fff"/>
      <path id="Path_122" data-name="Path 122" d="M25.152,142.5a2.837,2.837,0,1,0-2.837-2.837A2.838,2.838,0,0,0,25.152,142.5Z" transform="translate(-3.014 56.184)" fill="#fff"/>
      <path id="Path_123" data-name="Path 123" d="M31.152,142.5a2.837,2.837,0,1,0-2.837-2.837A2.838,2.838,0,0,0,31.152,142.5Z" transform="translate(10.287 56.184)" fill="#fff"/>
      <path id="Path_124" data-name="Path 124" d="M37.152,142.5a2.837,2.837,0,1,0-2.837-2.837A2.838,2.838,0,0,0,37.152,142.5Z" transform="translate(23.588 56.184)" fill="#fff"/>
      <path id="Path_125" data-name="Path 125" d="M43.152,142.5a2.837,2.837,0,1,0-2.837-2.837A2.838,2.838,0,0,0,43.152,142.5Z" transform="translate(36.889 56.184)" fill="#fff"/>
      <path id="Path_126" data-name="Path 126" d="M49.152,142.5a2.837,2.837,0,1,0-2.837-2.837A2.838,2.838,0,0,0,49.152,142.5Z" transform="translate(50.19 56.184)" fill="#fff"/>
      <path id="Path_127" data-name="Path 127" d="M55.152,142.5a2.837,2.837,0,1,0-2.837-2.837A2.838,2.838,0,0,0,55.152,142.5Z" transform="translate(63.491 56.184)" fill="#fff"/>
      <path id="Path_128" data-name="Path 128" d="M61.152,142.5a2.837,2.837,0,1,0-2.837-2.837A2.838,2.838,0,0,0,61.152,142.5Z" transform="translate(76.792 56.184)" fill="#fff"/>
      <path id="Path_129" data-name="Path 129" d="M67.152,142.5a2.837,2.837,0,1,0-2.837-2.837A2.838,2.838,0,0,0,67.152,142.5Z" transform="translate(90.093 56.184)" fill="#fff"/>
      <path id="Path_130" data-name="Path 130" d="M73.152,142.5a2.837,2.837,0,1,0-2.837-2.837A2.838,2.838,0,0,0,73.152,142.5Z" transform="translate(103.394 56.184)" fill="#fff"/>
      <path id="Path_131" data-name="Path 131" d="M19.152,148.5a2.837,2.837,0,1,0-2.837-2.837A2.838,2.838,0,0,0,19.152,148.5Z" transform="translate(-16.315 69.485)" fill="#fff"/>
      <path id="Path_132" data-name="Path 132" d="M25.152,148.5a2.837,2.837,0,1,0-2.837-2.837A2.838,2.838,0,0,0,25.152,148.5Z" transform="translate(-3.014 69.485)" fill="#fff"/>
      <path id="Path_133" data-name="Path 133" d="M31.152,148.5a2.837,2.837,0,1,0-2.837-2.837A2.838,2.838,0,0,0,31.152,148.5Z" transform="translate(10.287 69.485)" fill="#fff"/>
      <path id="Path_134" data-name="Path 134" d="M37.152,148.5a2.837,2.837,0,1,0-2.837-2.837A2.838,2.838,0,0,0,37.152,148.5Z" transform="translate(23.588 69.485)" fill="#fff"/>
      <path id="Path_135" data-name="Path 135" d="M43.152,148.5a2.837,2.837,0,1,0-2.837-2.837A2.838,2.838,0,0,0,43.152,148.5Z" transform="translate(36.889 69.485)" fill="#fff"/>
      <path id="Path_136" data-name="Path 136" d="M49.152,148.5a2.837,2.837,0,1,0-2.837-2.837A2.838,2.838,0,0,0,49.152,148.5Z" transform="translate(50.19 69.485)" fill="#fff"/>
      <path id="Path_137" data-name="Path 137" d="M55.152,148.5a2.837,2.837,0,1,0-2.837-2.837A2.838,2.838,0,0,0,55.152,148.5Z" transform="translate(63.491 69.485)" fill="#fff"/>
      <path id="Path_138" data-name="Path 138" d="M61.152,148.5a2.837,2.837,0,1,0-2.837-2.837A2.838,2.838,0,0,0,61.152,148.5Z" transform="translate(76.792 69.485)" fill="#fff"/>
      <path id="Path_139" data-name="Path 139" d="M67.152,148.5a2.837,2.837,0,1,0-2.837-2.837A2.838,2.838,0,0,0,67.152,148.5Z" transform="translate(90.093 69.485)" fill="#fff"/>
      <path id="Path_140" data-name="Path 140" d="M73.152,148.5a2.837,2.837,0,1,0-2.837-2.837A2.838,2.838,0,0,0,73.152,148.5Z" transform="translate(103.394 69.485)" fill="#fff"/>
      <path id="Path_141" data-name="Path 141" d="M19.152,154.5a2.837,2.837,0,1,0-2.837-2.837A2.838,2.838,0,0,0,19.152,154.5Z" transform="translate(-16.315 82.786)" fill="#fff"/>
      <path id="Path_142" data-name="Path 142" d="M25.152,154.5a2.837,2.837,0,1,0-2.837-2.837A2.838,2.838,0,0,0,25.152,154.5Z" transform="translate(-3.014 82.786)" fill="#fff"/>
      <path id="Path_143" data-name="Path 143" d="M31.152,154.5a2.837,2.837,0,1,0-2.837-2.837A2.838,2.838,0,0,0,31.152,154.5Z" transform="translate(10.287 82.786)" fill="#fff"/>
      <path id="Path_144" data-name="Path 144" d="M37.152,154.5a2.837,2.837,0,1,0-2.837-2.837A2.838,2.838,0,0,0,37.152,154.5Z" transform="translate(23.588 82.786)" fill="#fff"/>
      <path id="Path_145" data-name="Path 145" d="M43.152,154.5a2.837,2.837,0,1,0-2.837-2.837A2.838,2.838,0,0,0,43.152,154.5Z" transform="translate(36.889 82.786)" fill="#fff"/>
      <path id="Path_146" data-name="Path 146" d="M49.152,154.5a2.837,2.837,0,1,0-2.837-2.837A2.838,2.838,0,0,0,49.152,154.5Z" transform="translate(50.19 82.786)" fill="#fff"/>
      <path id="Path_147" data-name="Path 147" d="M55.152,154.5a2.837,2.837,0,1,0-2.837-2.837A2.838,2.838,0,0,0,55.152,154.5Z" transform="translate(63.491 82.786)" fill="#fff"/>
      <path id="Path_148" data-name="Path 148" d="M61.152,154.5a2.837,2.837,0,1,0-2.837-2.837A2.838,2.838,0,0,0,61.152,154.5Z" transform="translate(76.792 82.786)" fill="#fff"/>
      <path id="Path_149" data-name="Path 149" d="M67.152,154.5a2.837,2.837,0,1,0-2.837-2.837A2.838,2.838,0,0,0,67.152,154.5Z" transform="translate(90.093 82.786)" fill="#fff"/>
      <path id="Path_150" data-name="Path 150" d="M73.152,154.5a2.837,2.837,0,1,0-2.837-2.837A2.838,2.838,0,0,0,73.152,154.5Z" transform="translate(103.394 82.786)" fill="#fff"/>
      <path id="Path_151" data-name="Path 151" d="M19.152,160.5a2.837,2.837,0,1,0-2.837-2.837A2.838,2.838,0,0,0,19.152,160.5Z" transform="translate(-16.315 96.087)" fill="#fff"/>
      <path id="Path_152" data-name="Path 152" d="M25.152,160.5a2.837,2.837,0,1,0-2.837-2.837A2.838,2.838,0,0,0,25.152,160.5Z" transform="translate(-3.014 96.087)" fill="#fff"/>
      <path id="Path_153" data-name="Path 153" d="M31.152,160.5a2.837,2.837,0,1,0-2.837-2.837A2.838,2.838,0,0,0,31.152,160.5Z" transform="translate(10.287 96.087)" fill="#fff"/>
      <path id="Path_154" data-name="Path 154" d="M37.152,160.5a2.837,2.837,0,1,0-2.837-2.837A2.838,2.838,0,0,0,37.152,160.5Z" transform="translate(23.588 96.087)" fill="#fff"/>
      <path id="Path_155" data-name="Path 155" d="M43.152,160.5a2.837,2.837,0,1,0-2.837-2.837A2.838,2.838,0,0,0,43.152,160.5Z" transform="translate(36.889 96.087)" fill="#fff"/>
      <path id="Path_156" data-name="Path 156" d="M49.152,160.5a2.837,2.837,0,1,0-2.837-2.837A2.838,2.838,0,0,0,49.152,160.5Z" transform="translate(50.19 96.087)" fill="#fff"/>
      <path id="Path_157" data-name="Path 157" d="M55.152,160.5a2.837,2.837,0,1,0-2.837-2.837A2.838,2.838,0,0,0,55.152,160.5Z" transform="translate(63.491 96.087)" fill="#fff"/>
      <path id="Path_158" data-name="Path 158" d="M61.152,160.5a2.837,2.837,0,1,0-2.837-2.837A2.838,2.838,0,0,0,61.152,160.5Z" transform="translate(76.792 96.087)" fill="#fff"/>
      <path id="Path_159" data-name="Path 159" d="M67.152,160.5a2.837,2.837,0,1,0-2.837-2.837A2.838,2.838,0,0,0,67.152,160.5Z" transform="translate(90.093 96.087)" fill="#fff"/>
      <path id="Path_160" data-name="Path 160" d="M73.152,160.5a2.837,2.837,0,1,0-2.837-2.837A2.838,2.838,0,0,0,73.152,160.5Z" transform="translate(103.394 96.087)" fill="#fff"/>
      <path id="Path_161" data-name="Path 161" d="M19.152,166.5a2.837,2.837,0,1,0-2.837-2.837A2.838,2.838,0,0,0,19.152,166.5Z" transform="translate(-16.315 109.388)" fill="#fff"/>
      <path id="Path_162" data-name="Path 162" d="M25.152,166.5a2.837,2.837,0,1,0-2.837-2.837A2.838,2.838,0,0,0,25.152,166.5Z" transform="translate(-3.014 109.388)" fill="#fff"/>
      <path id="Path_163" data-name="Path 163" d="M31.152,166.5a2.837,2.837,0,1,0-2.837-2.837A2.838,2.838,0,0,0,31.152,166.5Z" transform="translate(10.287 109.388)" fill="#fff"/>
      <path id="Path_164" data-name="Path 164" d="M37.152,166.5a2.837,2.837,0,1,0-2.837-2.837A2.838,2.838,0,0,0,37.152,166.5Z" transform="translate(23.588 109.388)" fill="#fff"/>
      <path id="Path_165" data-name="Path 165" d="M43.152,166.5a2.837,2.837,0,1,0-2.837-2.837A2.838,2.838,0,0,0,43.152,166.5Z" transform="translate(36.889 109.388)" fill="#fff"/>
      <path id="Path_166" data-name="Path 166" d="M49.152,166.5a2.837,2.837,0,1,0-2.837-2.837A2.838,2.838,0,0,0,49.152,166.5Z" transform="translate(50.19 109.388)" fill="#fff"/>
      <path id="Path_167" data-name="Path 167" d="M55.152,166.5a2.837,2.837,0,1,0-2.837-2.837A2.838,2.838,0,0,0,55.152,166.5Z" transform="translate(63.491 109.388)" fill="#fff"/>
      <path id="Path_168" data-name="Path 168" d="M61.152,166.5a2.837,2.837,0,1,0-2.837-2.837A2.838,2.838,0,0,0,61.152,166.5Z" transform="translate(76.792 109.388)" fill="#fff"/>
      <path id="Path_169" data-name="Path 169" d="M67.152,166.5a2.837,2.837,0,1,0-2.837-2.837A2.838,2.838,0,0,0,67.152,166.5Z" transform="translate(90.093 109.388)" fill="#fff"/>
      <path id="Path_170" data-name="Path 170" d="M73.152,166.5a2.837,2.837,0,1,0-2.837-2.837A2.838,2.838,0,0,0,73.152,166.5Z" transform="translate(103.394 109.388)" fill="#fff"/>
      <path id="Path_171" data-name="Path 171" d="M19.152,172.5a2.837,2.837,0,1,0-2.837-2.837A2.838,2.838,0,0,0,19.152,172.5Z" transform="translate(-16.315 122.689)" fill="#fff"/>
      <path id="Path_172" data-name="Path 172" d="M25.152,172.5a2.837,2.837,0,1,0-2.837-2.837A2.838,2.838,0,0,0,25.152,172.5Z" transform="translate(-3.014 122.689)" fill="#fff"/>
      <path id="Path_173" data-name="Path 173" d="M31.152,172.5a2.837,2.837,0,1,0-2.837-2.837A2.838,2.838,0,0,0,31.152,172.5Z" transform="translate(10.287 122.689)" fill="#fff"/>
      <path id="Path_174" data-name="Path 174" d="M37.152,172.5a2.837,2.837,0,1,0-2.837-2.837A2.838,2.838,0,0,0,37.152,172.5Z" transform="translate(23.588 122.689)" fill="#fff"/>
      <path id="Path_175" data-name="Path 175" d="M43.152,172.5a2.837,2.837,0,1,0-2.837-2.837A2.838,2.838,0,0,0,43.152,172.5Z" transform="translate(36.889 122.689)" fill="#fff"/>
      <path id="Path_176" data-name="Path 176" d="M49.152,172.5a2.837,2.837,0,1,0-2.837-2.837A2.838,2.838,0,0,0,49.152,172.5Z" transform="translate(50.19 122.689)" fill="#fff"/>
      <path id="Path_177" data-name="Path 177" d="M55.152,172.5a2.837,2.837,0,1,0-2.837-2.837A2.838,2.838,0,0,0,55.152,172.5Z" transform="translate(63.491 122.689)" fill="#fff"/>
      <path id="Path_178" data-name="Path 178" d="M61.152,172.5a2.837,2.837,0,1,0-2.837-2.837A2.838,2.838,0,0,0,61.152,172.5Z" transform="translate(76.792 122.689)" fill="#fff"/>
      <path id="Path_179" data-name="Path 179" d="M67.152,172.5a2.837,2.837,0,1,0-2.837-2.837A2.838,2.838,0,0,0,67.152,172.5Z" transform="translate(90.093 122.689)" fill="#fff"/>
      <path id="Path_180" data-name="Path 180" d="M73.152,172.5a2.837,2.837,0,1,0-2.837-2.837A2.838,2.838,0,0,0,73.152,172.5Z" transform="translate(103.394 122.689)" fill="#fff"/>
      <path id="Path_181" data-name="Path 181" d="M19.152,178.5a2.837,2.837,0,1,0-2.837-2.837A2.838,2.838,0,0,0,19.152,178.5Z" transform="translate(-16.315 135.99)" fill="#fff"/>
      <path id="Path_182" data-name="Path 182" d="M25.152,178.5a2.837,2.837,0,1,0-2.837-2.837A2.838,2.838,0,0,0,25.152,178.5Z" transform="translate(-3.014 135.99)" fill="#fff"/>
      <path id="Path_183" data-name="Path 183" d="M31.152,178.5a2.837,2.837,0,1,0-2.837-2.837A2.838,2.838,0,0,0,31.152,178.5Z" transform="translate(10.287 135.99)" fill="#fff"/>
      <path id="Path_184" data-name="Path 184" d="M37.152,178.5a2.837,2.837,0,1,0-2.837-2.837A2.838,2.838,0,0,0,37.152,178.5Z" transform="translate(23.588 135.99)" fill="#fff"/>
      <path id="Path_185" data-name="Path 185" d="M43.152,178.5a2.837,2.837,0,1,0-2.837-2.837A2.838,2.838,0,0,0,43.152,178.5Z" transform="translate(36.889 135.99)" fill="#fff"/>
      <path id="Path_186" data-name="Path 186" d="M49.152,178.5a2.837,2.837,0,1,0-2.837-2.837A2.838,2.838,0,0,0,49.152,178.5Z" transform="translate(50.19 135.99)" fill="#fff"/>
      <path id="Path_187" data-name="Path 187" d="M55.152,178.5a2.837,2.837,0,1,0-2.837-2.837A2.838,2.838,0,0,0,55.152,178.5Z" transform="translate(63.491 135.99)" fill="#fff"/>
      <path id="Path_188" data-name="Path 188" d="M61.152,178.5a2.837,2.837,0,1,0-2.837-2.837A2.838,2.838,0,0,0,61.152,178.5Z" transform="translate(76.792 135.99)" fill="#fff"/>
      <path id="Path_189" data-name="Path 189" d="M67.152,178.5a2.837,2.837,0,1,0-2.837-2.837A2.838,2.838,0,0,0,67.152,178.5Z" transform="translate(90.093 135.99)" fill="#fff"/>
      <path id="Path_190" data-name="Path 190" d="M73.152,178.5a2.837,2.837,0,1,0-2.837-2.837A2.838,2.838,0,0,0,73.152,178.5Z" transform="translate(103.394 135.99)" fill="#fff"/>
      <path id="Path_191" data-name="Path 191" d="M19.152,184.5a2.837,2.837,0,1,0-2.837-2.837A2.838,2.838,0,0,0,19.152,184.5Z" transform="translate(-16.315 149.291)" fill="#fff"/>
      <path id="Path_192" data-name="Path 192" d="M25.152,184.5a2.837,2.837,0,1,0-2.837-2.837A2.838,2.838,0,0,0,25.152,184.5Z" transform="translate(-3.014 149.291)" fill="#fff"/>
      <path id="Path_193" data-name="Path 193" d="M31.152,184.5a2.837,2.837,0,1,0-2.837-2.837A2.838,2.838,0,0,0,31.152,184.5Z" transform="translate(10.287 149.291)" fill="#fff"/>
      <path id="Path_194" data-name="Path 194" d="M37.152,184.5a2.837,2.837,0,1,0-2.837-2.837A2.838,2.838,0,0,0,37.152,184.5Z" transform="translate(23.588 149.291)" fill="#fff"/>
      <path id="Path_195" data-name="Path 195" d="M43.152,184.5a2.837,2.837,0,1,0-2.837-2.837A2.838,2.838,0,0,0,43.152,184.5Z" transform="translate(36.889 149.291)" fill="#fff"/>
      <path id="Path_196" data-name="Path 196" d="M49.152,184.5a2.837,2.837,0,1,0-2.837-2.837A2.838,2.838,0,0,0,49.152,184.5Z" transform="translate(50.19 149.291)" fill="#fff"/>
      <path id="Path_197" data-name="Path 197" d="M55.152,184.5a2.837,2.837,0,1,0-2.837-2.837A2.838,2.838,0,0,0,55.152,184.5Z" transform="translate(63.491 149.291)" fill="#fff"/>
      <path id="Path_198" data-name="Path 198" d="M61.152,184.5a2.837,2.837,0,1,0-2.837-2.837A2.838,2.838,0,0,0,61.152,184.5Z" transform="translate(76.792 149.291)" fill="#fff"/>
      <path id="Path_199" data-name="Path 199" d="M67.152,184.5a2.837,2.837,0,1,0-2.837-2.837A2.838,2.838,0,0,0,67.152,184.5Z" transform="translate(90.093 149.291)" fill="#fff"/>
      <path id="Path_200" data-name="Path 200" d="M73.152,184.5a2.837,2.837,0,1,0-2.837-2.837A2.838,2.838,0,0,0,73.152,184.5Z" transform="translate(103.394 149.291)" fill="#fff"/>
      <path id="Path_201" data-name="Path 201" d="M19.152,190.5a2.837,2.837,0,1,0-2.837-2.837A2.838,2.838,0,0,0,19.152,190.5Z" transform="translate(-16.315 162.592)" fill="#fff"/>
      <path id="Path_202" data-name="Path 202" d="M25.152,190.5a2.837,2.837,0,1,0-2.837-2.837A2.838,2.838,0,0,0,25.152,190.5Z" transform="translate(-3.014 162.592)" fill="#fff"/>
      <path id="Path_203" data-name="Path 203" d="M31.152,190.5a2.837,2.837,0,1,0-2.837-2.837A2.838,2.838,0,0,0,31.152,190.5Z" transform="translate(10.287 162.592)" fill="#fff"/>
      <path id="Path_204" data-name="Path 204" d="M37.152,190.5a2.837,2.837,0,1,0-2.837-2.837A2.838,2.838,0,0,0,37.152,190.5Z" transform="translate(23.588 162.592)" fill="#fff"/>
      <path id="Path_205" data-name="Path 205" d="M43.152,190.5a2.837,2.837,0,1,0-2.837-2.837A2.838,2.838,0,0,0,43.152,190.5Z" transform="translate(36.889 162.592)" fill="#fff"/>
      <path id="Path_206" data-name="Path 206" d="M49.152,190.5a2.837,2.837,0,1,0-2.837-2.837A2.838,2.838,0,0,0,49.152,190.5Z" transform="translate(50.19 162.592)" fill="#fff"/>
      <path id="Path_207" data-name="Path 207" d="M55.152,190.5a2.837,2.837,0,1,0-2.837-2.837A2.838,2.838,0,0,0,55.152,190.5Z" transform="translate(63.491 162.592)" fill="#fff"/>
      <path id="Path_208" data-name="Path 208" d="M61.152,190.5a2.837,2.837,0,1,0-2.837-2.837A2.838,2.838,0,0,0,61.152,190.5Z" transform="translate(76.792 162.592)" fill="#fff"/>
      <path id="Path_209" data-name="Path 209" d="M67.152,190.5a2.837,2.837,0,1,0-2.837-2.837A2.838,2.838,0,0,0,67.152,190.5Z" transform="translate(90.093 162.592)" fill="#fff"/>
      <path id="Path_210" data-name="Path 210" d="M73.152,190.5a2.837,2.837,0,1,0-2.837-2.837A2.838,2.838,0,0,0,73.152,190.5Z" transform="translate(103.394 162.592)" fill="#fff"/>
      <path id="Path_211" data-name="Path 211" d="M19.152,196.5a2.837,2.837,0,1,0-2.837-2.837A2.838,2.838,0,0,0,19.152,196.5Z" transform="translate(-16.315 175.893)" fill="#fff"/>
      <path id="Path_212" data-name="Path 212" d="M25.152,196.5a2.837,2.837,0,1,0-2.837-2.837A2.838,2.838,0,0,0,25.152,196.5Z" transform="translate(-3.014 175.893)" fill="#fff"/>
      <path id="Path_213" data-name="Path 213" d="M31.152,196.5a2.837,2.837,0,1,0-2.837-2.837A2.838,2.838,0,0,0,31.152,196.5Z" transform="translate(10.287 175.893)" fill="#fff"/>
      <path id="Path_214" data-name="Path 214" d="M37.152,196.5a2.837,2.837,0,1,0-2.837-2.837A2.838,2.838,0,0,0,37.152,196.5Z" transform="translate(23.588 175.893)" fill="#fff"/>
      <path id="Path_215" data-name="Path 215" d="M43.152,196.5a2.837,2.837,0,1,0-2.837-2.837A2.838,2.838,0,0,0,43.152,196.5Z" transform="translate(36.889 175.893)" fill="#fff"/>
      <path id="Path_216" data-name="Path 216" d="M49.152,196.5a2.837,2.837,0,1,0-2.837-2.837A2.838,2.838,0,0,0,49.152,196.5Z" transform="translate(50.19 175.893)" fill="#fff"/>
      <path id="Path_217" data-name="Path 217" d="M55.152,196.5a2.837,2.837,0,1,0-2.837-2.837A2.838,2.838,0,0,0,55.152,196.5Z" transform="translate(63.491 175.893)" fill="#fff"/>
      <path id="Path_218" data-name="Path 218" d="M61.152,196.5a2.837,2.837,0,1,0-2.837-2.837A2.838,2.838,0,0,0,61.152,196.5Z" transform="translate(76.792 175.893)" fill="#fff"/>
      <path id="Path_219" data-name="Path 219" d="M67.152,196.5a2.837,2.837,0,1,0-2.837-2.837A2.838,2.838,0,0,0,67.152,196.5Z" transform="translate(90.093 175.893)" fill="#fff"/>
      <path id="Path_220" data-name="Path 220" d="M73.152,196.5a2.837,2.837,0,1,0-2.837-2.837A2.838,2.838,0,0,0,73.152,196.5Z" transform="translate(103.394 175.893)" fill="#fff"/>
      <path id="Path_221" data-name="Path 221" d="M19.152,202.5a2.837,2.837,0,1,0-2.837-2.837A2.838,2.838,0,0,0,19.152,202.5Z" transform="translate(-16.315 189.194)" fill="#fff"/>
      <path id="Path_222" data-name="Path 222" d="M25.152,202.5a2.837,2.837,0,1,0-2.837-2.837A2.838,2.838,0,0,0,25.152,202.5Z" transform="translate(-3.014 189.194)" fill="#fff"/>
      <path id="Path_223" data-name="Path 223" d="M31.152,202.5a2.837,2.837,0,1,0-2.837-2.837A2.838,2.838,0,0,0,31.152,202.5Z" transform="translate(10.287 189.194)" fill="#fff"/>
      <path id="Path_224" data-name="Path 224" d="M37.152,202.5a2.837,2.837,0,1,0-2.837-2.837A2.838,2.838,0,0,0,37.152,202.5Z" transform="translate(23.588 189.194)" fill="#fff"/>
      <path id="Path_225" data-name="Path 225" d="M43.152,202.5a2.837,2.837,0,1,0-2.837-2.837A2.838,2.838,0,0,0,43.152,202.5Z" transform="translate(36.889 189.194)" fill="#fff"/>
      <path id="Path_226" data-name="Path 226" d="M49.152,202.5a2.837,2.837,0,1,0-2.837-2.837A2.838,2.838,0,0,0,49.152,202.5Z" transform="translate(50.19 189.194)" fill="#fff"/>
      <path id="Path_227" data-name="Path 227" d="M55.152,202.5a2.837,2.837,0,1,0-2.837-2.837A2.838,2.838,0,0,0,55.152,202.5Z" transform="translate(63.491 189.194)" fill="#fff"/>
      <path id="Path_228" data-name="Path 228" d="M61.152,202.5a2.837,2.837,0,1,0-2.837-2.837A2.838,2.838,0,0,0,61.152,202.5Z" transform="translate(76.792 189.194)" fill="#fff"/>
      <path id="Path_229" data-name="Path 229" d="M67.152,202.5a2.837,2.837,0,1,0-2.837-2.837A2.838,2.838,0,0,0,67.152,202.5Z" transform="translate(90.093 189.194)" fill="#fff"/>
      <path id="Path_230" data-name="Path 230" d="M73.152,202.5a2.837,2.837,0,1,0-2.837-2.837A2.838,2.838,0,0,0,73.152,202.5Z" transform="translate(103.394 189.194)" fill="#fff"/>
      <path id="Path_231" data-name="Path 231" d="M19.152,208.5a2.837,2.837,0,1,0-2.837-2.837A2.838,2.838,0,0,0,19.152,208.5Z" transform="translate(-16.315 202.495)" fill="#fff"/>
      <path id="Path_232" data-name="Path 232" d="M25.152,208.5a2.837,2.837,0,1,0-2.837-2.837A2.838,2.838,0,0,0,25.152,208.5Z" transform="translate(-3.014 202.495)" fill="#fff"/>
      <path id="Path_233" data-name="Path 233" d="M31.152,208.5a2.837,2.837,0,1,0-2.837-2.837A2.838,2.838,0,0,0,31.152,208.5Z" transform="translate(10.287 202.495)" fill="#fff"/>
      <path id="Path_234" data-name="Path 234" d="M37.152,208.5a2.837,2.837,0,1,0-2.837-2.837A2.838,2.838,0,0,0,37.152,208.5Z" transform="translate(23.588 202.495)" fill="#fff"/>
      <path id="Path_235" data-name="Path 235" d="M43.152,208.5a2.837,2.837,0,1,0-2.837-2.837A2.838,2.838,0,0,0,43.152,208.5Z" transform="translate(36.889 202.495)" fill="#fff"/>
      <path id="Path_236" data-name="Path 236" d="M49.152,208.5a2.837,2.837,0,1,0-2.837-2.837A2.838,2.838,0,0,0,49.152,208.5Z" transform="translate(50.19 202.495)" fill="#fff"/>
      <path id="Path_237" data-name="Path 237" d="M55.152,208.5a2.837,2.837,0,1,0-2.837-2.837A2.838,2.838,0,0,0,55.152,208.5Z" transform="translate(63.491 202.495)" fill="#fff"/>
      <path id="Path_238" data-name="Path 238" d="M61.152,208.5a2.837,2.837,0,1,0-2.837-2.837A2.838,2.838,0,0,0,61.152,208.5Z" transform="translate(76.792 202.495)" fill="#fff"/>
      <path id="Path_239" data-name="Path 239" d="M67.152,208.5a2.837,2.837,0,1,0-2.837-2.837A2.838,2.838,0,0,0,67.152,208.5Z" transform="translate(90.093 202.495)" fill="#fff"/>
      <path id="Path_240" data-name="Path 240" d="M73.152,208.5a2.837,2.837,0,1,0-2.837-2.837A2.838,2.838,0,0,0,73.152,208.5Z" transform="translate(103.394 202.495)" fill="#fff"/>
      <path id="Path_241" data-name="Path 241" d="M19.152,214.5a2.837,2.837,0,1,0-2.837-2.837A2.838,2.838,0,0,0,19.152,214.5Z" transform="translate(-16.315 215.796)" fill="#fff"/>
      <path id="Path_242" data-name="Path 242" d="M25.152,214.5a2.837,2.837,0,1,0-2.837-2.837A2.838,2.838,0,0,0,25.152,214.5Z" transform="translate(-3.014 215.796)" fill="#fff"/>
      <path id="Path_243" data-name="Path 243" d="M31.152,214.5a2.837,2.837,0,1,0-2.837-2.837A2.838,2.838,0,0,0,31.152,214.5Z" transform="translate(10.287 215.796)" fill="#fff"/>
      <path id="Path_244" data-name="Path 244" d="M37.152,214.5a2.837,2.837,0,1,0-2.837-2.837A2.838,2.838,0,0,0,37.152,214.5Z" transform="translate(23.588 215.796)" fill="#fff"/>
      <path id="Path_245" data-name="Path 245" d="M43.152,214.5a2.837,2.837,0,1,0-2.837-2.837A2.838,2.838,0,0,0,43.152,214.5Z" transform="translate(36.889 215.796)" fill="#fff"/>
      <path id="Path_246" data-name="Path 246" d="M49.152,214.5a2.837,2.837,0,1,0-2.837-2.837A2.838,2.838,0,0,0,49.152,214.5Z" transform="translate(50.19 215.796)" fill="#fff"/>
      <path id="Path_247" data-name="Path 247" d="M55.152,214.5a2.837,2.837,0,1,0-2.837-2.837A2.838,2.838,0,0,0,55.152,214.5Z" transform="translate(63.491 215.796)" fill="#fff"/>
      <path id="Path_248" data-name="Path 248" d="M61.152,214.5a2.837,2.837,0,1,0-2.837-2.837A2.838,2.838,0,0,0,61.152,214.5Z" transform="translate(76.792 215.796)" fill="#fff"/>
      <path id="Path_249" data-name="Path 249" d="M67.152,214.5a2.837,2.837,0,1,0-2.837-2.837A2.838,2.838,0,0,0,67.152,214.5Z" transform="translate(90.093 215.796)" fill="#fff"/>
      <path id="Path_250" data-name="Path 250" d="M73.152,214.5a2.837,2.837,0,1,0-2.837-2.837A2.838,2.838,0,0,0,73.152,214.5Z" transform="translate(103.394 215.796)" fill="#fff"/>
      <path id="Path_251" data-name="Path 251" d="M19.152,220.5a2.837,2.837,0,1,0-2.837-2.837A2.838,2.838,0,0,0,19.152,220.5Z" transform="translate(-16.315 229.097)" fill="#fff"/>
      <path id="Path_252" data-name="Path 252" d="M25.152,220.5a2.837,2.837,0,1,0-2.837-2.837A2.838,2.838,0,0,0,25.152,220.5Z" transform="translate(-3.014 229.097)" fill="#fff"/>
      <path id="Path_253" data-name="Path 253" d="M31.152,220.5a2.837,2.837,0,1,0-2.837-2.837A2.838,2.838,0,0,0,31.152,220.5Z" transform="translate(10.287 229.097)" fill="#fff"/>
      <path id="Path_254" data-name="Path 254" d="M37.152,220.5a2.837,2.837,0,1,0-2.837-2.837A2.838,2.838,0,0,0,37.152,220.5Z" transform="translate(23.588 229.097)" fill="#fff"/>
      <path id="Path_255" data-name="Path 255" d="M43.152,220.5a2.837,2.837,0,1,0-2.837-2.837A2.838,2.838,0,0,0,43.152,220.5Z" transform="translate(36.889 229.097)" fill="#fff"/>
      <path id="Path_256" data-name="Path 256" d="M49.152,220.5a2.837,2.837,0,1,0-2.837-2.837A2.838,2.838,0,0,0,49.152,220.5Z" transform="translate(50.19 229.097)" fill="#fff"/>
      <path id="Path_257" data-name="Path 257" d="M55.152,220.5a2.837,2.837,0,1,0-2.837-2.837A2.838,2.838,0,0,0,55.152,220.5Z" transform="translate(63.491 229.097)" fill="#fff"/>
      <path id="Path_258" data-name="Path 258" d="M61.152,220.5a2.837,2.837,0,1,0-2.837-2.837A2.838,2.838,0,0,0,61.152,220.5Z" transform="translate(76.792 229.097)" fill="#fff"/>
      <path id="Path_259" data-name="Path 259" d="M67.152,220.5a2.837,2.837,0,1,0-2.837-2.837A2.838,2.838,0,0,0,67.152,220.5Z" transform="translate(90.093 229.097)" fill="#fff"/>
      <path id="Path_260" data-name="Path 260" d="M73.152,220.5a2.837,2.837,0,1,0-2.837-2.837A2.838,2.838,0,0,0,73.152,220.5Z" transform="translate(103.394 229.097)" fill="#fff"/>
      <path id="Path_261" data-name="Path 261" d="M19.152,226.5a2.837,2.837,0,1,0-2.837-2.837A2.838,2.838,0,0,0,19.152,226.5Z" transform="translate(-16.315 242.398)" fill="#fff"/>
      <path id="Path_262" data-name="Path 262" d="M25.152,226.5a2.837,2.837,0,1,0-2.837-2.837A2.838,2.838,0,0,0,25.152,226.5Z" transform="translate(-3.014 242.398)" fill="#fff"/>
      <path id="Path_263" data-name="Path 263" d="M31.152,226.5a2.837,2.837,0,1,0-2.837-2.837A2.838,2.838,0,0,0,31.152,226.5Z" transform="translate(10.287 242.398)" fill="#fff"/>
      <path id="Path_264" data-name="Path 264" d="M37.152,226.5a2.837,2.837,0,1,0-2.837-2.837A2.838,2.838,0,0,0,37.152,226.5Z" transform="translate(23.588 242.398)" fill="#fff"/>
      <path id="Path_265" data-name="Path 265" d="M43.152,226.5a2.837,2.837,0,1,0-2.837-2.837A2.838,2.838,0,0,0,43.152,226.5Z" transform="translate(36.889 242.398)" fill="#fff"/>
      <path id="Path_266" data-name="Path 266" d="M49.152,226.5a2.837,2.837,0,1,0-2.837-2.837A2.838,2.838,0,0,0,49.152,226.5Z" transform="translate(50.19 242.398)" fill="#fff"/>
      <path id="Path_267" data-name="Path 267" d="M55.152,226.5a2.837,2.837,0,1,0-2.837-2.837A2.838,2.838,0,0,0,55.152,226.5Z" transform="translate(63.491 242.398)" fill="#fff"/>
      <path id="Path_268" data-name="Path 268" d="M61.152,226.5a2.837,2.837,0,1,0-2.837-2.837A2.838,2.838,0,0,0,61.152,226.5Z" transform="translate(76.792 242.398)" fill="#fff"/>
      <path id="Path_269" data-name="Path 269" d="M67.152,226.5a2.837,2.837,0,1,0-2.837-2.837A2.838,2.838,0,0,0,67.152,226.5Z" transform="translate(90.093 242.398)" fill="#fff"/>
      <path id="Path_270" data-name="Path 270" d="M73.152,226.5a2.837,2.837,0,1,0-2.837-2.837A2.838,2.838,0,0,0,73.152,226.5Z" transform="translate(103.394 242.398)" fill="#fff"/>
      <path id="Path_271" data-name="Path 271" d="M19.152,232.5a2.837,2.837,0,1,0-2.837-2.837A2.838,2.838,0,0,0,19.152,232.5Z" transform="translate(-16.315 255.699)" fill="#fff"/>
      <path id="Path_272" data-name="Path 272" d="M25.152,232.5a2.837,2.837,0,1,0-2.837-2.837A2.838,2.838,0,0,0,25.152,232.5Z" transform="translate(-3.014 255.699)" fill="#fff"/>
      <path id="Path_273" data-name="Path 273" d="M31.152,232.5a2.837,2.837,0,1,0-2.837-2.837A2.838,2.838,0,0,0,31.152,232.5Z" transform="translate(10.287 255.699)" fill="#fff"/>
      <path id="Path_274" data-name="Path 274" d="M37.152,232.5a2.837,2.837,0,1,0-2.837-2.837A2.838,2.838,0,0,0,37.152,232.5Z" transform="translate(23.588 255.699)" fill="#fff"/>
      <path id="Path_275" data-name="Path 275" d="M43.152,232.5a2.837,2.837,0,1,0-2.837-2.837A2.838,2.838,0,0,0,43.152,232.5Z" transform="translate(36.889 255.699)" fill="#fff"/>
      <path id="Path_276" data-name="Path 276" d="M49.152,232.5a2.837,2.837,0,1,0-2.837-2.837A2.838,2.838,0,0,0,49.152,232.5Z" transform="translate(50.19 255.699)" fill="#fff"/>
      <path id="Path_277" data-name="Path 277" d="M55.152,232.5a2.837,2.837,0,1,0-2.837-2.837A2.838,2.838,0,0,0,55.152,232.5Z" transform="translate(63.491 255.699)" fill="#fff"/>
      <path id="Path_278" data-name="Path 278" d="M61.152,232.5a2.837,2.837,0,1,0-2.837-2.837A2.838,2.838,0,0,0,61.152,232.5Z" transform="translate(76.792 255.699)" fill="#fff"/>
      <path id="Path_279" data-name="Path 279" d="M67.152,232.5a2.837,2.837,0,1,0-2.837-2.837A2.838,2.838,0,0,0,67.152,232.5Z" transform="translate(90.093 255.699)" fill="#fff"/>
      <path id="Path_280" data-name="Path 280" d="M73.152,232.5a2.837,2.837,0,1,0-2.837-2.837A2.838,2.838,0,0,0,73.152,232.5Z" transform="translate(103.394 255.699)" fill="#fff"/>
      <path id="Path_281" data-name="Path 281" d="M19.152,238.5a2.837,2.837,0,1,0-2.837-2.837A2.838,2.838,0,0,0,19.152,238.5Z" transform="translate(-16.315 269)" fill="#fff"/>
      <path id="Path_282" data-name="Path 282" d="M25.152,238.5a2.837,2.837,0,1,0-2.837-2.837A2.838,2.838,0,0,0,25.152,238.5Z" transform="translate(-3.014 269)" fill="#fff"/>
      <path id="Path_283" data-name="Path 283" d="M31.152,238.5a2.837,2.837,0,1,0-2.837-2.837A2.838,2.838,0,0,0,31.152,238.5Z" transform="translate(10.287 269)" fill="#fff"/>
      <path id="Path_284" data-name="Path 284" d="M37.152,238.5a2.837,2.837,0,1,0-2.837-2.837A2.838,2.838,0,0,0,37.152,238.5Z" transform="translate(23.588 269)" fill="#fff"/>
      <path id="Path_285" data-name="Path 285" d="M43.152,238.5a2.837,2.837,0,1,0-2.837-2.837A2.838,2.838,0,0,0,43.152,238.5Z" transform="translate(36.889 269)" fill="#fff"/>
      <path id="Path_286" data-name="Path 286" d="M49.152,238.5a2.837,2.837,0,1,0-2.837-2.837A2.838,2.838,0,0,0,49.152,238.5Z" transform="translate(50.19 269)" fill="#fff"/>
      <path id="Path_287" data-name="Path 287" d="M55.152,238.5a2.837,2.837,0,1,0-2.837-2.837A2.838,2.838,0,0,0,55.152,238.5Z" transform="translate(63.491 269)" fill="#fff"/>
      <path id="Path_288" data-name="Path 288" d="M61.152,238.5a2.837,2.837,0,1,0-2.837-2.837A2.838,2.838,0,0,0,61.152,238.5Z" transform="translate(76.792 269)" fill="#fff"/>
      <path id="Path_289" data-name="Path 289" d="M67.152,238.5a2.837,2.837,0,1,0-2.837-2.837A2.838,2.838,0,0,0,67.152,238.5Z" transform="translate(90.093 269)" fill="#fff"/>
      <path id="Path_290" data-name="Path 290" d="M73.152,238.5a2.837,2.837,0,1,0-2.837-2.837A2.838,2.838,0,0,0,73.152,238.5Z" transform="translate(103.394 269)" fill="#fff"/>
      <path id="Path_291" data-name="Path 291" d="M19.152,244.5a2.837,2.837,0,1,0-2.837-2.837A2.838,2.838,0,0,0,19.152,244.5Z" transform="translate(-16.315 282.301)" fill="#fff"/>
      <path id="Path_292" data-name="Path 292" d="M25.152,244.5a2.837,2.837,0,1,0-2.837-2.837A2.838,2.838,0,0,0,25.152,244.5Z" transform="translate(-3.014 282.301)" fill="#fff"/>
      <path id="Path_293" data-name="Path 293" d="M31.152,244.5a2.837,2.837,0,1,0-2.837-2.837A2.838,2.838,0,0,0,31.152,244.5Z" transform="translate(10.287 282.301)" fill="#fff"/>
      <path id="Path_294" data-name="Path 294" d="M37.152,244.5a2.837,2.837,0,1,0-2.837-2.837A2.838,2.838,0,0,0,37.152,244.5Z" transform="translate(23.588 282.301)" fill="#fff"/>
      <path id="Path_295" data-name="Path 295" d="M43.152,244.5a2.837,2.837,0,1,0-2.837-2.837A2.838,2.838,0,0,0,43.152,244.5Z" transform="translate(36.889 282.301)" fill="#fff"/>
      <path id="Path_296" data-name="Path 296" d="M49.152,244.5a2.837,2.837,0,1,0-2.837-2.837A2.838,2.838,0,0,0,49.152,244.5Z" transform="translate(50.19 282.301)" fill="#fff"/>
      <path id="Path_297" data-name="Path 297" d="M55.152,244.5a2.837,2.837,0,1,0-2.837-2.837A2.838,2.838,0,0,0,55.152,244.5Z" transform="translate(63.491 282.301)" fill="#fff"/>
      <path id="Path_298" data-name="Path 298" d="M61.152,244.5a2.837,2.837,0,1,0-2.837-2.837A2.838,2.838,0,0,0,61.152,244.5Z" transform="translate(76.792 282.301)" fill="#fff"/>
      <path id="Path_299" data-name="Path 299" d="M67.152,244.5a2.837,2.837,0,1,0-2.837-2.837A2.838,2.838,0,0,0,67.152,244.5Z" transform="translate(90.093 282.301)" fill="#fff"/>
      <path id="Path_300" data-name="Path 300" d="M73.152,244.5a2.837,2.837,0,1,0-2.837-2.837A2.838,2.838,0,0,0,73.152,244.5Z" transform="translate(103.394 282.301)" fill="#fff"/>
      <path id="Path_301" data-name="Path 301" d="M19.152,250.5a2.837,2.837,0,1,0-2.837-2.837A2.838,2.838,0,0,0,19.152,250.5Z" transform="translate(-16.315 295.602)" fill="#fff"/>
      <path id="Path_302" data-name="Path 302" d="M25.152,250.5a2.837,2.837,0,1,0-2.837-2.837A2.838,2.838,0,0,0,25.152,250.5Z" transform="translate(-3.014 295.602)" fill="#fff"/>
      <path id="Path_303" data-name="Path 303" d="M31.152,250.5a2.837,2.837,0,1,0-2.837-2.837A2.838,2.838,0,0,0,31.152,250.5Z" transform="translate(10.287 295.602)" fill="#fff"/>
      <path id="Path_304" data-name="Path 304" d="M37.152,250.5a2.837,2.837,0,1,0-2.837-2.837A2.838,2.838,0,0,0,37.152,250.5Z" transform="translate(23.588 295.602)" fill="#fff"/>
      <path id="Path_305" data-name="Path 305" d="M43.152,250.5a2.837,2.837,0,1,0-2.837-2.837A2.838,2.838,0,0,0,43.152,250.5Z" transform="translate(36.889 295.602)" fill="#fff"/>
      <path id="Path_306" data-name="Path 306" d="M49.152,250.5a2.837,2.837,0,1,0-2.837-2.837A2.838,2.838,0,0,0,49.152,250.5Z" transform="translate(50.19 295.602)" fill="#fff"/>
      <path id="Path_307" data-name="Path 307" d="M55.152,250.5a2.837,2.837,0,1,0-2.837-2.837A2.838,2.838,0,0,0,55.152,250.5Z" transform="translate(63.491 295.602)" fill="#fff"/>
      <path id="Path_308" data-name="Path 308" d="M61.152,250.5a2.837,2.837,0,1,0-2.837-2.837A2.838,2.838,0,0,0,61.152,250.5Z" transform="translate(76.792 295.602)" fill="#fff"/>
      <path id="Path_309" data-name="Path 309" d="M67.152,250.5a2.837,2.837,0,1,0-2.837-2.837A2.838,2.838,0,0,0,67.152,250.5Z" transform="translate(90.093 295.602)" fill="#fff"/>
      <path id="Path_310" data-name="Path 310" d="M73.152,250.5a2.837,2.837,0,1,0-2.837-2.837A2.838,2.838,0,0,0,73.152,250.5Z" transform="translate(103.394 295.602)" fill="#fff"/>
    </g>
    <g id="Group_25" data-name="Group 25" transform="translate(1802.226 786.236)" style="mix-blend-mode: overlay;isolation: isolate">
      <path id="Path_311" data-name="Path 311" d="M434.236,166.218a2.837,2.837,0,1,0-2.834-2.837A2.838,2.838,0,0,0,434.236,166.218Z" transform="translate(-431.402 -160.543)" fill="#fff"/>
      <path id="Path_312" data-name="Path 312" d="M440.236,166.218a2.837,2.837,0,1,0-2.834-2.837A2.838,2.838,0,0,0,440.236,166.218Z" transform="translate(-418.101 -160.543)" fill="#fff"/>
      <path id="Path_313" data-name="Path 313" d="M446.236,166.218a2.837,2.837,0,1,0-2.834-2.837A2.838,2.838,0,0,0,446.236,166.218Z" transform="translate(-404.8 -160.543)" fill="#fff"/>
      <path id="Path_314" data-name="Path 314" d="M452.236,166.218a2.837,2.837,0,1,0-2.834-2.837A2.838,2.838,0,0,0,452.236,166.218Z" transform="translate(-391.499 -160.543)" fill="#fff"/>
      <path id="Path_315" data-name="Path 315" d="M458.236,166.218a2.837,2.837,0,1,0-2.834-2.837A2.838,2.838,0,0,0,458.236,166.218Z" transform="translate(-378.198 -160.543)" fill="#fff"/>
      <path id="Path_316" data-name="Path 316" d="M464.236,166.218a2.837,2.837,0,1,0-2.834-2.837A2.838,2.838,0,0,0,464.236,166.218Z" transform="translate(-364.897 -160.543)" fill="#fff"/>
      <path id="Path_317" data-name="Path 317" d="M434.236,172.218a2.837,2.837,0,1,0-2.834-2.837A2.838,2.838,0,0,0,434.236,172.218Z" transform="translate(-431.402 -147.242)" fill="#fff"/>
      <path id="Path_318" data-name="Path 318" d="M440.236,172.218a2.837,2.837,0,1,0-2.834-2.837A2.838,2.838,0,0,0,440.236,172.218Z" transform="translate(-418.101 -147.242)" fill="#fff"/>
      <path id="Path_319" data-name="Path 319" d="M446.236,172.218a2.837,2.837,0,1,0-2.834-2.837A2.838,2.838,0,0,0,446.236,172.218Z" transform="translate(-404.8 -147.242)" fill="#fff"/>
      <path id="Path_320" data-name="Path 320" d="M452.236,172.218a2.837,2.837,0,1,0-2.834-2.837A2.838,2.838,0,0,0,452.236,172.218Z" transform="translate(-391.499 -147.242)" fill="#fff"/>
      <path id="Path_321" data-name="Path 321" d="M458.236,172.218a2.837,2.837,0,1,0-2.834-2.837A2.838,2.838,0,0,0,458.236,172.218Z" transform="translate(-378.198 -147.242)" fill="#fff"/>
      <path id="Path_322" data-name="Path 322" d="M464.236,172.218a2.837,2.837,0,1,0-2.834-2.837A2.838,2.838,0,0,0,464.236,172.218Z" transform="translate(-364.897 -147.242)" fill="#fff"/>
      <path id="Path_323" data-name="Path 323" d="M434.236,178.218a2.837,2.837,0,1,0-2.834-2.837A2.838,2.838,0,0,0,434.236,178.218Z" transform="translate(-431.402 -133.941)" fill="#fff"/>
      <path id="Path_324" data-name="Path 324" d="M440.236,178.218a2.837,2.837,0,1,0-2.834-2.837A2.838,2.838,0,0,0,440.236,178.218Z" transform="translate(-418.101 -133.941)" fill="#fff"/>
      <path id="Path_325" data-name="Path 325" d="M446.236,178.218a2.837,2.837,0,1,0-2.834-2.837A2.838,2.838,0,0,0,446.236,178.218Z" transform="translate(-404.8 -133.941)" fill="#fff"/>
      <path id="Path_326" data-name="Path 326" d="M452.236,178.218a2.837,2.837,0,1,0-2.834-2.837A2.838,2.838,0,0,0,452.236,178.218Z" transform="translate(-391.499 -133.941)" fill="#fff"/>
      <path id="Path_327" data-name="Path 327" d="M458.236,178.218a2.837,2.837,0,1,0-2.834-2.837A2.838,2.838,0,0,0,458.236,178.218Z" transform="translate(-378.198 -133.941)" fill="#fff"/>
      <path id="Path_328" data-name="Path 328" d="M464.236,178.218a2.837,2.837,0,1,0-2.834-2.837A2.838,2.838,0,0,0,464.236,178.218Z" transform="translate(-364.897 -133.941)" fill="#fff"/>
      <path id="Path_329" data-name="Path 329" d="M434.236,184.218a2.837,2.837,0,1,0-2.834-2.837A2.838,2.838,0,0,0,434.236,184.218Z" transform="translate(-431.402 -120.64)" fill="#fff"/>
      <path id="Path_330" data-name="Path 330" d="M440.236,184.218a2.837,2.837,0,1,0-2.834-2.837A2.838,2.838,0,0,0,440.236,184.218Z" transform="translate(-418.101 -120.64)" fill="#fff"/>
      <path id="Path_331" data-name="Path 331" d="M446.236,184.218a2.837,2.837,0,1,0-2.834-2.837A2.838,2.838,0,0,0,446.236,184.218Z" transform="translate(-404.8 -120.64)" fill="#fff"/>
      <path id="Path_332" data-name="Path 332" d="M452.236,184.218a2.837,2.837,0,1,0-2.834-2.837A2.838,2.838,0,0,0,452.236,184.218Z" transform="translate(-391.499 -120.64)" fill="#fff"/>
      <path id="Path_333" data-name="Path 333" d="M458.236,184.218a2.837,2.837,0,1,0-2.834-2.837A2.838,2.838,0,0,0,458.236,184.218Z" transform="translate(-378.198 -120.64)" fill="#fff"/>
      <path id="Path_334" data-name="Path 334" d="M464.236,184.218a2.837,2.837,0,1,0-2.834-2.837A2.838,2.838,0,0,0,464.236,184.218Z" transform="translate(-364.897 -120.64)" fill="#fff"/>
      <path id="Path_335" data-name="Path 335" d="M434.236,190.218a2.837,2.837,0,1,0-2.834-2.837A2.838,2.838,0,0,0,434.236,190.218Z" transform="translate(-431.402 -107.339)" fill="#fff"/>
      <path id="Path_336" data-name="Path 336" d="M440.236,190.218a2.837,2.837,0,1,0-2.834-2.837A2.838,2.838,0,0,0,440.236,190.218Z" transform="translate(-418.101 -107.339)" fill="#fff"/>
      <path id="Path_337" data-name="Path 337" d="M446.236,190.218a2.837,2.837,0,1,0-2.834-2.837A2.838,2.838,0,0,0,446.236,190.218Z" transform="translate(-404.8 -107.339)" fill="#fff"/>
      <path id="Path_338" data-name="Path 338" d="M452.236,190.218a2.837,2.837,0,1,0-2.834-2.837A2.838,2.838,0,0,0,452.236,190.218Z" transform="translate(-391.499 -107.339)" fill="#fff"/>
      <path id="Path_339" data-name="Path 339" d="M458.236,190.218a2.837,2.837,0,1,0-2.834-2.837A2.838,2.838,0,0,0,458.236,190.218Z" transform="translate(-378.198 -107.339)" fill="#fff"/>
      <path id="Path_340" data-name="Path 340" d="M464.236,190.218a2.837,2.837,0,1,0-2.834-2.837A2.838,2.838,0,0,0,464.236,190.218Z" transform="translate(-364.897 -107.339)" fill="#fff"/>
      <path id="Path_341" data-name="Path 341" d="M434.236,196.218a2.837,2.837,0,1,0-2.834-2.837A2.838,2.838,0,0,0,434.236,196.218Z" transform="translate(-431.402 -94.038)" fill="#fff"/>
      <path id="Path_342" data-name="Path 342" d="M440.236,196.218a2.837,2.837,0,1,0-2.834-2.837A2.838,2.838,0,0,0,440.236,196.218Z" transform="translate(-418.101 -94.038)" fill="#fff"/>
      <path id="Path_343" data-name="Path 343" d="M446.236,196.218a2.837,2.837,0,1,0-2.834-2.837A2.838,2.838,0,0,0,446.236,196.218Z" transform="translate(-404.8 -94.038)" fill="#fff"/>
      <path id="Path_344" data-name="Path 344" d="M452.236,196.218a2.837,2.837,0,1,0-2.834-2.837A2.838,2.838,0,0,0,452.236,196.218Z" transform="translate(-391.499 -94.038)" fill="#fff"/>
      <path id="Path_345" data-name="Path 345" d="M458.236,196.218a2.837,2.837,0,1,0-2.834-2.837A2.838,2.838,0,0,0,458.236,196.218Z" transform="translate(-378.198 -94.038)" fill="#fff"/>
      <path id="Path_346" data-name="Path 346" d="M464.236,196.218a2.837,2.837,0,1,0-2.834-2.837A2.838,2.838,0,0,0,464.236,196.218Z" transform="translate(-364.897 -94.038)" fill="#fff"/>
      <path id="Path_347" data-name="Path 347" d="M434.236,202.218a2.837,2.837,0,1,0-2.834-2.837A2.838,2.838,0,0,0,434.236,202.218Z" transform="translate(-431.402 -80.737)" fill="#fff"/>
      <path id="Path_348" data-name="Path 348" d="M440.236,202.218a2.837,2.837,0,1,0-2.834-2.837A2.838,2.838,0,0,0,440.236,202.218Z" transform="translate(-418.101 -80.737)" fill="#fff"/>
      <path id="Path_349" data-name="Path 349" d="M446.236,202.218a2.837,2.837,0,1,0-2.834-2.837A2.838,2.838,0,0,0,446.236,202.218Z" transform="translate(-404.8 -80.737)" fill="#fff"/>
      <path id="Path_350" data-name="Path 350" d="M452.236,202.218a2.837,2.837,0,1,0-2.834-2.837A2.838,2.838,0,0,0,452.236,202.218Z" transform="translate(-391.499 -80.737)" fill="#fff"/>
      <path id="Path_351" data-name="Path 351" d="M458.236,202.218a2.837,2.837,0,1,0-2.834-2.837A2.838,2.838,0,0,0,458.236,202.218Z" transform="translate(-378.198 -80.737)" fill="#fff"/>
      <path id="Path_352" data-name="Path 352" d="M464.236,202.218a2.837,2.837,0,1,0-2.834-2.837A2.838,2.838,0,0,0,464.236,202.218Z" transform="translate(-364.897 -80.737)" fill="#fff"/>
      <path id="Path_353" data-name="Path 353" d="M434.236,208.218a2.837,2.837,0,1,0-2.834-2.837A2.838,2.838,0,0,0,434.236,208.218Z" transform="translate(-431.402 -67.436)" fill="#fff"/>
      <path id="Path_354" data-name="Path 354" d="M440.236,208.218a2.837,2.837,0,1,0-2.834-2.837A2.838,2.838,0,0,0,440.236,208.218Z" transform="translate(-418.101 -67.436)" fill="#fff"/>
      <path id="Path_355" data-name="Path 355" d="M446.236,208.218a2.837,2.837,0,1,0-2.834-2.837A2.838,2.838,0,0,0,446.236,208.218Z" transform="translate(-404.8 -67.436)" fill="#fff"/>
      <path id="Path_356" data-name="Path 356" d="M452.236,208.218a2.837,2.837,0,1,0-2.834-2.837A2.838,2.838,0,0,0,452.236,208.218Z" transform="translate(-391.499 -67.436)" fill="#fff"/>
      <path id="Path_357" data-name="Path 357" d="M458.236,208.218a2.837,2.837,0,1,0-2.834-2.837A2.838,2.838,0,0,0,458.236,208.218Z" transform="translate(-378.198 -67.436)" fill="#fff"/>
      <path id="Path_358" data-name="Path 358" d="M464.236,208.218a2.837,2.837,0,1,0-2.834-2.837A2.838,2.838,0,0,0,464.236,208.218Z" transform="translate(-364.897 -67.436)" fill="#fff"/>
      <path id="Path_359" data-name="Path 359" d="M434.236,214.218a2.837,2.837,0,1,0-2.834-2.837A2.838,2.838,0,0,0,434.236,214.218Z" transform="translate(-431.402 -54.135)" fill="#fff"/>
      <path id="Path_360" data-name="Path 360" d="M440.236,214.218a2.837,2.837,0,1,0-2.834-2.837A2.838,2.838,0,0,0,440.236,214.218Z" transform="translate(-418.101 -54.135)" fill="#fff"/>
      <path id="Path_361" data-name="Path 361" d="M446.236,214.218a2.837,2.837,0,1,0-2.834-2.837A2.838,2.838,0,0,0,446.236,214.218Z" transform="translate(-404.8 -54.135)" fill="#fff"/>
      <path id="Path_362" data-name="Path 362" d="M452.236,214.218a2.837,2.837,0,1,0-2.834-2.837A2.838,2.838,0,0,0,452.236,214.218Z" transform="translate(-391.499 -54.135)" fill="#fff"/>
      <path id="Path_363" data-name="Path 363" d="M458.236,214.218a2.837,2.837,0,1,0-2.834-2.837A2.838,2.838,0,0,0,458.236,214.218Z" transform="translate(-378.198 -54.135)" fill="#fff"/>
      <path id="Path_364" data-name="Path 364" d="M464.236,214.218a2.837,2.837,0,1,0-2.834-2.837A2.838,2.838,0,0,0,464.236,214.218Z" transform="translate(-364.897 -54.135)" fill="#fff"/>
      <path id="Path_365" data-name="Path 365" d="M434.236,220.218a2.837,2.837,0,1,0-2.834-2.837A2.838,2.838,0,0,0,434.236,220.218Z" transform="translate(-431.402 -40.834)" fill="#fff"/>
      <path id="Path_366" data-name="Path 366" d="M440.236,220.218a2.837,2.837,0,1,0-2.834-2.837A2.838,2.838,0,0,0,440.236,220.218Z" transform="translate(-418.101 -40.834)" fill="#fff"/>
      <path id="Path_367" data-name="Path 367" d="M446.236,220.218a2.837,2.837,0,1,0-2.834-2.837A2.838,2.838,0,0,0,446.236,220.218Z" transform="translate(-404.8 -40.834)" fill="#fff"/>
      <path id="Path_368" data-name="Path 368" d="M452.236,220.218a2.837,2.837,0,1,0-2.834-2.837A2.838,2.838,0,0,0,452.236,220.218Z" transform="translate(-391.499 -40.834)" fill="#fff"/>
      <path id="Path_369" data-name="Path 369" d="M458.236,220.218a2.837,2.837,0,1,0-2.834-2.837A2.838,2.838,0,0,0,458.236,220.218Z" transform="translate(-378.198 -40.834)" fill="#fff"/>
      <path id="Path_370" data-name="Path 370" d="M464.236,220.218a2.837,2.837,0,1,0-2.834-2.837A2.838,2.838,0,0,0,464.236,220.218Z" transform="translate(-364.897 -40.834)" fill="#fff"/>
      <path id="Path_371" data-name="Path 371" d="M434.236,226.218a2.837,2.837,0,1,0-2.834-2.837A2.838,2.838,0,0,0,434.236,226.218Z" transform="translate(-431.402 -27.533)" fill="#fff"/>
      <path id="Path_372" data-name="Path 372" d="M440.236,226.218a2.837,2.837,0,1,0-2.834-2.837A2.838,2.838,0,0,0,440.236,226.218Z" transform="translate(-418.101 -27.533)" fill="#fff"/>
      <path id="Path_373" data-name="Path 373" d="M446.236,226.218a2.837,2.837,0,1,0-2.834-2.837A2.838,2.838,0,0,0,446.236,226.218Z" transform="translate(-404.8 -27.533)" fill="#fff"/>
      <path id="Path_374" data-name="Path 374" d="M452.236,226.218a2.837,2.837,0,1,0-2.834-2.837A2.838,2.838,0,0,0,452.236,226.218Z" transform="translate(-391.499 -27.533)" fill="#fff"/>
      <path id="Path_375" data-name="Path 375" d="M458.236,226.218a2.837,2.837,0,1,0-2.834-2.837A2.838,2.838,0,0,0,458.236,226.218Z" transform="translate(-378.198 -27.533)" fill="#fff"/>
      <path id="Path_376" data-name="Path 376" d="M464.236,226.218a2.837,2.837,0,1,0-2.834-2.837A2.838,2.838,0,0,0,464.236,226.218Z" transform="translate(-364.897 -27.533)" fill="#fff"/>
      <path id="Path_377" data-name="Path 377" d="M434.236,232.218a2.837,2.837,0,1,0-2.834-2.837A2.838,2.838,0,0,0,434.236,232.218Z" transform="translate(-431.402 -14.232)" fill="#fff"/>
      <path id="Path_378" data-name="Path 378" d="M440.236,232.218a2.837,2.837,0,1,0-2.834-2.837A2.838,2.838,0,0,0,440.236,232.218Z" transform="translate(-418.101 -14.232)" fill="#fff"/>
      <path id="Path_379" data-name="Path 379" d="M446.236,232.218a2.837,2.837,0,1,0-2.834-2.837A2.838,2.838,0,0,0,446.236,232.218Z" transform="translate(-404.8 -14.232)" fill="#fff"/>
      <path id="Path_380" data-name="Path 380" d="M452.236,232.218a2.837,2.837,0,1,0-2.834-2.837A2.838,2.838,0,0,0,452.236,232.218Z" transform="translate(-391.499 -14.232)" fill="#fff"/>
      <path id="Path_381" data-name="Path 381" d="M458.236,232.218a2.837,2.837,0,1,0-2.834-2.837A2.838,2.838,0,0,0,458.236,232.218Z" transform="translate(-378.198 -14.232)" fill="#fff"/>
      <path id="Path_382" data-name="Path 382" d="M464.236,232.218a2.837,2.837,0,1,0-2.834-2.837A2.838,2.838,0,0,0,464.236,232.218Z" transform="translate(-364.897 -14.232)" fill="#fff"/>
      <path id="Path_383" data-name="Path 383" d="M434.236,238.218a2.837,2.837,0,1,0-2.834-2.837A2.838,2.838,0,0,0,434.236,238.218Z" transform="translate(-431.402 -0.931)" fill="#fff"/>
      <path id="Path_384" data-name="Path 384" d="M440.236,238.218a2.837,2.837,0,1,0-2.834-2.837A2.838,2.838,0,0,0,440.236,238.218Z" transform="translate(-418.101 -0.931)" fill="#fff"/>
      <path id="Path_385" data-name="Path 385" d="M446.236,238.218a2.837,2.837,0,1,0-2.834-2.837A2.838,2.838,0,0,0,446.236,238.218Z" transform="translate(-404.8 -0.931)" fill="#fff"/>
      <path id="Path_386" data-name="Path 386" d="M452.236,238.218a2.837,2.837,0,1,0-2.834-2.837A2.838,2.838,0,0,0,452.236,238.218Z" transform="translate(-391.499 -0.931)" fill="#fff"/>
      <path id="Path_387" data-name="Path 387" d="M458.236,238.218a2.837,2.837,0,1,0-2.834-2.837A2.838,2.838,0,0,0,458.236,238.218Z" transform="translate(-378.198 -0.931)" fill="#fff"/>
      <path id="Path_388" data-name="Path 388" d="M464.236,238.218a2.837,2.837,0,1,0-2.834-2.837A2.838,2.838,0,0,0,464.236,238.218Z" transform="translate(-364.897 -0.931)" fill="#fff"/>
      <path id="Path_389" data-name="Path 389" d="M434.236,244.218a2.837,2.837,0,1,0-2.834-2.837A2.838,2.838,0,0,0,434.236,244.218Z" transform="translate(-431.402 12.37)" fill="#fff"/>
      <path id="Path_390" data-name="Path 390" d="M440.236,244.218a2.837,2.837,0,1,0-2.834-2.837A2.838,2.838,0,0,0,440.236,244.218Z" transform="translate(-418.101 12.37)" fill="#fff"/>
      <path id="Path_391" data-name="Path 391" d="M446.236,244.218a2.837,2.837,0,1,0-2.834-2.837A2.838,2.838,0,0,0,446.236,244.218Z" transform="translate(-404.8 12.37)" fill="#fff"/>
      <path id="Path_392" data-name="Path 392" d="M452.236,244.218a2.837,2.837,0,1,0-2.834-2.837A2.838,2.838,0,0,0,452.236,244.218Z" transform="translate(-391.499 12.37)" fill="#fff"/>
      <path id="Path_393" data-name="Path 393" d="M458.236,244.218a2.837,2.837,0,1,0-2.834-2.837A2.838,2.838,0,0,0,458.236,244.218Z" transform="translate(-378.198 12.37)" fill="#fff"/>
      <path id="Path_394" data-name="Path 394" d="M464.236,244.218a2.837,2.837,0,1,0-2.834-2.837A2.838,2.838,0,0,0,464.236,244.218Z" transform="translate(-364.897 12.37)" fill="#fff"/>
      <path id="Path_395" data-name="Path 395" d="M434.236,250.218a2.837,2.837,0,1,0-2.834-2.837A2.838,2.838,0,0,0,434.236,250.218Z" transform="translate(-431.402 25.671)" fill="#fff"/>
      <path id="Path_396" data-name="Path 396" d="M440.236,250.218a2.837,2.837,0,1,0-2.834-2.837A2.838,2.838,0,0,0,440.236,250.218Z" transform="translate(-418.101 25.671)" fill="#fff"/>
      <path id="Path_397" data-name="Path 397" d="M446.236,250.218a2.837,2.837,0,1,0-2.834-2.837A2.838,2.838,0,0,0,446.236,250.218Z" transform="translate(-404.8 25.671)" fill="#fff"/>
      <path id="Path_398" data-name="Path 398" d="M452.236,250.218a2.837,2.837,0,1,0-2.834-2.837A2.838,2.838,0,0,0,452.236,250.218Z" transform="translate(-391.499 25.671)" fill="#fff"/>
      <path id="Path_399" data-name="Path 399" d="M458.236,250.218a2.837,2.837,0,1,0-2.834-2.837A2.838,2.838,0,0,0,458.236,250.218Z" transform="translate(-378.198 25.671)" fill="#fff"/>
      <path id="Path_400" data-name="Path 400" d="M464.236,250.218a2.837,2.837,0,1,0-2.834-2.837A2.838,2.838,0,0,0,464.236,250.218Z" transform="translate(-364.897 25.671)" fill="#fff"/>
    </g>
  </g>
</svg>
