<svg xmlns="http://www.w3.org/2000/svg" xmlns:xlink="http://www.w3.org/1999/xlink" width="2132.053" height="1586.694" viewBox="0 0 2132.053 1586.694"><defs><style>.a{clip-path:url(#a);}.b{mix-blend-mode:overlay;}.b,.e{isolation:isolate;}.c{fill:#fff;}.d{fill:#b3b3b3;}.e{mix-blend-mode:color-dodge;}.f{fill:url(#b);}.g{fill:url(#c);}.h{fill:url(#d);}.i{fill:url(#e);}</style><clipPath id="a"/><linearGradient id="b" x1="0.144" y1="0.5" x2="0.856" y2="0.5" gradientUnits="objectBoundingBox"><stop offset="0"/><stop offset="0.109" stop-color="#050505"/><stop offset="0.252" stop-color="#161616"/><stop offset="0.414" stop-color="#313131"/><stop offset="0.59" stop-color="#575757"/><stop offset="0.777" stop-color="#888"/><stop offset="0.972" stop-color="#c2c2c2"/><stop offset="1" stop-color="#ccc"/></linearGradient><linearGradient id="c" x1="0.143" y1="0.5" x2="0.857" y2="0.5" xlink:href="#b"/><linearGradient id="d" x1="0.145" y1="0.5" x2="0.855" y2="0.5" xlink:href="#b"/><linearGradient id="e" x1="0.136" y1="0.5" x2="0.864" y2="0.5" xlink:href="#b"/></defs><g transform="translate(41.317 127.997)"><g transform="translate(-41.317 -127.997)"><g class="a"><g class="b" transform="translate(77.232 196.946)"><path class="c" d="M49.627,578.3c-31.814,0-62.374-10.612-82.425-35.437l1.251-1.01c38.312,47.439,115.767,42.121,165.554,9.991,40.416-26.085,70.188-65.62,98.982-103.852,7.6-10.091,15.457-20.523,23.377-30.531,49.388-62.4,97.827-95.006,148.084-99.693,39.409-3.67,78.295,10.223,115.89,23.666,41.6,14.875,84.622,30.248,127.47,20.948,31.557-6.849,58.572-26.323,84.7-45.158,10.821-7.8,22.006-15.862,33.391-22.949,77.352-48.137,174.558-56.845,252.663-63.838,87.3-7.82,177.572-15.9,253.213-59.827,71.021-41.24,132.279-131.668,105.921-218.018l1.538-.47c12.1,39.66,6.849,82.885-15.206,125-20.269,38.708-52.743,72.4-91.442,94.877-75.95,44.1-166.4,52.2-253.879,60.036-77.934,6.981-174.931,15.666-251.959,63.6-11.336,7.058-22.5,15.106-33.3,22.888-26.259,18.931-53.412,38.509-85.3,45.428-43.279,9.393-86.536-6.057-128.355-21.009-37.428-13.379-76.142-27.224-115.195-23.576-49.8,4.642-97.872,37.055-146.974,99.091-7.907,9.988-15.759,20.417-23.351,30.5-28.881,38.345-58.739,78-99.4,104.235A161.233,161.233,0,0,1,49.627,578.3Z" transform="translate(32.798 47.876)"/></g><g class="b" transform="translate(633.531 765.816)"><path class="c" d="M169.157,856.364c-8.293-48.33-16.869-98.306-12.221-148.161,5.224-55.97,27.414-102.7,62.484-131.588C276.493,529.6,360.543,534.684,418.787,542.6c9.075,1.235,18.368,2.6,27.353,3.915C505.693,555.246,567.273,564.279,624,545.1c47.587-16.087,86.987-50.7,125.08-84.165,43.4-38.129,88.283-77.558,144.96-88.762,40.313-7.971,81.669-.463,121.673,6.794,21.5,3.9,43.73,7.936,65.614,9.554a307,307,0,0,0,220.318-72.166,307,307,0,0,0,105.776-206.289l1.6.135a308.609,308.609,0,0,1-106.336,207.38,308.6,308.6,0,0,1-221.479,72.546c-21.971-1.625-44.241-5.665-65.784-9.577-39.85-7.231-81.077-14.711-121.072-6.8-56.253,11.124-100.967,50.4-144.211,88.392-38.213,33.574-77.735,68.29-125.627,84.48-57.083,19.3-118.865,10.242-178.615,1.48-8.978-1.319-18.262-2.68-27.33-3.909-57.958-7.878-141.534-12.954-198.128,33.658-34.735,28.614-56.719,74.959-61.9,130.5-4.629,49.639,3.928,99.51,12.2,147.736Z" transform="translate(-155.626 -110.068)"/></g><g class="b"><path class="d" d="M276.812,508.264A317.946,317.946,0,0,1-41.317,190.135,317.946,317.946,0,0,1,276.812-128,317.951,317.951,0,0,1,594.944,190.135,317.951,317.951,0,0,1,276.812,508.264Zm0-634.652c-174.533,0-316.52,141.991-316.52,316.524s141.988,316.52,316.52,316.52,316.524-141.991,316.524-316.52S451.344-126.389,276.812-126.389Z" transform="translate(41.317 127.997)"/><g transform="translate(39.664 39.667)"><path class="d" d="M249.478,441.261C95.932,441.261-28.987,316.345-28.987,162.8S95.932-115.666,249.478-115.666,527.943,9.25,527.943,162.8,403.024,441.261,249.478,441.261Zm0-555.319c-152.661,0-276.857,124.2-276.857,276.857s124.2,276.854,276.857,276.854S526.335,315.457,526.335,162.8,402.136-114.058,249.478-114.058Z" transform="translate(28.987 115.666)"/></g><g transform="translate(79.33 79.33)"><path class="d" d="M222.142,374.264c-131.675,0-238.8-107.124-238.8-238.8s107.124-238.8,238.8-238.8,238.8,107.127,238.8,238.8S353.817,374.264,222.142,374.264Zm0-475.992c-130.787,0-237.19,106.4-237.19,237.193s106.4,237.19,237.19,237.19,237.193-106.4,237.193-237.19S352.929-101.728,222.142-101.728Z" transform="translate(16.656 103.336)"/></g><g transform="translate(118.997 118.997)"><path class="d" d="M194.807,307.262C85,307.262-4.325,217.93-4.325,108.13S85-91.005,194.807-91.005,393.938-1.674,393.938,108.13,304.61,307.262,194.807,307.262Zm0-396.658C85.894-89.4-2.717-.789-2.717,108.13S85.894,305.653,194.807,305.653,392.33,217.045,392.33,108.13,303.722-89.4,194.807-89.4Z" transform="translate(4.325 91.005)"/></g><g transform="translate(158.661 158.661)"><path class="d" d="M167.473,240.261C79.541,240.261,8.005,168.725,8.005,80.8S79.541-78.675,167.473-78.675,326.938-7.136,326.938,80.8,255.4,240.261,167.473,240.261Zm0-317.328C80.429-77.067,9.613-6.248,9.613,80.8s70.815,157.856,157.86,157.856S325.33,167.841,325.33,80.8,254.517-77.067,167.473-77.067Z" transform="translate(-8.005 78.675)"/></g></g><g class="b" transform="translate(1495.789 950.43)"><g transform="translate(0)"><path class="d" d="M741.8,803.722A317.946,317.946,0,1,1,966.811,710.6,316.1,316.1,0,0,1,741.8,803.722Zm0-634.656c-174.533,0-316.524,141.991-316.524,316.524S567.271,802.114,741.8,802.114s316.523-141.994,316.523-316.524S916.336,169.066,741.8,169.066Z" transform="translate(-423.671 -167.458)"/></g><g transform="translate(39.667 39.667)"><path class="d" d="M714.467,736.719C560.921,736.719,436,611.8,436,458.254S560.921,179.789,714.467,179.789,992.932,304.705,992.932,458.254,868.013,736.719,714.467,736.719Zm0-555.322c-152.662,0-276.857,124.2-276.857,276.857s124.2,276.857,276.857,276.857,276.857-124.2,276.857-276.857S867.129,181.4,714.467,181.4Z" transform="translate(-436.002 -179.789)"/></g><g transform="translate(79.334 79.33)"><path class="d" d="M687.132,669.719c-131.672,0-238.8-107.124-238.8-238.8s107.127-238.8,238.8-238.8,238.8,107.127,238.8,238.8S818.806,669.719,687.132,669.719Zm0-475.992c-130.787,0-237.19,106.4-237.19,237.193s106.4,237.19,237.19,237.19,237.19-106.4,237.19-237.19S817.922,193.727,687.132,193.727Z" transform="translate(-448.333 -192.119)"/></g><g transform="translate(118.997 118.997)"><path class="d" d="M659.8,602.717c-109.8,0-199.135-89.331-199.135-199.132S550,204.45,659.8,204.45s199.135,89.332,199.135,199.135S769.6,602.717,659.8,602.717Zm0-396.658c-108.916,0-197.527,88.611-197.527,197.526S550.883,601.108,659.8,601.108,857.325,512.5,857.325,403.585,768.714,206.058,659.8,206.058Z" transform="translate(-460.663 -204.45)"/></g><g transform="translate(158.664 158.664)"><path class="d" d="M632.462,535.717c-87.932,0-159.468-71.536-159.468-159.468S544.53,216.781,632.462,216.781,791.93,288.32,791.93,376.249,720.391,535.717,632.462,535.717Zm0-317.328c-87.044,0-157.86,70.815-157.86,157.86s70.815,157.86,157.86,157.86,157.86-70.819,157.86-157.86S719.507,218.389,632.462,218.389Z" transform="translate(-472.994 -216.781)"/></g></g></g></g><g class="e" transform="translate(150.852 718.548)"><rect class="f" width="576.435" height="3.216" transform="translate(0 407.601) rotate(-45)"/></g><g class="e" transform="translate(418.724 512.98)"><rect class="g" width="297.889" height="3.216" transform="translate(0 210.639) rotate(-45)"/></g><g class="e" transform="translate(1009.609 675.746)"><rect class="h" width="698.298" height="3.217" transform="translate(0 493.771) rotate(-45)"/></g><g class="e" transform="translate(1247.602 1009.489)"><rect class="i" width="106.389" height="3.217" transform="translate(0 75.223) rotate(-44.996)"/></g><g class="b" transform="translate(151.051 453.153)"><path class="c" d="M19.152,82.5a2.837,2.837,0,1,0-2.837-2.837A2.838,2.838,0,0,0,19.152,82.5Z" transform="translate(-16.315 -76.826)"/><path class="c" d="M25.152,82.5a2.837,2.837,0,1,0-2.837-2.837A2.838,2.838,0,0,0,25.152,82.5Z" transform="translate(-3.014 -76.826)"/><path class="c" d="M31.152,82.5a2.837,2.837,0,1,0-2.837-2.837A2.838,2.838,0,0,0,31.152,82.5Z" transform="translate(10.287 -76.826)"/><path class="c" d="M37.152,82.5a2.837,2.837,0,1,0-2.837-2.837A2.838,2.838,0,0,0,37.152,82.5Z" transform="translate(23.588 -76.826)"/><path class="c" d="M43.152,82.5a2.837,2.837,0,1,0-2.837-2.837A2.838,2.838,0,0,0,43.152,82.5Z" transform="translate(36.889 -76.826)"/><path class="c" d="M49.152,82.5a2.837,2.837,0,1,0-2.837-2.837A2.838,2.838,0,0,0,49.152,82.5Z" transform="translate(50.19 -76.826)"/><path class="c" d="M55.152,82.5a2.837,2.837,0,1,0-2.837-2.837A2.838,2.838,0,0,0,55.152,82.5Z" transform="translate(63.491 -76.826)"/><path class="c" d="M61.152,82.5a2.837,2.837,0,1,0-2.837-2.837A2.838,2.838,0,0,0,61.152,82.5Z" transform="translate(76.792 -76.826)"/><path class="c" d="M67.152,82.5a2.837,2.837,0,1,0-2.837-2.837A2.838,2.838,0,0,0,67.152,82.5Z" transform="translate(90.093 -76.826)"/><path class="c" d="M73.152,82.5a2.837,2.837,0,1,0-2.837-2.837A2.838,2.838,0,0,0,73.152,82.5Z" transform="translate(103.394 -76.826)"/><path class="c" d="M19.152,88.5a2.837,2.837,0,1,0-2.837-2.837A2.838,2.838,0,0,0,19.152,88.5Z" transform="translate(-16.315 -63.525)"/><path class="c" d="M25.152,88.5a2.837,2.837,0,1,0-2.837-2.837A2.838,2.838,0,0,0,25.152,88.5Z" transform="translate(-3.014 -63.525)"/><path class="c" d="M31.152,88.5a2.837,2.837,0,1,0-2.837-2.837A2.838,2.838,0,0,0,31.152,88.5Z" transform="translate(10.287 -63.525)"/><path class="c" d="M37.152,88.5a2.837,2.837,0,1,0-2.837-2.837A2.838,2.838,0,0,0,37.152,88.5Z" transform="translate(23.588 -63.525)"/><path class="c" d="M43.152,88.5a2.837,2.837,0,1,0-2.837-2.837A2.838,2.838,0,0,0,43.152,88.5Z" transform="translate(36.889 -63.525)"/><path class="c" d="M49.152,88.5a2.837,2.837,0,1,0-2.837-2.837A2.838,2.838,0,0,0,49.152,88.5Z" transform="translate(50.19 -63.525)"/><path class="c" d="M55.152,88.5a2.837,2.837,0,1,0-2.837-2.837A2.838,2.838,0,0,0,55.152,88.5Z" transform="translate(63.491 -63.525)"/><path class="c" d="M61.152,88.5a2.837,2.837,0,1,0-2.837-2.837A2.838,2.838,0,0,0,61.152,88.5Z" transform="translate(76.792 -63.525)"/><path class="c" d="M67.152,88.5a2.837,2.837,0,1,0-2.837-2.837A2.838,2.838,0,0,0,67.152,88.5Z" transform="translate(90.093 -63.525)"/><path class="c" d="M73.152,88.5a2.837,2.837,0,1,0-2.837-2.837A2.838,2.838,0,0,0,73.152,88.5Z" transform="translate(103.394 -63.525)"/><path class="c" d="M19.152,94.5a2.837,2.837,0,1,0-2.837-2.837A2.838,2.838,0,0,0,19.152,94.5Z" transform="translate(-16.315 -50.224)"/><path class="c" d="M25.152,94.5a2.837,2.837,0,1,0-2.837-2.837A2.838,2.838,0,0,0,25.152,94.5Z" transform="translate(-3.014 -50.224)"/><path class="c" d="M31.152,94.5a2.837,2.837,0,1,0-2.837-2.837A2.838,2.838,0,0,0,31.152,94.5Z" transform="translate(10.287 -50.224)"/><path class="c" d="M37.152,94.5a2.837,2.837,0,1,0-2.837-2.837A2.838,2.838,0,0,0,37.152,94.5Z" transform="translate(23.588 -50.224)"/><path class="c" d="M43.152,94.5a2.837,2.837,0,1,0-2.837-2.837A2.838,2.838,0,0,0,43.152,94.5Z" transform="translate(36.889 -50.224)"/><path class="c" d="M49.152,94.5a2.837,2.837,0,1,0-2.837-2.837A2.838,2.838,0,0,0,49.152,94.5Z" transform="translate(50.19 -50.224)"/><path class="c" d="M55.152,94.5a2.837,2.837,0,1,0-2.837-2.837A2.838,2.838,0,0,0,55.152,94.5Z" transform="translate(63.491 -50.224)"/><path class="c" d="M61.152,94.5a2.837,2.837,0,1,0-2.837-2.837A2.838,2.838,0,0,0,61.152,94.5Z" transform="translate(76.792 -50.224)"/><path class="c" d="M67.152,94.5a2.837,2.837,0,1,0-2.837-2.837A2.838,2.838,0,0,0,67.152,94.5Z" transform="translate(90.093 -50.224)"/><path class="c" d="M73.152,94.5a2.837,2.837,0,1,0-2.837-2.837A2.838,2.838,0,0,0,73.152,94.5Z" transform="translate(103.394 -50.224)"/><path class="c" d="M19.152,100.5a2.837,2.837,0,1,0-2.837-2.837A2.838,2.838,0,0,0,19.152,100.5Z" transform="translate(-16.315 -36.923)"/><path class="c" d="M25.152,100.5a2.837,2.837,0,1,0-2.837-2.837A2.838,2.838,0,0,0,25.152,100.5Z" transform="translate(-3.014 -36.923)"/><path class="c" d="M31.152,100.5a2.837,2.837,0,1,0-2.837-2.837A2.838,2.838,0,0,0,31.152,100.5Z" transform="translate(10.287 -36.923)"/><path class="c" d="M37.152,100.5a2.837,2.837,0,1,0-2.837-2.837A2.838,2.838,0,0,0,37.152,100.5Z" transform="translate(23.588 -36.923)"/><path class="c" d="M43.152,100.5a2.837,2.837,0,1,0-2.837-2.837A2.838,2.838,0,0,0,43.152,100.5Z" transform="translate(36.889 -36.923)"/><path class="c" d="M49.152,100.5a2.837,2.837,0,1,0-2.837-2.837A2.838,2.838,0,0,0,49.152,100.5Z" transform="translate(50.19 -36.923)"/><path class="c" d="M55.152,100.5a2.837,2.837,0,1,0-2.837-2.837A2.838,2.838,0,0,0,55.152,100.5Z" transform="translate(63.491 -36.923)"/><path class="c" d="M61.152,100.5a2.837,2.837,0,1,0-2.837-2.837A2.838,2.838,0,0,0,61.152,100.5Z" transform="translate(76.792 -36.923)"/><path class="c" d="M67.152,100.5a2.837,2.837,0,1,0-2.837-2.837A2.838,2.838,0,0,0,67.152,100.5Z" transform="translate(90.093 -36.923)"/><path class="c" d="M73.152,100.5a2.837,2.837,0,1,0-2.837-2.837A2.838,2.838,0,0,0,73.152,100.5Z" transform="translate(103.394 -36.923)"/><path class="c" d="M19.152,106.5a2.837,2.837,0,1,0-2.837-2.837A2.838,2.838,0,0,0,19.152,106.5Z" transform="translate(-16.315 -23.622)"/><path class="c" d="M25.152,106.5a2.837,2.837,0,1,0-2.837-2.837A2.838,2.838,0,0,0,25.152,106.5Z" transform="translate(-3.014 -23.622)"/><path class="c" d="M31.152,106.5a2.837,2.837,0,1,0-2.837-2.837A2.838,2.838,0,0,0,31.152,106.5Z" transform="translate(10.287 -23.622)"/><path class="c" d="M37.152,106.5a2.837,2.837,0,1,0-2.837-2.837A2.838,2.838,0,0,0,37.152,106.5Z" transform="translate(23.588 -23.622)"/><path class="c" d="M43.152,106.5a2.837,2.837,0,1,0-2.837-2.837A2.838,2.838,0,0,0,43.152,106.5Z" transform="translate(36.889 -23.622)"/><path class="c" d="M49.152,106.5a2.837,2.837,0,1,0-2.837-2.837A2.838,2.838,0,0,0,49.152,106.5Z" transform="translate(50.19 -23.622)"/><path class="c" d="M55.152,106.5a2.837,2.837,0,1,0-2.837-2.837A2.838,2.838,0,0,0,55.152,106.5Z" transform="translate(63.491 -23.622)"/><path class="c" d="M61.152,106.5a2.837,2.837,0,1,0-2.837-2.837A2.838,2.838,0,0,0,61.152,106.5Z" transform="translate(76.792 -23.622)"/><path class="c" d="M67.152,106.5a2.837,2.837,0,1,0-2.837-2.837A2.838,2.838,0,0,0,67.152,106.5Z" transform="translate(90.093 -23.622)"/><path class="c" d="M73.152,106.5a2.837,2.837,0,1,0-2.837-2.837A2.838,2.838,0,0,0,73.152,106.5Z" transform="translate(103.394 -23.622)"/><path class="c" d="M19.152,112.5a2.837,2.837,0,1,0-2.837-2.837A2.838,2.838,0,0,0,19.152,112.5Z" transform="translate(-16.315 -10.321)"/><path class="c" d="M25.152,112.5a2.837,2.837,0,1,0-2.837-2.837A2.838,2.838,0,0,0,25.152,112.5Z" transform="translate(-3.014 -10.321)"/><path class="c" d="M31.152,112.5a2.837,2.837,0,1,0-2.837-2.837A2.838,2.838,0,0,0,31.152,112.5Z" transform="translate(10.287 -10.321)"/><path class="c" d="M37.152,112.5a2.837,2.837,0,1,0-2.837-2.837A2.838,2.838,0,0,0,37.152,112.5Z" transform="translate(23.588 -10.321)"/><path class="c" d="M43.152,112.5a2.837,2.837,0,1,0-2.837-2.837A2.838,2.838,0,0,0,43.152,112.5Z" transform="translate(36.889 -10.321)"/><path class="c" d="M49.152,112.5a2.837,2.837,0,1,0-2.837-2.837A2.838,2.838,0,0,0,49.152,112.5Z" transform="translate(50.19 -10.321)"/><path class="c" d="M55.152,112.5a2.837,2.837,0,1,0-2.837-2.837A2.838,2.838,0,0,0,55.152,112.5Z" transform="translate(63.491 -10.321)"/><path class="c" d="M61.152,112.5a2.837,2.837,0,1,0-2.837-2.837A2.838,2.838,0,0,0,61.152,112.5Z" transform="translate(76.792 -10.321)"/><path class="c" d="M67.152,112.5a2.837,2.837,0,1,0-2.837-2.837A2.838,2.838,0,0,0,67.152,112.5Z" transform="translate(90.093 -10.321)"/><path class="c" d="M73.152,112.5a2.837,2.837,0,1,0-2.837-2.837A2.838,2.838,0,0,0,73.152,112.5Z" transform="translate(103.394 -10.321)"/><path class="c" d="M19.152,118.5a2.837,2.837,0,1,0-2.837-2.837A2.838,2.838,0,0,0,19.152,118.5Z" transform="translate(-16.315 2.98)"/><path class="c" d="M25.152,118.5a2.837,2.837,0,1,0-2.837-2.837A2.838,2.838,0,0,0,25.152,118.5Z" transform="translate(-3.014 2.98)"/><path class="c" d="M31.152,118.5a2.837,2.837,0,1,0-2.837-2.837A2.838,2.838,0,0,0,31.152,118.5Z" transform="translate(10.287 2.98)"/><path class="c" d="M37.152,118.5a2.837,2.837,0,1,0-2.837-2.837A2.838,2.838,0,0,0,37.152,118.5Z" transform="translate(23.588 2.98)"/><path class="c" d="M43.152,118.5a2.837,2.837,0,1,0-2.837-2.837A2.838,2.838,0,0,0,43.152,118.5Z" transform="translate(36.889 2.98)"/><path class="c" d="M49.152,118.5a2.837,2.837,0,1,0-2.837-2.837A2.838,2.838,0,0,0,49.152,118.5Z" transform="translate(50.19 2.98)"/><path class="c" d="M55.152,118.5a2.837,2.837,0,1,0-2.837-2.837A2.838,2.838,0,0,0,55.152,118.5Z" transform="translate(63.491 2.98)"/><path class="c" d="M61.152,118.5a2.837,2.837,0,1,0-2.837-2.837A2.838,2.838,0,0,0,61.152,118.5Z" transform="translate(76.792 2.98)"/><path class="c" d="M67.152,118.5a2.837,2.837,0,1,0-2.837-2.837A2.838,2.838,0,0,0,67.152,118.5Z" transform="translate(90.093 2.98)"/><path class="c" d="M73.152,118.5a2.837,2.837,0,1,0-2.837-2.837A2.838,2.838,0,0,0,73.152,118.5Z" transform="translate(103.394 2.98)"/><path class="c" d="M19.152,124.5a2.837,2.837,0,1,0-2.837-2.837A2.838,2.838,0,0,0,19.152,124.5Z" transform="translate(-16.315 16.281)"/><path class="c" d="M25.152,124.5a2.837,2.837,0,1,0-2.837-2.837A2.838,2.838,0,0,0,25.152,124.5Z" transform="translate(-3.014 16.281)"/><path class="c" d="M31.152,124.5a2.837,2.837,0,1,0-2.837-2.837A2.838,2.838,0,0,0,31.152,124.5Z" transform="translate(10.287 16.281)"/><path class="c" d="M37.152,124.5a2.837,2.837,0,1,0-2.837-2.837A2.838,2.838,0,0,0,37.152,124.5Z" transform="translate(23.588 16.281)"/><path class="c" d="M43.152,124.5a2.837,2.837,0,1,0-2.837-2.837A2.838,2.838,0,0,0,43.152,124.5Z" transform="translate(36.889 16.281)"/><path class="c" d="M49.152,124.5a2.837,2.837,0,1,0-2.837-2.837A2.838,2.838,0,0,0,49.152,124.5Z" transform="translate(50.19 16.281)"/><path class="c" d="M55.152,124.5a2.837,2.837,0,1,0-2.837-2.837A2.838,2.838,0,0,0,55.152,124.5Z" transform="translate(63.491 16.281)"/><path class="c" d="M61.152,124.5a2.837,2.837,0,1,0-2.837-2.837A2.838,2.838,0,0,0,61.152,124.5Z" transform="translate(76.792 16.281)"/><path class="c" d="M67.152,124.5a2.837,2.837,0,1,0-2.837-2.837A2.838,2.838,0,0,0,67.152,124.5Z" transform="translate(90.093 16.281)"/><path class="c" d="M73.152,124.5a2.837,2.837,0,1,0-2.837-2.837A2.838,2.838,0,0,0,73.152,124.5Z" transform="translate(103.394 16.281)"/><path class="c" d="M19.152,130.5a2.837,2.837,0,1,0-2.837-2.837A2.838,2.838,0,0,0,19.152,130.5Z" transform="translate(-16.315 29.582)"/><path class="c" d="M25.152,130.5a2.837,2.837,0,1,0-2.837-2.837A2.838,2.838,0,0,0,25.152,130.5Z" transform="translate(-3.014 29.582)"/><path class="c" d="M31.152,130.5a2.837,2.837,0,1,0-2.837-2.837A2.838,2.838,0,0,0,31.152,130.5Z" transform="translate(10.287 29.582)"/><path class="c" d="M37.152,130.5a2.837,2.837,0,1,0-2.837-2.837A2.838,2.838,0,0,0,37.152,130.5Z" transform="translate(23.588 29.582)"/><path class="c" d="M43.152,130.5a2.837,2.837,0,1,0-2.837-2.837A2.838,2.838,0,0,0,43.152,130.5Z" transform="translate(36.889 29.582)"/><path class="c" d="M49.152,130.5a2.837,2.837,0,1,0-2.837-2.837A2.838,2.838,0,0,0,49.152,130.5Z" transform="translate(50.19 29.582)"/><path class="c" d="M55.152,130.5a2.837,2.837,0,1,0-2.837-2.837A2.838,2.838,0,0,0,55.152,130.5Z" transform="translate(63.491 29.582)"/><path class="c" d="M61.152,130.5a2.837,2.837,0,1,0-2.837-2.837A2.838,2.838,0,0,0,61.152,130.5Z" transform="translate(76.792 29.582)"/><path class="c" d="M67.152,130.5a2.837,2.837,0,1,0-2.837-2.837A2.838,2.838,0,0,0,67.152,130.5Z" transform="translate(90.093 29.582)"/><path class="c" d="M73.152,130.5a2.837,2.837,0,1,0-2.837-2.837A2.838,2.838,0,0,0,73.152,130.5Z" transform="translate(103.394 29.582)"/><path class="c" d="M19.152,136.5a2.837,2.837,0,1,0-2.837-2.837A2.838,2.838,0,0,0,19.152,136.5Z" transform="translate(-16.315 42.883)"/><path class="c" d="M25.152,136.5a2.837,2.837,0,1,0-2.837-2.837A2.838,2.838,0,0,0,25.152,136.5Z" transform="translate(-3.014 42.883)"/><path class="c" d="M31.152,136.5a2.837,2.837,0,1,0-2.837-2.837A2.838,2.838,0,0,0,31.152,136.5Z" transform="translate(10.287 42.883)"/><path class="c" d="M37.152,136.5a2.837,2.837,0,1,0-2.837-2.837A2.838,2.838,0,0,0,37.152,136.5Z" transform="translate(23.588 42.883)"/><path class="c" d="M43.152,136.5a2.837,2.837,0,1,0-2.837-2.837A2.838,2.838,0,0,0,43.152,136.5Z" transform="translate(36.889 42.883)"/><path class="c" d="M49.152,136.5a2.837,2.837,0,1,0-2.837-2.837A2.838,2.838,0,0,0,49.152,136.5Z" transform="translate(50.19 42.883)"/><path class="c" d="M55.152,136.5a2.837,2.837,0,1,0-2.837-2.837A2.838,2.838,0,0,0,55.152,136.5Z" transform="translate(63.491 42.883)"/><path class="c" d="M61.152,136.5a2.837,2.837,0,1,0-2.837-2.837A2.838,2.838,0,0,0,61.152,136.5Z" transform="translate(76.792 42.883)"/><path class="c" d="M67.152,136.5a2.837,2.837,0,1,0-2.837-2.837A2.838,2.838,0,0,0,67.152,136.5Z" transform="translate(90.093 42.883)"/><path class="c" d="M73.152,136.5a2.837,2.837,0,1,0-2.837-2.837A2.838,2.838,0,0,0,73.152,136.5Z" transform="translate(103.394 42.883)"/><path class="c" d="M19.152,142.5a2.837,2.837,0,1,0-2.837-2.837A2.838,2.838,0,0,0,19.152,142.5Z" transform="translate(-16.315 56.184)"/><path class="c" d="M25.152,142.5a2.837,2.837,0,1,0-2.837-2.837A2.838,2.838,0,0,0,25.152,142.5Z" transform="translate(-3.014 56.184)"/><path class="c" d="M31.152,142.5a2.837,2.837,0,1,0-2.837-2.837A2.838,2.838,0,0,0,31.152,142.5Z" transform="translate(10.287 56.184)"/><path class="c" d="M37.152,142.5a2.837,2.837,0,1,0-2.837-2.837A2.838,2.838,0,0,0,37.152,142.5Z" transform="translate(23.588 56.184)"/><path class="c" d="M43.152,142.5a2.837,2.837,0,1,0-2.837-2.837A2.838,2.838,0,0,0,43.152,142.5Z" transform="translate(36.889 56.184)"/><path class="c" d="M49.152,142.5a2.837,2.837,0,1,0-2.837-2.837A2.838,2.838,0,0,0,49.152,142.5Z" transform="translate(50.19 56.184)"/><path class="c" d="M55.152,142.5a2.837,2.837,0,1,0-2.837-2.837A2.838,2.838,0,0,0,55.152,142.5Z" transform="translate(63.491 56.184)"/><path class="c" d="M61.152,142.5a2.837,2.837,0,1,0-2.837-2.837A2.838,2.838,0,0,0,61.152,142.5Z" transform="translate(76.792 56.184)"/><path class="c" d="M67.152,142.5a2.837,2.837,0,1,0-2.837-2.837A2.838,2.838,0,0,0,67.152,142.5Z" transform="translate(90.093 56.184)"/><path class="c" d="M73.152,142.5a2.837,2.837,0,1,0-2.837-2.837A2.838,2.838,0,0,0,73.152,142.5Z" transform="translate(103.394 56.184)"/><path class="c" d="M19.152,148.5a2.837,2.837,0,1,0-2.837-2.837A2.838,2.838,0,0,0,19.152,148.5Z" transform="translate(-16.315 69.485)"/><path class="c" d="M25.152,148.5a2.837,2.837,0,1,0-2.837-2.837A2.838,2.838,0,0,0,25.152,148.5Z" transform="translate(-3.014 69.485)"/><path class="c" d="M31.152,148.5a2.837,2.837,0,1,0-2.837-2.837A2.838,2.838,0,0,0,31.152,148.5Z" transform="translate(10.287 69.485)"/><path class="c" d="M37.152,148.5a2.837,2.837,0,1,0-2.837-2.837A2.838,2.838,0,0,0,37.152,148.5Z" transform="translate(23.588 69.485)"/><path class="c" d="M43.152,148.5a2.837,2.837,0,1,0-2.837-2.837A2.838,2.838,0,0,0,43.152,148.5Z" transform="translate(36.889 69.485)"/><path class="c" d="M49.152,148.5a2.837,2.837,0,1,0-2.837-2.837A2.838,2.838,0,0,0,49.152,148.5Z" transform="translate(50.19 69.485)"/><path class="c" d="M55.152,148.5a2.837,2.837,0,1,0-2.837-2.837A2.838,2.838,0,0,0,55.152,148.5Z" transform="translate(63.491 69.485)"/><path class="c" d="M61.152,148.5a2.837,2.837,0,1,0-2.837-2.837A2.838,2.838,0,0,0,61.152,148.5Z" transform="translate(76.792 69.485)"/><path class="c" d="M67.152,148.5a2.837,2.837,0,1,0-2.837-2.837A2.838,2.838,0,0,0,67.152,148.5Z" transform="translate(90.093 69.485)"/><path class="c" d="M73.152,148.5a2.837,2.837,0,1,0-2.837-2.837A2.838,2.838,0,0,0,73.152,148.5Z" transform="translate(103.394 69.485)"/><path class="c" d="M19.152,154.5a2.837,2.837,0,1,0-2.837-2.837A2.838,2.838,0,0,0,19.152,154.5Z" transform="translate(-16.315 82.786)"/><path class="c" d="M25.152,154.5a2.837,2.837,0,1,0-2.837-2.837A2.838,2.838,0,0,0,25.152,154.5Z" transform="translate(-3.014 82.786)"/><path class="c" d="M31.152,154.5a2.837,2.837,0,1,0-2.837-2.837A2.838,2.838,0,0,0,31.152,154.5Z" transform="translate(10.287 82.786)"/><path class="c" d="M37.152,154.5a2.837,2.837,0,1,0-2.837-2.837A2.838,2.838,0,0,0,37.152,154.5Z" transform="translate(23.588 82.786)"/><path class="c" d="M43.152,154.5a2.837,2.837,0,1,0-2.837-2.837A2.838,2.838,0,0,0,43.152,154.5Z" transform="translate(36.889 82.786)"/><path class="c" d="M49.152,154.5a2.837,2.837,0,1,0-2.837-2.837A2.838,2.838,0,0,0,49.152,154.5Z" transform="translate(50.19 82.786)"/><path class="c" d="M55.152,154.5a2.837,2.837,0,1,0-2.837-2.837A2.838,2.838,0,0,0,55.152,154.5Z" transform="translate(63.491 82.786)"/><path class="c" d="M61.152,154.5a2.837,2.837,0,1,0-2.837-2.837A2.838,2.838,0,0,0,61.152,154.5Z" transform="translate(76.792 82.786)"/><path class="c" d="M67.152,154.5a2.837,2.837,0,1,0-2.837-2.837A2.838,2.838,0,0,0,67.152,154.5Z" transform="translate(90.093 82.786)"/><path class="c" d="M73.152,154.5a2.837,2.837,0,1,0-2.837-2.837A2.838,2.838,0,0,0,73.152,154.5Z" transform="translate(103.394 82.786)"/><path class="c" d="M19.152,160.5a2.837,2.837,0,1,0-2.837-2.837A2.838,2.838,0,0,0,19.152,160.5Z" transform="translate(-16.315 96.087)"/><path class="c" d="M25.152,160.5a2.837,2.837,0,1,0-2.837-2.837A2.838,2.838,0,0,0,25.152,160.5Z" transform="translate(-3.014 96.087)"/><path class="c" d="M31.152,160.5a2.837,2.837,0,1,0-2.837-2.837A2.838,2.838,0,0,0,31.152,160.5Z" transform="translate(10.287 96.087)"/><path class="c" d="M37.152,160.5a2.837,2.837,0,1,0-2.837-2.837A2.838,2.838,0,0,0,37.152,160.5Z" transform="translate(23.588 96.087)"/><path class="c" d="M43.152,160.5a2.837,2.837,0,1,0-2.837-2.837A2.838,2.838,0,0,0,43.152,160.5Z" transform="translate(36.889 96.087)"/><path class="c" d="M49.152,160.5a2.837,2.837,0,1,0-2.837-2.837A2.838,2.838,0,0,0,49.152,160.5Z" transform="translate(50.19 96.087)"/><path class="c" d="M55.152,160.5a2.837,2.837,0,1,0-2.837-2.837A2.838,2.838,0,0,0,55.152,160.5Z" transform="translate(63.491 96.087)"/><path class="c" d="M61.152,160.5a2.837,2.837,0,1,0-2.837-2.837A2.838,2.838,0,0,0,61.152,160.5Z" transform="translate(76.792 96.087)"/><path class="c" d="M67.152,160.5a2.837,2.837,0,1,0-2.837-2.837A2.838,2.838,0,0,0,67.152,160.5Z" transform="translate(90.093 96.087)"/><path class="c" d="M73.152,160.5a2.837,2.837,0,1,0-2.837-2.837A2.838,2.838,0,0,0,73.152,160.5Z" transform="translate(103.394 96.087)"/><path class="c" d="M19.152,166.5a2.837,2.837,0,1,0-2.837-2.837A2.838,2.838,0,0,0,19.152,166.5Z" transform="translate(-16.315 109.388)"/><path class="c" d="M25.152,166.5a2.837,2.837,0,1,0-2.837-2.837A2.838,2.838,0,0,0,25.152,166.5Z" transform="translate(-3.014 109.388)"/><path class="c" d="M31.152,166.5a2.837,2.837,0,1,0-2.837-2.837A2.838,2.838,0,0,0,31.152,166.5Z" transform="translate(10.287 109.388)"/><path class="c" d="M37.152,166.5a2.837,2.837,0,1,0-2.837-2.837A2.838,2.838,0,0,0,37.152,166.5Z" transform="translate(23.588 109.388)"/><path class="c" d="M43.152,166.5a2.837,2.837,0,1,0-2.837-2.837A2.838,2.838,0,0,0,43.152,166.5Z" transform="translate(36.889 109.388)"/><path class="c" d="M49.152,166.5a2.837,2.837,0,1,0-2.837-2.837A2.838,2.838,0,0,0,49.152,166.5Z" transform="translate(50.19 109.388)"/><path class="c" d="M55.152,166.5a2.837,2.837,0,1,0-2.837-2.837A2.838,2.838,0,0,0,55.152,166.5Z" transform="translate(63.491 109.388)"/><path class="c" d="M61.152,166.5a2.837,2.837,0,1,0-2.837-2.837A2.838,2.838,0,0,0,61.152,166.5Z" transform="translate(76.792 109.388)"/><path class="c" d="M67.152,166.5a2.837,2.837,0,1,0-2.837-2.837A2.838,2.838,0,0,0,67.152,166.5Z" transform="translate(90.093 109.388)"/><path class="c" d="M73.152,166.5a2.837,2.837,0,1,0-2.837-2.837A2.838,2.838,0,0,0,73.152,166.5Z" transform="translate(103.394 109.388)"/><path class="c" d="M19.152,172.5a2.837,2.837,0,1,0-2.837-2.837A2.838,2.838,0,0,0,19.152,172.5Z" transform="translate(-16.315 122.689)"/><path class="c" d="M25.152,172.5a2.837,2.837,0,1,0-2.837-2.837A2.838,2.838,0,0,0,25.152,172.5Z" transform="translate(-3.014 122.689)"/><path class="c" d="M31.152,172.5a2.837,2.837,0,1,0-2.837-2.837A2.838,2.838,0,0,0,31.152,172.5Z" transform="translate(10.287 122.689)"/><path class="c" d="M37.152,172.5a2.837,2.837,0,1,0-2.837-2.837A2.838,2.838,0,0,0,37.152,172.5Z" transform="translate(23.588 122.689)"/><path class="c" d="M43.152,172.5a2.837,2.837,0,1,0-2.837-2.837A2.838,2.838,0,0,0,43.152,172.5Z" transform="translate(36.889 122.689)"/><path class="c" d="M49.152,172.5a2.837,2.837,0,1,0-2.837-2.837A2.838,2.838,0,0,0,49.152,172.5Z" transform="translate(50.19 122.689)"/><path class="c" d="M55.152,172.5a2.837,2.837,0,1,0-2.837-2.837A2.838,2.838,0,0,0,55.152,172.5Z" transform="translate(63.491 122.689)"/><path class="c" d="M61.152,172.5a2.837,2.837,0,1,0-2.837-2.837A2.838,2.838,0,0,0,61.152,172.5Z" transform="translate(76.792 122.689)"/><path class="c" d="M67.152,172.5a2.837,2.837,0,1,0-2.837-2.837A2.838,2.838,0,0,0,67.152,172.5Z" transform="translate(90.093 122.689)"/><path class="c" d="M73.152,172.5a2.837,2.837,0,1,0-2.837-2.837A2.838,2.838,0,0,0,73.152,172.5Z" transform="translate(103.394 122.689)"/><path class="c" d="M19.152,178.5a2.837,2.837,0,1,0-2.837-2.837A2.838,2.838,0,0,0,19.152,178.5Z" transform="translate(-16.315 135.99)"/><path class="c" d="M25.152,178.5a2.837,2.837,0,1,0-2.837-2.837A2.838,2.838,0,0,0,25.152,178.5Z" transform="translate(-3.014 135.99)"/><path class="c" d="M31.152,178.5a2.837,2.837,0,1,0-2.837-2.837A2.838,2.838,0,0,0,31.152,178.5Z" transform="translate(10.287 135.99)"/><path class="c" d="M37.152,178.5a2.837,2.837,0,1,0-2.837-2.837A2.838,2.838,0,0,0,37.152,178.5Z" transform="translate(23.588 135.99)"/><path class="c" d="M43.152,178.5a2.837,2.837,0,1,0-2.837-2.837A2.838,2.838,0,0,0,43.152,178.5Z" transform="translate(36.889 135.99)"/><path class="c" d="M49.152,178.5a2.837,2.837,0,1,0-2.837-2.837A2.838,2.838,0,0,0,49.152,178.5Z" transform="translate(50.19 135.99)"/><path class="c" d="M55.152,178.5a2.837,2.837,0,1,0-2.837-2.837A2.838,2.838,0,0,0,55.152,178.5Z" transform="translate(63.491 135.99)"/><path class="c" d="M61.152,178.5a2.837,2.837,0,1,0-2.837-2.837A2.838,2.838,0,0,0,61.152,178.5Z" transform="translate(76.792 135.99)"/><path class="c" d="M67.152,178.5a2.837,2.837,0,1,0-2.837-2.837A2.838,2.838,0,0,0,67.152,178.5Z" transform="translate(90.093 135.99)"/><path class="c" d="M73.152,178.5a2.837,2.837,0,1,0-2.837-2.837A2.838,2.838,0,0,0,73.152,178.5Z" transform="translate(103.394 135.99)"/><path class="c" d="M19.152,184.5a2.837,2.837,0,1,0-2.837-2.837A2.838,2.838,0,0,0,19.152,184.5Z" transform="translate(-16.315 149.291)"/><path class="c" d="M25.152,184.5a2.837,2.837,0,1,0-2.837-2.837A2.838,2.838,0,0,0,25.152,184.5Z" transform="translate(-3.014 149.291)"/><path class="c" d="M31.152,184.5a2.837,2.837,0,1,0-2.837-2.837A2.838,2.838,0,0,0,31.152,184.5Z" transform="translate(10.287 149.291)"/><path class="c" d="M37.152,184.5a2.837,2.837,0,1,0-2.837-2.837A2.838,2.838,0,0,0,37.152,184.5Z" transform="translate(23.588 149.291)"/><path class="c" d="M43.152,184.5a2.837,2.837,0,1,0-2.837-2.837A2.838,2.838,0,0,0,43.152,184.5Z" transform="translate(36.889 149.291)"/><path class="c" d="M49.152,184.5a2.837,2.837,0,1,0-2.837-2.837A2.838,2.838,0,0,0,49.152,184.5Z" transform="translate(50.19 149.291)"/><path class="c" d="M55.152,184.5a2.837,2.837,0,1,0-2.837-2.837A2.838,2.838,0,0,0,55.152,184.5Z" transform="translate(63.491 149.291)"/><path class="c" d="M61.152,184.5a2.837,2.837,0,1,0-2.837-2.837A2.838,2.838,0,0,0,61.152,184.5Z" transform="translate(76.792 149.291)"/><path class="c" d="M67.152,184.5a2.837,2.837,0,1,0-2.837-2.837A2.838,2.838,0,0,0,67.152,184.5Z" transform="translate(90.093 149.291)"/><path class="c" d="M73.152,184.5a2.837,2.837,0,1,0-2.837-2.837A2.838,2.838,0,0,0,73.152,184.5Z" transform="translate(103.394 149.291)"/><path class="c" d="M19.152,190.5a2.837,2.837,0,1,0-2.837-2.837A2.838,2.838,0,0,0,19.152,190.5Z" transform="translate(-16.315 162.592)"/><path class="c" d="M25.152,190.5a2.837,2.837,0,1,0-2.837-2.837A2.838,2.838,0,0,0,25.152,190.5Z" transform="translate(-3.014 162.592)"/><path class="c" d="M31.152,190.5a2.837,2.837,0,1,0-2.837-2.837A2.838,2.838,0,0,0,31.152,190.5Z" transform="translate(10.287 162.592)"/><path class="c" d="M37.152,190.5a2.837,2.837,0,1,0-2.837-2.837A2.838,2.838,0,0,0,37.152,190.5Z" transform="translate(23.588 162.592)"/><path class="c" d="M43.152,190.5a2.837,2.837,0,1,0-2.837-2.837A2.838,2.838,0,0,0,43.152,190.5Z" transform="translate(36.889 162.592)"/><path class="c" d="M49.152,190.5a2.837,2.837,0,1,0-2.837-2.837A2.838,2.838,0,0,0,49.152,190.5Z" transform="translate(50.19 162.592)"/><path class="c" d="M55.152,190.5a2.837,2.837,0,1,0-2.837-2.837A2.838,2.838,0,0,0,55.152,190.5Z" transform="translate(63.491 162.592)"/><path class="c" d="M61.152,190.5a2.837,2.837,0,1,0-2.837-2.837A2.838,2.838,0,0,0,61.152,190.5Z" transform="translate(76.792 162.592)"/><path class="c" d="M67.152,190.5a2.837,2.837,0,1,0-2.837-2.837A2.838,2.838,0,0,0,67.152,190.5Z" transform="translate(90.093 162.592)"/><path class="c" d="M73.152,190.5a2.837,2.837,0,1,0-2.837-2.837A2.838,2.838,0,0,0,73.152,190.5Z" transform="translate(103.394 162.592)"/><path class="c" d="M19.152,196.5a2.837,2.837,0,1,0-2.837-2.837A2.838,2.838,0,0,0,19.152,196.5Z" transform="translate(-16.315 175.893)"/><path class="c" d="M25.152,196.5a2.837,2.837,0,1,0-2.837-2.837A2.838,2.838,0,0,0,25.152,196.5Z" transform="translate(-3.014 175.893)"/><path class="c" d="M31.152,196.5a2.837,2.837,0,1,0-2.837-2.837A2.838,2.838,0,0,0,31.152,196.5Z" transform="translate(10.287 175.893)"/><path class="c" d="M37.152,196.5a2.837,2.837,0,1,0-2.837-2.837A2.838,2.838,0,0,0,37.152,196.5Z" transform="translate(23.588 175.893)"/><path class="c" d="M43.152,196.5a2.837,2.837,0,1,0-2.837-2.837A2.838,2.838,0,0,0,43.152,196.5Z" transform="translate(36.889 175.893)"/><path class="c" d="M49.152,196.5a2.837,2.837,0,1,0-2.837-2.837A2.838,2.838,0,0,0,49.152,196.5Z" transform="translate(50.19 175.893)"/><path class="c" d="M55.152,196.5a2.837,2.837,0,1,0-2.837-2.837A2.838,2.838,0,0,0,55.152,196.5Z" transform="translate(63.491 175.893)"/><path class="c" d="M61.152,196.5a2.837,2.837,0,1,0-2.837-2.837A2.838,2.838,0,0,0,61.152,196.5Z" transform="translate(76.792 175.893)"/><path class="c" d="M67.152,196.5a2.837,2.837,0,1,0-2.837-2.837A2.838,2.838,0,0,0,67.152,196.5Z" transform="translate(90.093 175.893)"/><path class="c" d="M73.152,196.5a2.837,2.837,0,1,0-2.837-2.837A2.838,2.838,0,0,0,73.152,196.5Z" transform="translate(103.394 175.893)"/><path class="c" d="M19.152,202.5a2.837,2.837,0,1,0-2.837-2.837A2.838,2.838,0,0,0,19.152,202.5Z" transform="translate(-16.315 189.194)"/><path class="c" d="M25.152,202.5a2.837,2.837,0,1,0-2.837-2.837A2.838,2.838,0,0,0,25.152,202.5Z" transform="translate(-3.014 189.194)"/><path class="c" d="M31.152,202.5a2.837,2.837,0,1,0-2.837-2.837A2.838,2.838,0,0,0,31.152,202.5Z" transform="translate(10.287 189.194)"/><path class="c" d="M37.152,202.5a2.837,2.837,0,1,0-2.837-2.837A2.838,2.838,0,0,0,37.152,202.5Z" transform="translate(23.588 189.194)"/><path class="c" d="M43.152,202.5a2.837,2.837,0,1,0-2.837-2.837A2.838,2.838,0,0,0,43.152,202.5Z" transform="translate(36.889 189.194)"/><path class="c" d="M49.152,202.5a2.837,2.837,0,1,0-2.837-2.837A2.838,2.838,0,0,0,49.152,202.5Z" transform="translate(50.19 189.194)"/><path class="c" d="M55.152,202.5a2.837,2.837,0,1,0-2.837-2.837A2.838,2.838,0,0,0,55.152,202.5Z" transform="translate(63.491 189.194)"/><path class="c" d="M61.152,202.5a2.837,2.837,0,1,0-2.837-2.837A2.838,2.838,0,0,0,61.152,202.5Z" transform="translate(76.792 189.194)"/><path class="c" d="M67.152,202.5a2.837,2.837,0,1,0-2.837-2.837A2.838,2.838,0,0,0,67.152,202.5Z" transform="translate(90.093 189.194)"/><path class="c" d="M73.152,202.5a2.837,2.837,0,1,0-2.837-2.837A2.838,2.838,0,0,0,73.152,202.5Z" transform="translate(103.394 189.194)"/><path class="c" d="M19.152,208.5a2.837,2.837,0,1,0-2.837-2.837A2.838,2.838,0,0,0,19.152,208.5Z" transform="translate(-16.315 202.495)"/><path class="c" d="M25.152,208.5a2.837,2.837,0,1,0-2.837-2.837A2.838,2.838,0,0,0,25.152,208.5Z" transform="translate(-3.014 202.495)"/><path class="c" d="M31.152,208.5a2.837,2.837,0,1,0-2.837-2.837A2.838,2.838,0,0,0,31.152,208.5Z" transform="translate(10.287 202.495)"/><path class="c" d="M37.152,208.5a2.837,2.837,0,1,0-2.837-2.837A2.838,2.838,0,0,0,37.152,208.5Z" transform="translate(23.588 202.495)"/><path class="c" d="M43.152,208.5a2.837,2.837,0,1,0-2.837-2.837A2.838,2.838,0,0,0,43.152,208.5Z" transform="translate(36.889 202.495)"/><path class="c" d="M49.152,208.5a2.837,2.837,0,1,0-2.837-2.837A2.838,2.838,0,0,0,49.152,208.5Z" transform="translate(50.19 202.495)"/><path class="c" d="M55.152,208.5a2.837,2.837,0,1,0-2.837-2.837A2.838,2.838,0,0,0,55.152,208.5Z" transform="translate(63.491 202.495)"/><path class="c" d="M61.152,208.5a2.837,2.837,0,1,0-2.837-2.837A2.838,2.838,0,0,0,61.152,208.5Z" transform="translate(76.792 202.495)"/><path class="c" d="M67.152,208.5a2.837,2.837,0,1,0-2.837-2.837A2.838,2.838,0,0,0,67.152,208.5Z" transform="translate(90.093 202.495)"/><path class="c" d="M73.152,208.5a2.837,2.837,0,1,0-2.837-2.837A2.838,2.838,0,0,0,73.152,208.5Z" transform="translate(103.394 202.495)"/><path class="c" d="M19.152,214.5a2.837,2.837,0,1,0-2.837-2.837A2.838,2.838,0,0,0,19.152,214.5Z" transform="translate(-16.315 215.796)"/><path class="c" d="M25.152,214.5a2.837,2.837,0,1,0-2.837-2.837A2.838,2.838,0,0,0,25.152,214.5Z" transform="translate(-3.014 215.796)"/><path class="c" d="M31.152,214.5a2.837,2.837,0,1,0-2.837-2.837A2.838,2.838,0,0,0,31.152,214.5Z" transform="translate(10.287 215.796)"/><path class="c" d="M37.152,214.5a2.837,2.837,0,1,0-2.837-2.837A2.838,2.838,0,0,0,37.152,214.5Z" transform="translate(23.588 215.796)"/><path class="c" d="M43.152,214.5a2.837,2.837,0,1,0-2.837-2.837A2.838,2.838,0,0,0,43.152,214.5Z" transform="translate(36.889 215.796)"/><path class="c" d="M49.152,214.5a2.837,2.837,0,1,0-2.837-2.837A2.838,2.838,0,0,0,49.152,214.5Z" transform="translate(50.19 215.796)"/><path class="c" d="M55.152,214.5a2.837,2.837,0,1,0-2.837-2.837A2.838,2.838,0,0,0,55.152,214.5Z" transform="translate(63.491 215.796)"/><path class="c" d="M61.152,214.5a2.837,2.837,0,1,0-2.837-2.837A2.838,2.838,0,0,0,61.152,214.5Z" transform="translate(76.792 215.796)"/><path class="c" d="M67.152,214.5a2.837,2.837,0,1,0-2.837-2.837A2.838,2.838,0,0,0,67.152,214.5Z" transform="translate(90.093 215.796)"/><path class="c" d="M73.152,214.5a2.837,2.837,0,1,0-2.837-2.837A2.838,2.838,0,0,0,73.152,214.5Z" transform="translate(103.394 215.796)"/><path class="c" d="M19.152,220.5a2.837,2.837,0,1,0-2.837-2.837A2.838,2.838,0,0,0,19.152,220.5Z" transform="translate(-16.315 229.097)"/><path class="c" d="M25.152,220.5a2.837,2.837,0,1,0-2.837-2.837A2.838,2.838,0,0,0,25.152,220.5Z" transform="translate(-3.014 229.097)"/><path class="c" d="M31.152,220.5a2.837,2.837,0,1,0-2.837-2.837A2.838,2.838,0,0,0,31.152,220.5Z" transform="translate(10.287 229.097)"/><path class="c" d="M37.152,220.5a2.837,2.837,0,1,0-2.837-2.837A2.838,2.838,0,0,0,37.152,220.5Z" transform="translate(23.588 229.097)"/><path class="c" d="M43.152,220.5a2.837,2.837,0,1,0-2.837-2.837A2.838,2.838,0,0,0,43.152,220.5Z" transform="translate(36.889 229.097)"/><path class="c" d="M49.152,220.5a2.837,2.837,0,1,0-2.837-2.837A2.838,2.838,0,0,0,49.152,220.5Z" transform="translate(50.19 229.097)"/><path class="c" d="M55.152,220.5a2.837,2.837,0,1,0-2.837-2.837A2.838,2.838,0,0,0,55.152,220.5Z" transform="translate(63.491 229.097)"/><path class="c" d="M61.152,220.5a2.837,2.837,0,1,0-2.837-2.837A2.838,2.838,0,0,0,61.152,220.5Z" transform="translate(76.792 229.097)"/><path class="c" d="M67.152,220.5a2.837,2.837,0,1,0-2.837-2.837A2.838,2.838,0,0,0,67.152,220.5Z" transform="translate(90.093 229.097)"/><path class="c" d="M73.152,220.5a2.837,2.837,0,1,0-2.837-2.837A2.838,2.838,0,0,0,73.152,220.5Z" transform="translate(103.394 229.097)"/><path class="c" d="M19.152,226.5a2.837,2.837,0,1,0-2.837-2.837A2.838,2.838,0,0,0,19.152,226.5Z" transform="translate(-16.315 242.398)"/><path class="c" d="M25.152,226.5a2.837,2.837,0,1,0-2.837-2.837A2.838,2.838,0,0,0,25.152,226.5Z" transform="translate(-3.014 242.398)"/><path class="c" d="M31.152,226.5a2.837,2.837,0,1,0-2.837-2.837A2.838,2.838,0,0,0,31.152,226.5Z" transform="translate(10.287 242.398)"/><path class="c" d="M37.152,226.5a2.837,2.837,0,1,0-2.837-2.837A2.838,2.838,0,0,0,37.152,226.5Z" transform="translate(23.588 242.398)"/><path class="c" d="M43.152,226.5a2.837,2.837,0,1,0-2.837-2.837A2.838,2.838,0,0,0,43.152,226.5Z" transform="translate(36.889 242.398)"/><path class="c" d="M49.152,226.5a2.837,2.837,0,1,0-2.837-2.837A2.838,2.838,0,0,0,49.152,226.5Z" transform="translate(50.19 242.398)"/><path class="c" d="M55.152,226.5a2.837,2.837,0,1,0-2.837-2.837A2.838,2.838,0,0,0,55.152,226.5Z" transform="translate(63.491 242.398)"/><path class="c" d="M61.152,226.5a2.837,2.837,0,1,0-2.837-2.837A2.838,2.838,0,0,0,61.152,226.5Z" transform="translate(76.792 242.398)"/><path class="c" d="M67.152,226.5a2.837,2.837,0,1,0-2.837-2.837A2.838,2.838,0,0,0,67.152,226.5Z" transform="translate(90.093 242.398)"/><path class="c" d="M73.152,226.5a2.837,2.837,0,1,0-2.837-2.837A2.838,2.838,0,0,0,73.152,226.5Z" transform="translate(103.394 242.398)"/><path class="c" d="M19.152,232.5a2.837,2.837,0,1,0-2.837-2.837A2.838,2.838,0,0,0,19.152,232.5Z" transform="translate(-16.315 255.699)"/><path class="c" d="M25.152,232.5a2.837,2.837,0,1,0-2.837-2.837A2.838,2.838,0,0,0,25.152,232.5Z" transform="translate(-3.014 255.699)"/><path class="c" d="M31.152,232.5a2.837,2.837,0,1,0-2.837-2.837A2.838,2.838,0,0,0,31.152,232.5Z" transform="translate(10.287 255.699)"/><path class="c" d="M37.152,232.5a2.837,2.837,0,1,0-2.837-2.837A2.838,2.838,0,0,0,37.152,232.5Z" transform="translate(23.588 255.699)"/><path class="c" d="M43.152,232.5a2.837,2.837,0,1,0-2.837-2.837A2.838,2.838,0,0,0,43.152,232.5Z" transform="translate(36.889 255.699)"/><path class="c" d="M49.152,232.5a2.837,2.837,0,1,0-2.837-2.837A2.838,2.838,0,0,0,49.152,232.5Z" transform="translate(50.19 255.699)"/><path class="c" d="M55.152,232.5a2.837,2.837,0,1,0-2.837-2.837A2.838,2.838,0,0,0,55.152,232.5Z" transform="translate(63.491 255.699)"/><path class="c" d="M61.152,232.5a2.837,2.837,0,1,0-2.837-2.837A2.838,2.838,0,0,0,61.152,232.5Z" transform="translate(76.792 255.699)"/><path class="c" d="M67.152,232.5a2.837,2.837,0,1,0-2.837-2.837A2.838,2.838,0,0,0,67.152,232.5Z" transform="translate(90.093 255.699)"/><path class="c" d="M73.152,232.5a2.837,2.837,0,1,0-2.837-2.837A2.838,2.838,0,0,0,73.152,232.5Z" transform="translate(103.394 255.699)"/><path class="c" d="M19.152,238.5a2.837,2.837,0,1,0-2.837-2.837A2.838,2.838,0,0,0,19.152,238.5Z" transform="translate(-16.315 269)"/><path class="c" d="M25.152,238.5a2.837,2.837,0,1,0-2.837-2.837A2.838,2.838,0,0,0,25.152,238.5Z" transform="translate(-3.014 269)"/><path class="c" d="M31.152,238.5a2.837,2.837,0,1,0-2.837-2.837A2.838,2.838,0,0,0,31.152,238.5Z" transform="translate(10.287 269)"/><path class="c" d="M37.152,238.5a2.837,2.837,0,1,0-2.837-2.837A2.838,2.838,0,0,0,37.152,238.5Z" transform="translate(23.588 269)"/><path class="c" d="M43.152,238.5a2.837,2.837,0,1,0-2.837-2.837A2.838,2.838,0,0,0,43.152,238.5Z" transform="translate(36.889 269)"/><path class="c" d="M49.152,238.5a2.837,2.837,0,1,0-2.837-2.837A2.838,2.838,0,0,0,49.152,238.5Z" transform="translate(50.19 269)"/><path class="c" d="M55.152,238.5a2.837,2.837,0,1,0-2.837-2.837A2.838,2.838,0,0,0,55.152,238.5Z" transform="translate(63.491 269)"/><path class="c" d="M61.152,238.5a2.837,2.837,0,1,0-2.837-2.837A2.838,2.838,0,0,0,61.152,238.5Z" transform="translate(76.792 269)"/><path class="c" d="M67.152,238.5a2.837,2.837,0,1,0-2.837-2.837A2.838,2.838,0,0,0,67.152,238.5Z" transform="translate(90.093 269)"/><path class="c" d="M73.152,238.5a2.837,2.837,0,1,0-2.837-2.837A2.838,2.838,0,0,0,73.152,238.5Z" transform="translate(103.394 269)"/><path class="c" d="M19.152,244.5a2.837,2.837,0,1,0-2.837-2.837A2.838,2.838,0,0,0,19.152,244.5Z" transform="translate(-16.315 282.301)"/><path class="c" d="M25.152,244.5a2.837,2.837,0,1,0-2.837-2.837A2.838,2.838,0,0,0,25.152,244.5Z" transform="translate(-3.014 282.301)"/><path class="c" d="M31.152,244.5a2.837,2.837,0,1,0-2.837-2.837A2.838,2.838,0,0,0,31.152,244.5Z" transform="translate(10.287 282.301)"/><path class="c" d="M37.152,244.5a2.837,2.837,0,1,0-2.837-2.837A2.838,2.838,0,0,0,37.152,244.5Z" transform="translate(23.588 282.301)"/><path class="c" d="M43.152,244.5a2.837,2.837,0,1,0-2.837-2.837A2.838,2.838,0,0,0,43.152,244.5Z" transform="translate(36.889 282.301)"/><path class="c" d="M49.152,244.5a2.837,2.837,0,1,0-2.837-2.837A2.838,2.838,0,0,0,49.152,244.5Z" transform="translate(50.19 282.301)"/><path class="c" d="M55.152,244.5a2.837,2.837,0,1,0-2.837-2.837A2.838,2.838,0,0,0,55.152,244.5Z" transform="translate(63.491 282.301)"/><path class="c" d="M61.152,244.5a2.837,2.837,0,1,0-2.837-2.837A2.838,2.838,0,0,0,61.152,244.5Z" transform="translate(76.792 282.301)"/><path class="c" d="M67.152,244.5a2.837,2.837,0,1,0-2.837-2.837A2.838,2.838,0,0,0,67.152,244.5Z" transform="translate(90.093 282.301)"/><path class="c" d="M73.152,244.5a2.837,2.837,0,1,0-2.837-2.837A2.838,2.838,0,0,0,73.152,244.5Z" transform="translate(103.394 282.301)"/><path class="c" d="M19.152,250.5a2.837,2.837,0,1,0-2.837-2.837A2.838,2.838,0,0,0,19.152,250.5Z" transform="translate(-16.315 295.602)"/><path class="c" d="M25.152,250.5a2.837,2.837,0,1,0-2.837-2.837A2.838,2.838,0,0,0,25.152,250.5Z" transform="translate(-3.014 295.602)"/><path class="c" d="M31.152,250.5a2.837,2.837,0,1,0-2.837-2.837A2.838,2.838,0,0,0,31.152,250.5Z" transform="translate(10.287 295.602)"/><path class="c" d="M37.152,250.5a2.837,2.837,0,1,0-2.837-2.837A2.838,2.838,0,0,0,37.152,250.5Z" transform="translate(23.588 295.602)"/><path class="c" d="M43.152,250.5a2.837,2.837,0,1,0-2.837-2.837A2.838,2.838,0,0,0,43.152,250.5Z" transform="translate(36.889 295.602)"/><path class="c" d="M49.152,250.5a2.837,2.837,0,1,0-2.837-2.837A2.838,2.838,0,0,0,49.152,250.5Z" transform="translate(50.19 295.602)"/><path class="c" d="M55.152,250.5a2.837,2.837,0,1,0-2.837-2.837A2.838,2.838,0,0,0,55.152,250.5Z" transform="translate(63.491 295.602)"/><path class="c" d="M61.152,250.5a2.837,2.837,0,1,0-2.837-2.837A2.838,2.838,0,0,0,61.152,250.5Z" transform="translate(76.792 295.602)"/><path class="c" d="M67.152,250.5a2.837,2.837,0,1,0-2.837-2.837A2.838,2.838,0,0,0,67.152,250.5Z" transform="translate(90.093 295.602)"/><path class="c" d="M73.152,250.5a2.837,2.837,0,1,0-2.837-2.837A2.838,2.838,0,0,0,73.152,250.5Z" transform="translate(103.394 295.602)"/></g><g class="b" transform="translate(1802.226 786.236)"><path class="c" d="M434.236,166.218a2.837,2.837,0,1,0-2.834-2.837A2.838,2.838,0,0,0,434.236,166.218Z" transform="translate(-431.402 -160.543)"/><path class="c" d="M440.236,166.218a2.837,2.837,0,1,0-2.834-2.837A2.838,2.838,0,0,0,440.236,166.218Z" transform="translate(-418.101 -160.543)"/><path class="c" d="M446.236,166.218a2.837,2.837,0,1,0-2.834-2.837A2.838,2.838,0,0,0,446.236,166.218Z" transform="translate(-404.8 -160.543)"/><path class="c" d="M452.236,166.218a2.837,2.837,0,1,0-2.834-2.837A2.838,2.838,0,0,0,452.236,166.218Z" transform="translate(-391.499 -160.543)"/><path class="c" d="M458.236,166.218a2.837,2.837,0,1,0-2.834-2.837A2.838,2.838,0,0,0,458.236,166.218Z" transform="translate(-378.198 -160.543)"/><path class="c" d="M464.236,166.218a2.837,2.837,0,1,0-2.834-2.837A2.838,2.838,0,0,0,464.236,166.218Z" transform="translate(-364.897 -160.543)"/><path class="c" d="M434.236,172.218a2.837,2.837,0,1,0-2.834-2.837A2.838,2.838,0,0,0,434.236,172.218Z" transform="translate(-431.402 -147.242)"/><path class="c" d="M440.236,172.218a2.837,2.837,0,1,0-2.834-2.837A2.838,2.838,0,0,0,440.236,172.218Z" transform="translate(-418.101 -147.242)"/><path class="c" d="M446.236,172.218a2.837,2.837,0,1,0-2.834-2.837A2.838,2.838,0,0,0,446.236,172.218Z" transform="translate(-404.8 -147.242)"/><path class="c" d="M452.236,172.218a2.837,2.837,0,1,0-2.834-2.837A2.838,2.838,0,0,0,452.236,172.218Z" transform="translate(-391.499 -147.242)"/><path class="c" d="M458.236,172.218a2.837,2.837,0,1,0-2.834-2.837A2.838,2.838,0,0,0,458.236,172.218Z" transform="translate(-378.198 -147.242)"/><path class="c" d="M464.236,172.218a2.837,2.837,0,1,0-2.834-2.837A2.838,2.838,0,0,0,464.236,172.218Z" transform="translate(-364.897 -147.242)"/><path class="c" d="M434.236,178.218a2.837,2.837,0,1,0-2.834-2.837A2.838,2.838,0,0,0,434.236,178.218Z" transform="translate(-431.402 -133.941)"/><path class="c" d="M440.236,178.218a2.837,2.837,0,1,0-2.834-2.837A2.838,2.838,0,0,0,440.236,178.218Z" transform="translate(-418.101 -133.941)"/><path class="c" d="M446.236,178.218a2.837,2.837,0,1,0-2.834-2.837A2.838,2.838,0,0,0,446.236,178.218Z" transform="translate(-404.8 -133.941)"/><path class="c" d="M452.236,178.218a2.837,2.837,0,1,0-2.834-2.837A2.838,2.838,0,0,0,452.236,178.218Z" transform="translate(-391.499 -133.941)"/><path class="c" d="M458.236,178.218a2.837,2.837,0,1,0-2.834-2.837A2.838,2.838,0,0,0,458.236,178.218Z" transform="translate(-378.198 -133.941)"/><path class="c" d="M464.236,178.218a2.837,2.837,0,1,0-2.834-2.837A2.838,2.838,0,0,0,464.236,178.218Z" transform="translate(-364.897 -133.941)"/><path class="c" d="M434.236,184.218a2.837,2.837,0,1,0-2.834-2.837A2.838,2.838,0,0,0,434.236,184.218Z" transform="translate(-431.402 -120.64)"/><path class="c" d="M440.236,184.218a2.837,2.837,0,1,0-2.834-2.837A2.838,2.838,0,0,0,440.236,184.218Z" transform="translate(-418.101 -120.64)"/><path class="c" d="M446.236,184.218a2.837,2.837,0,1,0-2.834-2.837A2.838,2.838,0,0,0,446.236,184.218Z" transform="translate(-404.8 -120.64)"/><path class="c" d="M452.236,184.218a2.837,2.837,0,1,0-2.834-2.837A2.838,2.838,0,0,0,452.236,184.218Z" transform="translate(-391.499 -120.64)"/><path class="c" d="M458.236,184.218a2.837,2.837,0,1,0-2.834-2.837A2.838,2.838,0,0,0,458.236,184.218Z" transform="translate(-378.198 -120.64)"/><path class="c" d="M464.236,184.218a2.837,2.837,0,1,0-2.834-2.837A2.838,2.838,0,0,0,464.236,184.218Z" transform="translate(-364.897 -120.64)"/><path class="c" d="M434.236,190.218a2.837,2.837,0,1,0-2.834-2.837A2.838,2.838,0,0,0,434.236,190.218Z" transform="translate(-431.402 -107.339)"/><path class="c" d="M440.236,190.218a2.837,2.837,0,1,0-2.834-2.837A2.838,2.838,0,0,0,440.236,190.218Z" transform="translate(-418.101 -107.339)"/><path class="c" d="M446.236,190.218a2.837,2.837,0,1,0-2.834-2.837A2.838,2.838,0,0,0,446.236,190.218Z" transform="translate(-404.8 -107.339)"/><path class="c" d="M452.236,190.218a2.837,2.837,0,1,0-2.834-2.837A2.838,2.838,0,0,0,452.236,190.218Z" transform="translate(-391.499 -107.339)"/><path class="c" d="M458.236,190.218a2.837,2.837,0,1,0-2.834-2.837A2.838,2.838,0,0,0,458.236,190.218Z" transform="translate(-378.198 -107.339)"/><path class="c" d="M464.236,190.218a2.837,2.837,0,1,0-2.834-2.837A2.838,2.838,0,0,0,464.236,190.218Z" transform="translate(-364.897 -107.339)"/><path class="c" d="M434.236,196.218a2.837,2.837,0,1,0-2.834-2.837A2.838,2.838,0,0,0,434.236,196.218Z" transform="translate(-431.402 -94.038)"/><path class="c" d="M440.236,196.218a2.837,2.837,0,1,0-2.834-2.837A2.838,2.838,0,0,0,440.236,196.218Z" transform="translate(-418.101 -94.038)"/><path class="c" d="M446.236,196.218a2.837,2.837,0,1,0-2.834-2.837A2.838,2.838,0,0,0,446.236,196.218Z" transform="translate(-404.8 -94.038)"/><path class="c" d="M452.236,196.218a2.837,2.837,0,1,0-2.834-2.837A2.838,2.838,0,0,0,452.236,196.218Z" transform="translate(-391.499 -94.038)"/><path class="c" d="M458.236,196.218a2.837,2.837,0,1,0-2.834-2.837A2.838,2.838,0,0,0,458.236,196.218Z" transform="translate(-378.198 -94.038)"/><path class="c" d="M464.236,196.218a2.837,2.837,0,1,0-2.834-2.837A2.838,2.838,0,0,0,464.236,196.218Z" transform="translate(-364.897 -94.038)"/><path class="c" d="M434.236,202.218a2.837,2.837,0,1,0-2.834-2.837A2.838,2.838,0,0,0,434.236,202.218Z" transform="translate(-431.402 -80.737)"/><path class="c" d="M440.236,202.218a2.837,2.837,0,1,0-2.834-2.837A2.838,2.838,0,0,0,440.236,202.218Z" transform="translate(-418.101 -80.737)"/><path class="c" d="M446.236,202.218a2.837,2.837,0,1,0-2.834-2.837A2.838,2.838,0,0,0,446.236,202.218Z" transform="translate(-404.8 -80.737)"/><path class="c" d="M452.236,202.218a2.837,2.837,0,1,0-2.834-2.837A2.838,2.838,0,0,0,452.236,202.218Z" transform="translate(-391.499 -80.737)"/><path class="c" d="M458.236,202.218a2.837,2.837,0,1,0-2.834-2.837A2.838,2.838,0,0,0,458.236,202.218Z" transform="translate(-378.198 -80.737)"/><path class="c" d="M464.236,202.218a2.837,2.837,0,1,0-2.834-2.837A2.838,2.838,0,0,0,464.236,202.218Z" transform="translate(-364.897 -80.737)"/><path class="c" d="M434.236,208.218a2.837,2.837,0,1,0-2.834-2.837A2.838,2.838,0,0,0,434.236,208.218Z" transform="translate(-431.402 -67.436)"/><path class="c" d="M440.236,208.218a2.837,2.837,0,1,0-2.834-2.837A2.838,2.838,0,0,0,440.236,208.218Z" transform="translate(-418.101 -67.436)"/><path class="c" d="M446.236,208.218a2.837,2.837,0,1,0-2.834-2.837A2.838,2.838,0,0,0,446.236,208.218Z" transform="translate(-404.8 -67.436)"/><path class="c" d="M452.236,208.218a2.837,2.837,0,1,0-2.834-2.837A2.838,2.838,0,0,0,452.236,208.218Z" transform="translate(-391.499 -67.436)"/><path class="c" d="M458.236,208.218a2.837,2.837,0,1,0-2.834-2.837A2.838,2.838,0,0,0,458.236,208.218Z" transform="translate(-378.198 -67.436)"/><path class="c" d="M464.236,208.218a2.837,2.837,0,1,0-2.834-2.837A2.838,2.838,0,0,0,464.236,208.218Z" transform="translate(-364.897 -67.436)"/><path class="c" d="M434.236,214.218a2.837,2.837,0,1,0-2.834-2.837A2.838,2.838,0,0,0,434.236,214.218Z" transform="translate(-431.402 -54.135)"/><path class="c" d="M440.236,214.218a2.837,2.837,0,1,0-2.834-2.837A2.838,2.838,0,0,0,440.236,214.218Z" transform="translate(-418.101 -54.135)"/><path class="c" d="M446.236,214.218a2.837,2.837,0,1,0-2.834-2.837A2.838,2.838,0,0,0,446.236,214.218Z" transform="translate(-404.8 -54.135)"/><path class="c" d="M452.236,214.218a2.837,2.837,0,1,0-2.834-2.837A2.838,2.838,0,0,0,452.236,214.218Z" transform="translate(-391.499 -54.135)"/><path class="c" d="M458.236,214.218a2.837,2.837,0,1,0-2.834-2.837A2.838,2.838,0,0,0,458.236,214.218Z" transform="translate(-378.198 -54.135)"/><path class="c" d="M464.236,214.218a2.837,2.837,0,1,0-2.834-2.837A2.838,2.838,0,0,0,464.236,214.218Z" transform="translate(-364.897 -54.135)"/><path class="c" d="M434.236,220.218a2.837,2.837,0,1,0-2.834-2.837A2.838,2.838,0,0,0,434.236,220.218Z" transform="translate(-431.402 -40.834)"/><path class="c" d="M440.236,220.218a2.837,2.837,0,1,0-2.834-2.837A2.838,2.838,0,0,0,440.236,220.218Z" transform="translate(-418.101 -40.834)"/><path class="c" d="M446.236,220.218a2.837,2.837,0,1,0-2.834-2.837A2.838,2.838,0,0,0,446.236,220.218Z" transform="translate(-404.8 -40.834)"/><path class="c" d="M452.236,220.218a2.837,2.837,0,1,0-2.834-2.837A2.838,2.838,0,0,0,452.236,220.218Z" transform="translate(-391.499 -40.834)"/><path class="c" d="M458.236,220.218a2.837,2.837,0,1,0-2.834-2.837A2.838,2.838,0,0,0,458.236,220.218Z" transform="translate(-378.198 -40.834)"/><path class="c" d="M464.236,220.218a2.837,2.837,0,1,0-2.834-2.837A2.838,2.838,0,0,0,464.236,220.218Z" transform="translate(-364.897 -40.834)"/><path class="c" d="M434.236,226.218a2.837,2.837,0,1,0-2.834-2.837A2.838,2.838,0,0,0,434.236,226.218Z" transform="translate(-431.402 -27.533)"/><path class="c" d="M440.236,226.218a2.837,2.837,0,1,0-2.834-2.837A2.838,2.838,0,0,0,440.236,226.218Z" transform="translate(-418.101 -27.533)"/><path class="c" d="M446.236,226.218a2.837,2.837,0,1,0-2.834-2.837A2.838,2.838,0,0,0,446.236,226.218Z" transform="translate(-404.8 -27.533)"/><path class="c" d="M452.236,226.218a2.837,2.837,0,1,0-2.834-2.837A2.838,2.838,0,0,0,452.236,226.218Z" transform="translate(-391.499 -27.533)"/><path class="c" d="M458.236,226.218a2.837,2.837,0,1,0-2.834-2.837A2.838,2.838,0,0,0,458.236,226.218Z" transform="translate(-378.198 -27.533)"/><path class="c" d="M464.236,226.218a2.837,2.837,0,1,0-2.834-2.837A2.838,2.838,0,0,0,464.236,226.218Z" transform="translate(-364.897 -27.533)"/><path class="c" d="M434.236,232.218a2.837,2.837,0,1,0-2.834-2.837A2.838,2.838,0,0,0,434.236,232.218Z" transform="translate(-431.402 -14.232)"/><path class="c" d="M440.236,232.218a2.837,2.837,0,1,0-2.834-2.837A2.838,2.838,0,0,0,440.236,232.218Z" transform="translate(-418.101 -14.232)"/><path class="c" d="M446.236,232.218a2.837,2.837,0,1,0-2.834-2.837A2.838,2.838,0,0,0,446.236,232.218Z" transform="translate(-404.8 -14.232)"/><path class="c" d="M452.236,232.218a2.837,2.837,0,1,0-2.834-2.837A2.838,2.838,0,0,0,452.236,232.218Z" transform="translate(-391.499 -14.232)"/><path class="c" d="M458.236,232.218a2.837,2.837,0,1,0-2.834-2.837A2.838,2.838,0,0,0,458.236,232.218Z" transform="translate(-378.198 -14.232)"/><path class="c" d="M464.236,232.218a2.837,2.837,0,1,0-2.834-2.837A2.838,2.838,0,0,0,464.236,232.218Z" transform="translate(-364.897 -14.232)"/><path class="c" d="M434.236,238.218a2.837,2.837,0,1,0-2.834-2.837A2.838,2.838,0,0,0,434.236,238.218Z" transform="translate(-431.402 -0.931)"/><path class="c" d="M440.236,238.218a2.837,2.837,0,1,0-2.834-2.837A2.838,2.838,0,0,0,440.236,238.218Z" transform="translate(-418.101 -0.931)"/><path class="c" d="M446.236,238.218a2.837,2.837,0,1,0-2.834-2.837A2.838,2.838,0,0,0,446.236,238.218Z" transform="translate(-404.8 -0.931)"/><path class="c" d="M452.236,238.218a2.837,2.837,0,1,0-2.834-2.837A2.838,2.838,0,0,0,452.236,238.218Z" transform="translate(-391.499 -0.931)"/><path class="c" d="M458.236,238.218a2.837,2.837,0,1,0-2.834-2.837A2.838,2.838,0,0,0,458.236,238.218Z" transform="translate(-378.198 -0.931)"/><path class="c" d="M464.236,238.218a2.837,2.837,0,1,0-2.834-2.837A2.838,2.838,0,0,0,464.236,238.218Z" transform="translate(-364.897 -0.931)"/><path class="c" d="M434.236,244.218a2.837,2.837,0,1,0-2.834-2.837A2.838,2.838,0,0,0,434.236,244.218Z" transform="translate(-431.402 12.37)"/><path class="c" d="M440.236,244.218a2.837,2.837,0,1,0-2.834-2.837A2.838,2.838,0,0,0,440.236,244.218Z" transform="translate(-418.101 12.37)"/><path class="c" d="M446.236,244.218a2.837,2.837,0,1,0-2.834-2.837A2.838,2.838,0,0,0,446.236,244.218Z" transform="translate(-404.8 12.37)"/><path class="c" d="M452.236,244.218a2.837,2.837,0,1,0-2.834-2.837A2.838,2.838,0,0,0,452.236,244.218Z" transform="translate(-391.499 12.37)"/><path class="c" d="M458.236,244.218a2.837,2.837,0,1,0-2.834-2.837A2.838,2.838,0,0,0,458.236,244.218Z" transform="translate(-378.198 12.37)"/><path class="c" d="M464.236,244.218a2.837,2.837,0,1,0-2.834-2.837A2.838,2.838,0,0,0,464.236,244.218Z" transform="translate(-364.897 12.37)"/><path class="c" d="M434.236,250.218a2.837,2.837,0,1,0-2.834-2.837A2.838,2.838,0,0,0,434.236,250.218Z" transform="translate(-431.402 25.671)"/><path class="c" d="M440.236,250.218a2.837,2.837,0,1,0-2.834-2.837A2.838,2.838,0,0,0,440.236,250.218Z" transform="translate(-418.101 25.671)"/><path class="c" d="M446.236,250.218a2.837,2.837,0,1,0-2.834-2.837A2.838,2.838,0,0,0,446.236,250.218Z" transform="translate(-404.8 25.671)"/><path class="c" d="M452.236,250.218a2.837,2.837,0,1,0-2.834-2.837A2.838,2.838,0,0,0,452.236,250.218Z" transform="translate(-391.499 25.671)"/><path class="c" d="M458.236,250.218a2.837,2.837,0,1,0-2.834-2.837A2.838,2.838,0,0,0,458.236,250.218Z" transform="translate(-378.198 25.671)"/><path class="c" d="M464.236,250.218a2.837,2.837,0,1,0-2.834-2.837A2.838,2.838,0,0,0,464.236,250.218Z" transform="translate(-364.897 25.671)"/></g></g></svg>