<?xml version="1.0" encoding="utf-8"?>
<!-- Generator: Adobe Illustrator 24.2.1, SVG Export Plug-In . SVG Version: 6.00 Build 0)  -->
<svg version="1.1" xmlns="http://www.w3.org/2000/svg" xmlns:xlink="http://www.w3.org/1999/xlink" x="0px" y="0px"
	 viewBox="0 0 1920 1080" style="enable-background:new 0 0 1920 1080;" xml:space="preserve">
<style type="text/css">
	.st0{display:none;}
	.st1{display:inline;}
	.st2{fill:url(#SVGID_1_);}
	.st3{display:inline;filter:url(#Adobe_OpacityMaskFilter);}
	.st4{fill:#0031FF;}
	.st5{fill:#FFFFFF;}
	.st6{display:inline;mask:url(#SVGID_2_);}
	.st7{fill:url(#SVGID_3_);}
	.st8{fill:#083C8D;}
	.st9{fill:#52FFFF;}
	.st10{fill:#1E92F9;}
</style>
<g id="Layer_1" class="st0">
	<g class="st1">
		<linearGradient id="SVGID_1_" gradientUnits="userSpaceOnUse" x1="956" y1="0.5" x2="956" y2="1079.5">
			<stop  offset="0" style="stop-color:#39A2FF"/>
			<stop  offset="1" style="stop-color:#083C8D"/>
		</linearGradient>
		<rect x="-3.5" y="0.5" class="st2" width="1919" height="1079"/>
		<path d="M1915,1v1078H-3V1H1915 M1916,0H-4v1080h1920V0L1916,0z"/>
	</g>
</g>
<g id="Layer_3" class="st0">
	<defs>
		<filter id="Adobe_OpacityMaskFilter" filterUnits="userSpaceOnUse" x="0" y="4" width="1920" height="1080">
			<feColorMatrix  type="matrix" values="1 0 0 0 0  0 1 0 0 0  0 0 1 0 0  0 0 0 1 0"/>
		</filter>
	</defs>
	<mask maskUnits="userSpaceOnUse" x="0" y="4" width="1920" height="1080" id="SVGID_2_" class="st1">
		<g style="filter:url(#Adobe_OpacityMaskFilter);">
			<g>
				<g>
					<g>
						<g>
							<path class="st4" d="M562.65,39.93c90.23-10.47,184,6.67,285.63,52.06c67.73,30.25,146.07,87.84,236.79,154.54
								c133.74,98.33,285.33,209.78,451.24,268.36c165.14,58.31,283.19,22.83,353.14-17.19c75.82-43.39,113.07-101.33,113.44-101.91
								l1.75,1.11c-0.37,0.58-37.84,58.89-114.07,102.55c-44.77,25.63-93.95,41.24-146.19,46.52
								c-65.27,6.54-135.5-3.26-208.75-29.12c-166.2-58.68-317.92-170.23-451.78-268.64c-90.62-66.62-168.88-124.16-236.4-154.32
								C595.51-18.65,445.72,62.58,300.86,141.13c-104.69,56.78-203.58,110.41-331.1,77.68l0.52-2
								c126.72,32.52,225.27-20.92,329.6-77.5c71.14-38.58,144.7-78.47,232.49-94.82C542.41,42.63,552.52,41.1,562.65,39.93z"/>
						</g>
						<g>
							<path class="st4" d="M649.07,29.14c63.17-7.33,133.22-0.98,213.54,26.6c88.51,30.39,186.17,100.21,289.57,174.13
								c113.5,81.15,242.14,173.12,385.45,233.08c165.01,69.53,281,41.82,349.25,6.33c73.95-38.46,109.37-94.08,109.71-94.64
								l1.75,1.1c-0.35,0.56-36,56.6-110.42,95.33c-43.7,22.74-92.03,35.17-143.64,36.93c-64.47,2.21-134.27-12.31-207.46-43.15
								c-143.53-60.05-272.27-152.09-385.85-233.3C1047.7,157.72,950.16,87.98,861.93,57.69
								C632.63-21.03,487.15,74.04,346.46,165.98c-123.4,80.64-239.95,156.81-404.58,113.64l0.52-2
								c163.74,42.94,279.92-32.99,402.92-113.37C437.22,104.2,531.14,42.82,649.07,29.14z"/>
						</g>
						<g>
							<path class="st4" d="M726.23,8.68c46.35-5.38,96.19-2.75,150.7,10.82c112.19,27.91,217.34,102.7,339.09,189.3
								c99,70.41,201.36,143.23,322.92,202.21c164.9,80.74,278.83,60.8,345.37,29.86c72.09-33.53,105.66-86.83,105.99-87.37
								l1.76,1.09c-0.33,0.54-34.16,54.3-106.77,88.11c-42.63,19.85-90.1,29.04-141.08,27.34c-63.67-2.13-133.04-21.36-206.17-57.17
								c-121.71-59.05-228.76-135.2-323.21-202.38C1093.24,124.01,988.24,49.32,876.43,21.5
								C668.36-30.27,527.96,78.15,392.19,183.01c-67.48,52.11-137.25,106-214.08,138.87c-86.16,36.86-172.54,42.93-264.1,18.54
								l0.53-2c203.02,54.06,341.98-53.26,476.38-157.05C491.58,103.64,594.81,23.94,726.23,8.68z"/>
						</g>
						<g>
							<path class="st4" d="M791.57-19.16c32.82-3.81,65.94-2.98,99.68,2.42c137.84,22.08,250.98,104.27,382,199.43
								c81.3,59.06,165.37,120.13,267,176.38c164.78,91.95,276.65,79.78,341.49,53.38c70.22-28.6,101.95-79.59,102.26-80.1
								l1.76,1.08c-0.31,0.52-32.32,52.01-103.13,80.89c-41.56,16.95-88.17,22.92-138.52,17.75
								c-62.87-6.46-131.8-30.41-204.87-71.19c-101.73-56.31-185.86-117.42-267.21-176.51C1141.24,89.36,1028.28,7.31,890.93-14.7
								C702.19-44.93,573.46,70.58,437.17,192.86C286.8,327.78,131.32,467.29-113.86,401.22l0.54-2
								c244.09,65.77,399.16-73.35,549.11-207.9C501.42,132.45,569.27,71.56,642.61,30.8C692.21,3.24,741.53-13.35,791.57-19.16z"/>
						</g>
						<g>
							<path class="st4" d="M845.34-51.8c19.44-2.26,39.47-2.72,60.24-1.16c163.61,12.29,274.41,96.62,414.7,203.38
								c63.89,48.63,136.31,103.74,221.28,156.72c121.71,76.25,228.15,104.19,316.38,83.09c83.44-19.97,119.41-78.43,119.76-79.02
								l1.77,1.06c-0.36,0.6-36.71,59.76-121,79.95c-88.79,21.27-195.79-6.76-318.02-83.33
								c-85.05-53.03-157.51-108.18-221.44-156.83C1179.01,45.51,1068.43-38.65,905.43-50.9C733.87-63.78,610.88,62.6,480.66,196.42
								c-81.07,83.32-164.91,169.47-264.17,224.76c-112.23,62.52-229.41,75.88-358.22,40.85l0.54-1.99
								c286.6,77.93,456.28-96.43,620.37-265.06C594.02,76.96,703.29-35.31,845.34-51.8z"/>
						</g>
						<g>
							<path class="st4" d="M890.78-87.37c9.57-1.11,19.26-1.72,29.13-1.8c187.41-1.55,291.39,83.1,435.3,200.26
								c53.91,43.88,115.01,93.63,187.65,144.13c126.15,87.69,234.54,122.44,322.16,103.31c74.88-16.36,106.08-67.93,106.38-68.45
								l1.78,1.05c-0.31,0.53-31.97,52.87-107.72,69.42c-88.21,19.26-197.14-15.6-323.79-103.64
								c-72.71-50.54-133.84-100.31-187.78-144.22C1210.33-4.2,1106.59-88.65,919.93-87.11c-156.7,1.29-273.88,137.56-397.91,281.83
								c-86.57,100.69-176.09,204.8-286,273.14c-124.77,77.58-257.46,95.56-405.62,54.97l0.54-1.99
								c330.19,90.45,521.08-131.58,689.5-327.47C637.01,57.79,747.55-70.74,890.78-87.37z"/>
						</g>
					</g>
					<g>
						<path class="st5" d="M1309.34,1295.53l-1.84-0.49c20.53-77.37,63.85-148.57,125.28-205.91
							c61.43-57.34,135.44-95.66,214.03-110.82c31.27-6.03,63.58-8.66,94.83-11.2c36.1-2.94,73.42-5.98,109.21-14.28
							c78.97-18.32,136.21-63.63,153.11-121.19c26.54-90.39-51.04-177.29-85.62-210.45c-13.77-13.2-28.47-26.2-42.68-38.78
							c-45.64-40.37-92.83-82.12-117.97-137.92c-16.56-36.74-23.06-78.58-29.36-119.04c-9.72-62.48-18.9-121.5-61.85-163.44
							c-49.13-47.96-125.06-52.73-185.7-51.53c-70.55,1.4-142.05,9.15-211.19,16.64c-91.37,9.91-185.85,20.14-279.13,15.82
							c-87.52-4.06-170.92-23.68-241.18-56.73c-80.77-38-140.65-91.45-178-158.88l1.67-0.92c69.49,125.49,225.6,205.73,417.6,214.63
							c93.13,4.31,187.54-5.91,278.83-15.81c69.19-7.5,140.73-15.25,211.36-16.65c61.01-1.21,137.44,3.62,187.07,52.08
							c43.4,42.38,52.63,101.7,62.4,164.5c6.27,40.34,12.76,82.05,29.21,118.56c24.97,55.43,72.01,97.04,117.5,137.28
							c14.23,12.59,28.95,25.6,42.74,38.83c34.84,33.41,112.96,120.97,86.13,212.36c-17.1,58.23-74.86,104.03-154.51,122.51
							c-35.93,8.33-73.32,11.38-109.49,14.32c-31.2,2.54-63.45,5.17-94.62,11.18C1486.95,1011.08,1351.19,1137.81,1309.34,1295.53z"
							/>
					</g>
				</g>
				<g>
					<path class="st5" d="M1539.68,250.58l-26.45-26.45l26.45-26.45l26.45,26.45L1539.68,250.58z M1517.27,224.12l22.41,22.41
						l22.41-22.41l-22.41-22.41L1517.27,224.12z"/>
				</g>
				<g>
					<path class="st5" d="M1522.41,864.55l-87.54-87.54l87.54-87.54l87.54,87.54L1522.41,864.55z M1438.91,777.01l83.5,83.5
						l83.5-83.5l-83.5-83.5L1438.91,777.01z"/>
				</g>
				<g>
					<path class="st5" d="M261.12,219.6l-38.67-38.67l38.67-38.67l38.67,38.67L261.12,219.6z M226.49,180.93l34.63,34.63
						l34.63-34.63l-34.63-34.63L226.49,180.93z"/>
				</g>
				<g>
					<rect x="1712.46" y="490.5" class="st5" width="77.75" height="2.86"/>
				</g>
				<g>
					<circle class="st5" cx="115.88" cy="938.63" r="1.33"/>
					<circle class="st5" cx="138.74" cy="938.63" r="1.33"/>
					<circle class="st5" cx="161.6" cy="938.63" r="1.33"/>
					<circle class="st5" cx="184.45" cy="938.63" r="1.33"/>
					<circle class="st5" cx="207.31" cy="938.63" r="1.33"/>
					<circle class="st5" cx="230.17" cy="938.63" r="1.33"/>
					<circle class="st5" cx="253.02" cy="938.63" r="1.33"/>
					<circle class="st5" cx="275.88" cy="938.63" r="1.33"/>
					<circle class="st5" cx="298.74" cy="938.63" r="1.33"/>
					<circle class="st5" cx="321.6" cy="938.63" r="1.33"/>
					<circle class="st5" cx="344.45" cy="938.63" r="1.33"/>
					<circle class="st5" cx="367.31" cy="938.63" r="1.33"/>
					<circle class="st5" cx="390.17" cy="938.63" r="1.33"/>
					<circle class="st5" cx="413.02" cy="938.63" r="1.33"/>
					<circle class="st5" cx="435.88" cy="938.63" r="1.33"/>
					<circle class="st5" cx="458.74" cy="938.63" r="1.33"/>
					<circle class="st5" cx="481.6" cy="938.63" r="1.33"/>
					<circle class="st5" cx="504.45" cy="938.63" r="1.33"/>
					<circle class="st5" cx="527.31" cy="938.63" r="1.33"/>
					<circle class="st5" cx="550.17" cy="938.63" r="1.33"/>
					<circle class="st5" cx="573.02" cy="938.63" r="1.33"/>
					<circle class="st5" cx="595.88" cy="938.63" r="1.33"/>
					<circle class="st5" cx="618.74" cy="938.63" r="1.33"/>
					<circle class="st5" cx="641.6" cy="938.63" r="1.33"/>
					<circle class="st5" cx="664.45" cy="938.63" r="1.33"/>
					<circle class="st5" cx="687.31" cy="938.63" r="1.33"/>
					<circle class="st5" cx="710.17" cy="938.63" r="1.33"/>
					<circle class="st5" cx="733.02" cy="938.63" r="1.33"/>
					<circle class="st5" cx="755.88" cy="938.63" r="1.33"/>
					<circle class="st5" cx="778.74" cy="938.63" r="1.33"/>
					<circle class="st5" cx="801.6" cy="938.63" r="1.33"/>
					<circle class="st5" cx="824.45" cy="938.63" r="1.33"/>
					<circle class="st5" cx="847.31" cy="938.63" r="1.33"/>
					<circle class="st5" cx="870.17" cy="938.63" r="1.33"/>
					<circle class="st5" cx="893.02" cy="938.63" r="1.33"/>
					<circle class="st5" cx="915.88" cy="938.63" r="1.33"/>
					<circle class="st5" cx="938.74" cy="938.63" r="1.33"/>
					<circle class="st5" cx="961.6" cy="938.63" r="1.33"/>
					<circle class="st5" cx="984.45" cy="938.63" r="1.33"/>
					<circle class="st5" cx="1007.31" cy="938.63" r="1.33"/>
					<circle class="st5" cx="1030.17" cy="938.63" r="1.33"/>
					<circle class="st5" cx="1053.03" cy="938.63" r="1.33"/>
					<circle class="st5" cx="1075.88" cy="938.63" r="1.33"/>
					<circle class="st5" cx="115.88" cy="961.49" r="1.33"/>
					<circle class="st5" cx="138.74" cy="961.49" r="1.33"/>
					<circle class="st5" cx="161.6" cy="961.49" r="1.33"/>
					<circle class="st5" cx="184.45" cy="961.49" r="1.33"/>
					<circle class="st5" cx="207.31" cy="961.49" r="1.33"/>
					<circle class="st5" cx="230.17" cy="961.49" r="1.33"/>
					<circle class="st5" cx="253.02" cy="961.49" r="1.33"/>
					<circle class="st5" cx="275.88" cy="961.49" r="1.33"/>
					<circle class="st5" cx="298.74" cy="961.49" r="1.33"/>
					<circle class="st5" cx="321.6" cy="961.49" r="1.33"/>
					<circle class="st5" cx="344.45" cy="961.49" r="1.33"/>
					<circle class="st5" cx="367.31" cy="961.49" r="1.33"/>
					<circle class="st5" cx="390.17" cy="961.49" r="1.33"/>
					<circle class="st5" cx="413.02" cy="961.49" r="1.33"/>
					<circle class="st5" cx="435.88" cy="961.49" r="1.33"/>
					<circle class="st5" cx="458.74" cy="961.49" r="1.33"/>
					<circle class="st5" cx="481.6" cy="961.49" r="1.33"/>
					<circle class="st5" cx="504.45" cy="961.49" r="1.33"/>
					<circle class="st5" cx="527.31" cy="961.49" r="1.33"/>
					<circle class="st5" cx="550.17" cy="961.49" r="1.33"/>
					<circle class="st5" cx="573.02" cy="961.49" r="1.33"/>
					<circle class="st5" cx="595.88" cy="961.49" r="1.33"/>
					<circle class="st5" cx="618.74" cy="961.49" r="1.33"/>
					<circle class="st5" cx="641.6" cy="961.49" r="1.33"/>
					<circle class="st5" cx="664.45" cy="961.49" r="1.33"/>
					<circle class="st5" cx="687.31" cy="961.49" r="1.33"/>
					<circle class="st5" cx="710.17" cy="961.49" r="1.33"/>
					<circle class="st5" cx="733.02" cy="961.49" r="1.33"/>
					<circle class="st5" cx="755.88" cy="961.49" r="1.33"/>
					<circle class="st5" cx="778.74" cy="961.49" r="1.33"/>
					<circle class="st5" cx="801.6" cy="961.49" r="1.33"/>
					<circle class="st5" cx="824.45" cy="961.49" r="1.33"/>
					<circle class="st5" cx="847.31" cy="961.49" r="1.33"/>
					<circle class="st5" cx="870.17" cy="961.49" r="1.33"/>
					<circle class="st5" cx="893.02" cy="961.49" r="1.33"/>
					<circle class="st5" cx="915.88" cy="961.49" r="1.33"/>
					<circle class="st5" cx="938.74" cy="961.49" r="1.33"/>
					<circle class="st5" cx="961.6" cy="961.49" r="1.33"/>
					<circle class="st5" cx="984.45" cy="961.49" r="1.33"/>
					<circle class="st5" cx="1007.31" cy="961.49" r="1.33"/>
					<circle class="st5" cx="1030.17" cy="961.49" r="1.33"/>
					<circle class="st5" cx="1053.03" cy="961.49" r="1.33"/>
					<circle class="st5" cx="1075.88" cy="961.49" r="1.33"/>
					<circle class="st5" cx="115.88" cy="984.35" r="1.33"/>
					<circle class="st5" cx="138.74" cy="984.35" r="1.33"/>
					<circle class="st5" cx="161.6" cy="984.35" r="1.33"/>
					<circle class="st5" cx="184.45" cy="984.35" r="1.33"/>
					<circle class="st5" cx="207.31" cy="984.35" r="1.33"/>
					<circle class="st5" cx="230.17" cy="984.35" r="1.33"/>
					<circle class="st5" cx="253.02" cy="984.35" r="1.33"/>
					<circle class="st5" cx="275.88" cy="984.35" r="1.33"/>
					<circle class="st5" cx="298.74" cy="984.35" r="1.33"/>
					<circle class="st5" cx="321.6" cy="984.35" r="1.33"/>
					<circle class="st5" cx="344.45" cy="984.35" r="1.33"/>
					<circle class="st5" cx="367.31" cy="984.35" r="1.33"/>
					<circle class="st5" cx="390.17" cy="984.35" r="1.33"/>
					<circle class="st5" cx="413.02" cy="984.35" r="1.33"/>
					<circle class="st5" cx="435.88" cy="984.35" r="1.33"/>
					<circle class="st5" cx="458.74" cy="984.35" r="1.33"/>
					<circle class="st5" cx="481.6" cy="984.35" r="1.33"/>
					<circle class="st5" cx="504.45" cy="984.35" r="1.33"/>
					<circle class="st5" cx="527.31" cy="984.35" r="1.33"/>
					<circle class="st5" cx="550.17" cy="984.35" r="1.33"/>
					<circle class="st5" cx="573.02" cy="984.35" r="1.33"/>
					<circle class="st5" cx="595.88" cy="984.35" r="1.33"/>
					<circle class="st5" cx="618.74" cy="984.35" r="1.33"/>
					<circle class="st5" cx="641.6" cy="984.35" r="1.33"/>
					<circle class="st5" cx="664.45" cy="984.35" r="1.33"/>
					<circle class="st5" cx="687.31" cy="984.35" r="1.33"/>
					<circle class="st5" cx="710.17" cy="984.35" r="1.33"/>
					<circle class="st5" cx="733.02" cy="984.35" r="1.33"/>
					<circle class="st5" cx="755.88" cy="984.35" r="1.33"/>
					<circle class="st5" cx="778.74" cy="984.35" r="1.33"/>
					<circle class="st5" cx="801.6" cy="984.35" r="1.33"/>
					<circle class="st5" cx="824.45" cy="984.35" r="1.33"/>
					<circle class="st5" cx="847.31" cy="984.35" r="1.33"/>
					<circle class="st5" cx="870.17" cy="984.35" r="1.33"/>
					<circle class="st5" cx="893.02" cy="984.35" r="1.33"/>
					<circle class="st5" cx="915.88" cy="984.35" r="1.33"/>
					<circle class="st5" cx="938.74" cy="984.35" r="1.33"/>
					<circle class="st5" cx="961.6" cy="984.35" r="1.33"/>
					<circle class="st5" cx="984.45" cy="984.35" r="1.33"/>
					<circle class="st5" cx="1007.31" cy="984.35" r="1.33"/>
					<circle class="st5" cx="1030.17" cy="984.35" r="1.33"/>
					<circle class="st5" cx="1053.03" cy="984.35" r="1.33"/>
					<circle class="st5" cx="1075.88" cy="984.35" r="1.33"/>
					<circle class="st5" cx="115.88" cy="1007.2" r="1.33"/>
					<circle class="st5" cx="138.74" cy="1007.2" r="1.33"/>
					<circle class="st5" cx="161.6" cy="1007.2" r="1.33"/>
					<circle class="st5" cx="184.45" cy="1007.2" r="1.33"/>
					<circle class="st5" cx="207.31" cy="1007.2" r="1.33"/>
					<circle class="st5" cx="230.17" cy="1007.2" r="1.33"/>
					<circle class="st5" cx="253.02" cy="1007.2" r="1.33"/>
					<circle class="st5" cx="275.88" cy="1007.2" r="1.33"/>
					<circle class="st5" cx="298.74" cy="1007.2" r="1.33"/>
					<circle class="st5" cx="321.6" cy="1007.2" r="1.33"/>
					<circle class="st5" cx="344.45" cy="1007.2" r="1.33"/>
					<circle class="st5" cx="367.31" cy="1007.2" r="1.33"/>
					<circle class="st5" cx="390.17" cy="1007.2" r="1.33"/>
					<circle class="st5" cx="413.02" cy="1007.2" r="1.33"/>
					<circle class="st5" cx="435.88" cy="1007.2" r="1.33"/>
					<circle class="st5" cx="458.74" cy="1007.2" r="1.33"/>
					<circle class="st5" cx="481.6" cy="1007.2" r="1.33"/>
					<circle class="st5" cx="504.45" cy="1007.2" r="1.33"/>
					<circle class="st5" cx="527.31" cy="1007.2" r="1.33"/>
					<circle class="st5" cx="550.17" cy="1007.2" r="1.33"/>
					<circle class="st5" cx="573.02" cy="1007.2" r="1.33"/>
					<circle class="st5" cx="595.88" cy="1007.2" r="1.33"/>
					<circle class="st5" cx="618.74" cy="1007.2" r="1.33"/>
					<circle class="st5" cx="641.6" cy="1007.2" r="1.33"/>
					<circle class="st5" cx="664.45" cy="1007.2" r="1.33"/>
					<circle class="st5" cx="687.31" cy="1007.2" r="1.33"/>
					<circle class="st5" cx="710.17" cy="1007.2" r="1.33"/>
					<circle class="st5" cx="733.02" cy="1007.2" r="1.33"/>
					<circle class="st5" cx="755.88" cy="1007.2" r="1.33"/>
					<circle class="st5" cx="778.74" cy="1007.2" r="1.33"/>
					<circle class="st5" cx="801.6" cy="1007.2" r="1.33"/>
					<circle class="st5" cx="824.45" cy="1007.2" r="1.33"/>
					<circle class="st5" cx="847.31" cy="1007.2" r="1.33"/>
					<circle class="st5" cx="870.17" cy="1007.2" r="1.33"/>
					<circle class="st5" cx="893.02" cy="1007.2" r="1.33"/>
					<circle class="st5" cx="915.88" cy="1007.2" r="1.33"/>
					<circle class="st5" cx="938.74" cy="1007.2" r="1.33"/>
					<circle class="st5" cx="961.6" cy="1007.2" r="1.33"/>
					<circle class="st5" cx="984.45" cy="1007.2" r="1.33"/>
					<circle class="st5" cx="1007.31" cy="1007.2" r="1.33"/>
					<circle class="st5" cx="1030.17" cy="1007.2" r="1.33"/>
					<circle class="st5" cx="1053.03" cy="1007.2" r="1.33"/>
					<circle class="st5" cx="1075.88" cy="1007.2" r="1.33"/>
					<circle class="st5" cx="115.88" cy="1030.06" r="1.33"/>
					<circle class="st5" cx="138.74" cy="1030.06" r="1.33"/>
					<circle class="st5" cx="161.6" cy="1030.06" r="1.33"/>
					<circle class="st5" cx="184.45" cy="1030.06" r="1.33"/>
					<circle class="st5" cx="207.31" cy="1030.06" r="1.33"/>
					<circle class="st5" cx="230.17" cy="1030.06" r="1.33"/>
					<circle class="st5" cx="253.02" cy="1030.06" r="1.33"/>
					<circle class="st5" cx="275.88" cy="1030.06" r="1.33"/>
					<circle class="st5" cx="298.74" cy="1030.06" r="1.33"/>
					<circle class="st5" cx="321.6" cy="1030.06" r="1.33"/>
					<circle class="st5" cx="344.45" cy="1030.06" r="1.33"/>
					<circle class="st5" cx="367.31" cy="1030.06" r="1.33"/>
					<circle class="st5" cx="390.17" cy="1030.06" r="1.33"/>
					<circle class="st5" cx="413.02" cy="1030.06" r="1.33"/>
					<circle class="st5" cx="435.88" cy="1030.06" r="1.33"/>
					<circle class="st5" cx="458.74" cy="1030.06" r="1.33"/>
					<circle class="st5" cx="481.6" cy="1030.06" r="1.33"/>
					<circle class="st5" cx="504.45" cy="1030.06" r="1.33"/>
					<circle class="st5" cx="527.31" cy="1030.06" r="1.33"/>
					<circle class="st5" cx="550.17" cy="1030.06" r="1.33"/>
					<circle class="st5" cx="573.02" cy="1030.06" r="1.33"/>
					<circle class="st5" cx="595.88" cy="1030.06" r="1.33"/>
					<circle class="st5" cx="618.74" cy="1030.06" r="1.33"/>
					<circle class="st5" cx="641.6" cy="1030.06" r="1.33"/>
					<circle class="st5" cx="664.45" cy="1030.06" r="1.33"/>
					<circle class="st5" cx="687.31" cy="1030.06" r="1.33"/>
					<circle class="st5" cx="710.17" cy="1030.06" r="1.33"/>
					<circle class="st5" cx="733.02" cy="1030.06" r="1.33"/>
					<circle class="st5" cx="755.88" cy="1030.06" r="1.33"/>
					<circle class="st5" cx="778.74" cy="1030.06" r="1.33"/>
					<circle class="st5" cx="801.6" cy="1030.06" r="1.33"/>
					<circle class="st5" cx="824.45" cy="1030.06" r="1.33"/>
					<circle class="st5" cx="847.31" cy="1030.06" r="1.33"/>
					<circle class="st5" cx="870.17" cy="1030.06" r="1.33"/>
					<circle class="st5" cx="893.02" cy="1030.06" r="1.33"/>
					<circle class="st5" cx="915.88" cy="1030.06" r="1.33"/>
					<circle class="st5" cx="938.74" cy="1030.06" r="1.33"/>
					<circle class="st5" cx="961.6" cy="1030.06" r="1.33"/>
					<circle class="st5" cx="984.45" cy="1030.06" r="1.33"/>
					<circle class="st5" cx="1007.31" cy="1030.06" r="1.33"/>
					<circle class="st5" cx="1030.17" cy="1030.06" r="1.33"/>
					<circle class="st5" cx="1053.03" cy="1030.06" r="1.33"/>
					<circle class="st5" cx="1075.88" cy="1030.06" r="1.33"/>
				</g>
			</g>
		</g>
	</mask>
	<g class="st6">
		<linearGradient id="SVGID_3_" gradientUnits="userSpaceOnUse" x1="960" y1="4.5" x2="960" y2="1083.5">
			<stop  offset="0" style="stop-color:#FFFFFF"/>
			<stop  offset="1" style="stop-color:#FFFFFF"/>
		</linearGradient>
		<rect x="0.5" y="4.5" class="st7" width="1919" height="1079"/>
		<path d="M1919,5v1078H1V5H1919 M1920,4H0v1080h1920V4L1920,4z"/>
	</g>
</g>
<g id="Layer_2" class="st0">
	<g class="st1">
		<g>
			<g>
				<g>
					<path class="st8" d="M566.09,36.78c90.23-10.47,184,6.67,285.63,52.06c67.73,30.25,146.07,87.84,236.79,154.54
						c133.74,98.33,285.33,209.78,451.24,268.36c165.14,58.31,283.19,22.83,353.14-17.19c75.82-43.39,113.07-101.33,113.44-101.91
						l1.75,1.11c-0.37,0.58-37.84,58.89-114.07,102.55c-44.77,25.63-93.95,41.24-146.19,46.52c-65.27,6.54-135.5-3.26-208.75-29.12
						c-166.2-58.68-317.92-170.23-451.78-268.64c-90.62-66.62-168.88-124.16-236.4-154.32C598.95-21.8,449.16,59.43,304.31,137.99
						c-104.69,56.78-203.58,110.41-331.1,77.68l0.52-2c126.72,32.52,225.27-20.92,329.6-77.5c71.14-38.58,144.7-78.47,232.49-94.82
						C545.86,39.48,555.96,37.95,566.09,36.78z"/>
				</g>
				<g>
					<path class="st8" d="M652.51,25.99c63.17-7.33,133.22-0.98,213.54,26.6c88.51,30.39,186.17,100.21,289.57,174.13
						c113.5,81.15,242.14,173.12,385.45,233.08c165.01,69.53,281,41.82,349.25,6.33c73.95-38.46,109.37-94.08,109.71-94.64l1.75,1.1
						c-0.35,0.56-36,56.6-110.42,95.33c-43.7,22.74-92.03,35.17-143.64,36.93c-64.47,2.21-134.27-12.31-207.46-43.15
						c-143.53-60.05-272.27-152.09-385.85-233.3C1051.15,154.57,953.61,84.83,865.38,54.54C636.07-24.18,490.59,70.89,349.91,162.83
						c-123.4,80.64-239.95,156.81-404.58,113.64l0.52-2c163.74,42.94,279.92-32.99,402.92-113.37
						C440.66,101.05,534.59,39.68,652.51,25.99z"/>
				</g>
				<g>
					<path class="st8" d="M729.68,5.53c46.35-5.38,96.19-2.75,150.7,10.82c112.19,27.91,217.34,102.7,339.09,189.3
						c99,70.41,201.36,143.23,322.92,202.21c164.9,80.74,278.83,60.8,345.37,29.86c72.09-33.53,105.66-86.83,105.99-87.37l1.76,1.09
						c-0.33,0.54-34.16,54.3-106.77,88.11c-42.63,19.85-90.1,29.04-141.08,27.34c-63.67-2.13-133.04-21.36-206.17-57.17
						c-121.71-59.05-228.76-135.2-323.21-202.38C1096.68,120.86,991.68,46.17,879.87,18.35C671.8-33.42,531.4,75.01,395.63,179.86
						c-67.48,52.11-137.25,106-214.08,138.87C95.4,355.59,9.01,361.66-82.54,337.27l0.53-2c203.02,54.06,341.98-53.26,476.38-157.05
						C495.03,100.49,598.25,20.8,729.68,5.53z"/>
				</g>
				<g>
					<path class="st8" d="M795.02-22.31c32.82-3.81,65.94-2.98,99.68,2.42c137.84,22.08,250.98,104.27,382,199.43
						c81.3,59.06,165.37,120.13,267,176.38c164.78,91.95,276.65,79.78,341.49,53.38c70.22-28.6,101.95-79.59,102.26-80.1l1.76,1.08
						c-0.31,0.52-32.32,52.01-103.13,80.89c-41.56,16.95-88.17,22.92-138.52,17.75c-62.87-6.46-131.8-30.41-204.87-71.19
						c-101.73-56.31-185.86-117.42-267.21-176.51C1144.68,86.21,1031.72,4.16,894.37-17.84C705.64-48.08,576.91,67.43,440.61,189.72
						C290.25,324.63,134.76,464.14-110.42,398.07l0.54-2c244.09,65.77,399.16-73.35,549.11-207.9
						C504.86,129.3,572.71,68.41,646.06,27.65C695.65,0.09,744.97-16.5,795.02-22.31z"/>
				</g>
				<g>
					<path class="st8" d="M848.79-54.95c19.44-2.26,39.47-2.72,60.24-1.16c163.61,12.29,274.41,96.62,414.7,203.38
						C1387.61,195.9,1460.03,251.02,1545,304c121.71,76.25,228.15,104.19,316.38,83.09c83.44-19.97,119.41-78.43,119.76-79.02
						l1.77,1.06c-0.36,0.6-36.71,59.76-121,79.95c-88.79,21.27-195.79-6.76-318.02-83.33c-85.05-53.03-157.51-108.18-221.44-156.83
						C1182.46,42.36,1071.87-41.8,908.87-54.05C737.31-66.93,614.32,59.45,484.1,193.27c-81.07,83.32-164.91,169.47-264.17,224.76
						c-112.23,62.52-229.41,75.88-358.22,40.85l0.54-1.99c286.6,77.93,456.28-96.43,620.37-265.06
						C597.47,73.81,706.73-38.46,848.79-54.95z"/>
				</g>
				<g>
					<path class="st8" d="M894.22-90.52c9.57-1.11,19.26-1.72,29.13-1.8c187.41-1.55,291.39,83.1,435.3,200.26
						c53.91,43.88,115.01,93.63,187.65,144.13c126.15,87.69,234.54,122.44,322.16,103.31c74.88-16.36,106.08-67.93,106.38-68.45
						l1.78,1.05c-0.31,0.53-31.97,52.87-107.72,69.42c-88.21,19.26-197.14-15.6-323.79-103.64
						c-72.71-50.54-133.84-100.31-187.78-144.22C1213.77-7.35,1110.03-91.8,923.37-90.26C766.67-88.97,649.49,47.3,525.45,191.57
						c-86.57,100.69-176.09,204.8-286,273.14C114.68,542.29-18,560.27-166.16,519.68l0.54-1.99
						c330.19,90.45,521.08-131.58,689.5-327.47C640.45,54.64,750.99-73.89,894.22-90.52z"/>
				</g>
			</g>
			<g>
				<path class="st5" d="M1312.79,1292.38l-1.84-0.49c20.53-77.37,63.85-148.57,125.28-205.91
					c61.43-57.34,135.44-95.66,214.03-110.82c31.27-6.03,63.58-8.66,94.83-11.2c36.1-2.94,73.42-5.98,109.21-14.28
					c78.97-18.32,136.21-63.63,153.11-121.19c26.54-90.39-51.04-177.29-85.62-210.45c-13.76-13.2-28.47-26.2-42.68-38.78
					c-45.64-40.37-92.83-82.12-117.97-137.92c-16.56-36.74-23.06-78.58-29.36-119.04c-9.72-62.48-18.9-121.5-61.85-163.44
					c-49.13-47.96-125.06-52.73-185.7-51.53c-70.55,1.4-142.05,9.15-211.19,16.64c-91.37,9.91-185.85,20.14-279.13,15.82
					c-87.52-4.06-170.92-23.68-241.18-56.73c-80.77-38-140.65-91.45-178-158.88l1.67-0.92C645.88,48.74,802,128.98,993.99,137.89
					c93.13,4.31,187.54-5.91,278.83-15.81c69.19-7.5,140.73-15.25,211.36-16.65c61.01-1.21,137.44,3.62,187.07,52.08
					c43.4,42.38,52.63,101.7,62.4,164.5c6.27,40.34,12.76,82.05,29.21,118.56c24.97,55.43,72.01,97.04,117.5,137.28
					c14.23,12.59,28.95,25.6,42.74,38.83c34.84,33.41,112.96,120.97,86.13,212.36c-17.1,58.23-74.86,104.03-154.51,122.51
					c-35.93,8.33-73.32,11.38-109.49,14.32c-31.2,2.54-63.45,5.17-94.62,11.18C1490.4,1007.94,1354.64,1134.66,1312.79,1292.38z"/>
			</g>
		</g>
		<g>
			<path class="st9" d="M1543.13,247.43l-26.45-26.45l26.45-26.45l26.45,26.45L1543.13,247.43z M1520.71,220.97l22.41,22.41
				l22.41-22.41l-22.41-22.41L1520.71,220.97z"/>
		</g>
		<g>
			<path class="st10" d="M1525.85,861.41l-87.54-87.54l87.54-87.54l87.54,87.54L1525.85,861.41z M1442.35,773.86l83.5,83.5
				l83.5-83.5l-83.5-83.5L1442.35,773.86z"/>
		</g>
		<g>
			<path class="st9" d="M264.57,216.45l-38.67-38.67l38.67-38.67l38.67,38.67L264.57,216.45z M229.93,177.78l34.63,34.63
				l34.63-34.63l-34.63-34.63L229.93,177.78z"/>
		</g>
		<g>
			<rect x="1399.91" y="571.35" class="st9" width="77.75" height="2.86"/>
		</g>
		<g>
			<circle class="st5" cx="119.32" cy="935.48" r="1.33"/>
			<circle class="st5" cx="142.18" cy="935.48" r="1.33"/>
			<circle class="st5" cx="165.04" cy="935.48" r="1.33"/>
			<circle class="st5" cx="187.9" cy="935.48" r="1.33"/>
			<circle class="st5" cx="210.75" cy="935.48" r="1.33"/>
			<circle class="st5" cx="233.61" cy="935.48" r="1.33"/>
			<circle class="st5" cx="256.47" cy="935.48" r="1.33"/>
			<circle class="st5" cx="279.32" cy="935.48" r="1.33"/>
			<circle class="st5" cx="302.18" cy="935.48" r="1.33"/>
			<circle class="st5" cx="325.04" cy="935.48" r="1.33"/>
			<circle class="st5" cx="347.9" cy="935.48" r="1.33"/>
			<circle class="st5" cx="370.75" cy="935.48" r="1.33"/>
			<circle class="st5" cx="393.61" cy="935.48" r="1.33"/>
			<circle class="st5" cx="416.47" cy="935.48" r="1.33"/>
			<circle class="st5" cx="439.32" cy="935.48" r="1.33"/>
			<circle class="st5" cx="462.18" cy="935.48" r="1.33"/>
			<circle class="st5" cx="485.04" cy="935.48" r="1.33"/>
			<circle class="st5" cx="507.9" cy="935.48" r="1.33"/>
			<circle class="st5" cx="530.75" cy="935.48" r="1.33"/>
			<circle class="st5" cx="553.61" cy="935.48" r="1.33"/>
			<circle class="st5" cx="576.47" cy="935.48" r="1.33"/>
			<circle class="st5" cx="599.32" cy="935.48" r="1.33"/>
			<circle class="st5" cx="622.18" cy="935.48" r="1.33"/>
			<circle class="st5" cx="645.04" cy="935.48" r="1.33"/>
			<circle class="st5" cx="667.9" cy="935.48" r="1.33"/>
			<circle class="st5" cx="690.75" cy="935.48" r="1.33"/>
			<circle class="st5" cx="713.61" cy="935.48" r="1.33"/>
			<circle class="st5" cx="736.47" cy="935.48" r="1.33"/>
			<circle class="st5" cx="759.32" cy="935.48" r="1.33"/>
			<circle class="st5" cx="782.18" cy="935.48" r="1.33"/>
			<circle class="st5" cx="805.04" cy="935.48" r="1.33"/>
			<circle class="st5" cx="827.9" cy="935.48" r="1.33"/>
			<circle class="st5" cx="850.75" cy="935.48" r="1.33"/>
			<circle class="st5" cx="873.61" cy="935.48" r="1.33"/>
			<circle class="st5" cx="896.47" cy="935.48" r="1.33"/>
			<circle class="st5" cx="919.32" cy="935.48" r="1.33"/>
			<circle class="st5" cx="942.18" cy="935.48" r="1.33"/>
			<circle class="st5" cx="965.04" cy="935.48" r="1.33"/>
			<circle class="st5" cx="987.9" cy="935.48" r="1.33"/>
			<circle class="st5" cx="1010.75" cy="935.48" r="1.33"/>
			<circle class="st5" cx="1033.61" cy="935.48" r="1.33"/>
			<circle class="st5" cx="1056.47" cy="935.48" r="1.33"/>
			<circle class="st5" cx="1079.32" cy="935.48" r="1.33"/>
			<circle class="st5" cx="119.32" cy="958.34" r="1.33"/>
			<circle class="st5" cx="142.18" cy="958.34" r="1.33"/>
			<circle class="st5" cx="165.04" cy="958.34" r="1.33"/>
			<circle class="st5" cx="187.9" cy="958.34" r="1.33"/>
			<circle class="st5" cx="210.75" cy="958.34" r="1.33"/>
			<circle class="st5" cx="233.61" cy="958.34" r="1.33"/>
			<circle class="st5" cx="256.47" cy="958.34" r="1.33"/>
			<circle class="st5" cx="279.32" cy="958.34" r="1.33"/>
			<circle class="st5" cx="302.18" cy="958.34" r="1.33"/>
			<circle class="st5" cx="325.04" cy="958.34" r="1.33"/>
			<circle class="st5" cx="347.9" cy="958.34" r="1.33"/>
			<circle class="st5" cx="370.75" cy="958.34" r="1.33"/>
			<circle class="st5" cx="393.61" cy="958.34" r="1.33"/>
			<circle class="st5" cx="416.47" cy="958.34" r="1.33"/>
			<circle class="st5" cx="439.32" cy="958.34" r="1.33"/>
			<circle class="st5" cx="462.18" cy="958.34" r="1.33"/>
			<circle class="st5" cx="485.04" cy="958.34" r="1.33"/>
			<circle class="st5" cx="507.9" cy="958.34" r="1.33"/>
			<circle class="st5" cx="530.75" cy="958.34" r="1.33"/>
			<circle class="st5" cx="553.61" cy="958.34" r="1.33"/>
			<circle class="st5" cx="576.47" cy="958.34" r="1.33"/>
			<circle class="st5" cx="599.32" cy="958.34" r="1.33"/>
			<circle class="st5" cx="622.18" cy="958.34" r="1.33"/>
			<circle class="st5" cx="645.04" cy="958.34" r="1.33"/>
			<circle class="st5" cx="667.9" cy="958.34" r="1.33"/>
			<circle class="st5" cx="690.75" cy="958.34" r="1.33"/>
			<circle class="st5" cx="713.61" cy="958.34" r="1.33"/>
			<circle class="st5" cx="736.47" cy="958.34" r="1.33"/>
			<circle class="st5" cx="759.32" cy="958.34" r="1.33"/>
			<circle class="st5" cx="782.18" cy="958.34" r="1.33"/>
			<circle class="st5" cx="805.04" cy="958.34" r="1.33"/>
			<circle class="st5" cx="827.9" cy="958.34" r="1.33"/>
			<circle class="st5" cx="850.75" cy="958.34" r="1.33"/>
			<circle class="st5" cx="873.61" cy="958.34" r="1.33"/>
			<circle class="st5" cx="896.47" cy="958.34" r="1.33"/>
			<circle class="st5" cx="919.32" cy="958.34" r="1.33"/>
			<circle class="st5" cx="942.18" cy="958.34" r="1.33"/>
			<circle class="st5" cx="965.04" cy="958.34" r="1.33"/>
			<circle class="st5" cx="987.9" cy="958.34" r="1.33"/>
			<circle class="st5" cx="1010.75" cy="958.34" r="1.33"/>
			<circle class="st5" cx="1033.61" cy="958.34" r="1.33"/>
			<circle class="st5" cx="1056.47" cy="958.34" r="1.33"/>
			<circle class="st5" cx="1079.32" cy="958.34" r="1.33"/>
			<circle class="st5" cx="119.32" cy="981.2" r="1.33"/>
			<circle class="st5" cx="142.18" cy="981.2" r="1.33"/>
			<circle class="st5" cx="165.04" cy="981.2" r="1.33"/>
			<circle class="st5" cx="187.9" cy="981.2" r="1.33"/>
			<circle class="st5" cx="210.75" cy="981.2" r="1.33"/>
			<circle class="st5" cx="233.61" cy="981.2" r="1.33"/>
			<circle class="st5" cx="256.47" cy="981.2" r="1.33"/>
			<circle class="st5" cx="279.32" cy="981.2" r="1.33"/>
			<circle class="st5" cx="302.18" cy="981.2" r="1.33"/>
			<circle class="st5" cx="325.04" cy="981.2" r="1.33"/>
			<circle class="st5" cx="347.9" cy="981.2" r="1.33"/>
			<circle class="st5" cx="370.75" cy="981.2" r="1.33"/>
			<circle class="st5" cx="393.61" cy="981.2" r="1.33"/>
			<circle class="st5" cx="416.47" cy="981.2" r="1.33"/>
			<circle class="st5" cx="439.32" cy="981.2" r="1.33"/>
			<circle class="st5" cx="462.18" cy="981.2" r="1.33"/>
			<circle class="st5" cx="485.04" cy="981.2" r="1.33"/>
			<circle class="st5" cx="507.9" cy="981.2" r="1.33"/>
			<circle class="st5" cx="530.75" cy="981.2" r="1.33"/>
			<circle class="st5" cx="553.61" cy="981.2" r="1.33"/>
			<circle class="st5" cx="576.47" cy="981.2" r="1.33"/>
			<circle class="st5" cx="599.32" cy="981.2" r="1.33"/>
			<circle class="st5" cx="622.18" cy="981.2" r="1.33"/>
			<circle class="st5" cx="645.04" cy="981.2" r="1.33"/>
			<circle class="st5" cx="667.9" cy="981.2" r="1.33"/>
			<circle class="st5" cx="690.75" cy="981.2" r="1.33"/>
			<circle class="st5" cx="713.61" cy="981.2" r="1.33"/>
			<circle class="st5" cx="736.47" cy="981.2" r="1.33"/>
			<circle class="st5" cx="759.32" cy="981.2" r="1.33"/>
			<circle class="st5" cx="782.18" cy="981.2" r="1.33"/>
			<circle class="st5" cx="805.04" cy="981.2" r="1.33"/>
			<circle class="st5" cx="827.9" cy="981.2" r="1.33"/>
			<circle class="st5" cx="850.75" cy="981.2" r="1.33"/>
			<circle class="st5" cx="873.61" cy="981.2" r="1.33"/>
			<circle class="st5" cx="896.47" cy="981.2" r="1.33"/>
			<circle class="st5" cx="919.32" cy="981.2" r="1.33"/>
			<circle class="st5" cx="942.18" cy="981.2" r="1.33"/>
			<circle class="st5" cx="965.04" cy="981.2" r="1.33"/>
			<circle class="st5" cx="987.9" cy="981.2" r="1.33"/>
			<circle class="st5" cx="1010.75" cy="981.2" r="1.33"/>
			<circle class="st5" cx="1033.61" cy="981.2" r="1.33"/>
			<circle class="st5" cx="1056.47" cy="981.2" r="1.33"/>
			<circle class="st5" cx="1079.32" cy="981.2" r="1.33"/>
			<circle class="st5" cx="119.32" cy="1004.05" r="1.33"/>
			<circle class="st5" cx="142.18" cy="1004.05" r="1.33"/>
			<circle class="st5" cx="165.04" cy="1004.05" r="1.33"/>
			<circle class="st5" cx="187.9" cy="1004.05" r="1.33"/>
			<circle class="st5" cx="210.75" cy="1004.05" r="1.33"/>
			<circle class="st5" cx="233.61" cy="1004.05" r="1.33"/>
			<circle class="st5" cx="256.47" cy="1004.05" r="1.33"/>
			<circle class="st5" cx="279.32" cy="1004.05" r="1.33"/>
			<circle class="st5" cx="302.18" cy="1004.05" r="1.33"/>
			<circle class="st5" cx="325.04" cy="1004.05" r="1.33"/>
			<circle class="st5" cx="347.9" cy="1004.05" r="1.33"/>
			<circle class="st5" cx="370.75" cy="1004.05" r="1.33"/>
			<circle class="st5" cx="393.61" cy="1004.05" r="1.33"/>
			<circle class="st5" cx="416.47" cy="1004.05" r="1.33"/>
			<circle class="st5" cx="439.32" cy="1004.05" r="1.33"/>
			<circle class="st5" cx="462.18" cy="1004.05" r="1.33"/>
			<circle class="st5" cx="485.04" cy="1004.05" r="1.33"/>
			<circle class="st5" cx="507.9" cy="1004.05" r="1.33"/>
			<circle class="st5" cx="530.75" cy="1004.05" r="1.33"/>
			<circle class="st5" cx="553.61" cy="1004.05" r="1.33"/>
			<circle class="st5" cx="576.47" cy="1004.05" r="1.33"/>
			<circle class="st5" cx="599.32" cy="1004.05" r="1.33"/>
			<circle class="st5" cx="622.18" cy="1004.05" r="1.33"/>
			<circle class="st5" cx="645.04" cy="1004.05" r="1.33"/>
			<circle class="st5" cx="667.9" cy="1004.05" r="1.33"/>
			<circle class="st5" cx="690.75" cy="1004.05" r="1.33"/>
			<circle class="st5" cx="713.61" cy="1004.05" r="1.33"/>
			<circle class="st5" cx="736.47" cy="1004.05" r="1.33"/>
			<circle class="st5" cx="759.32" cy="1004.05" r="1.33"/>
			<circle class="st5" cx="782.18" cy="1004.05" r="1.33"/>
			<circle class="st5" cx="805.04" cy="1004.05" r="1.33"/>
			<circle class="st5" cx="827.9" cy="1004.05" r="1.33"/>
			<circle class="st5" cx="850.75" cy="1004.05" r="1.33"/>
			<circle class="st5" cx="873.61" cy="1004.05" r="1.33"/>
			<circle class="st5" cx="896.47" cy="1004.05" r="1.33"/>
			<circle class="st5" cx="919.32" cy="1004.05" r="1.33"/>
			<circle class="st5" cx="942.18" cy="1004.05" r="1.33"/>
			<circle class="st5" cx="965.04" cy="1004.05" r="1.33"/>
			<circle class="st5" cx="987.9" cy="1004.05" r="1.33"/>
			<circle class="st5" cx="1010.75" cy="1004.05" r="1.33"/>
			<circle class="st5" cx="1033.61" cy="1004.05" r="1.33"/>
			<circle class="st5" cx="1056.47" cy="1004.05" r="1.33"/>
			<circle class="st5" cx="1079.32" cy="1004.05" r="1.33"/>
			<circle class="st5" cx="119.32" cy="1026.91" r="1.33"/>
			<circle class="st5" cx="142.18" cy="1026.91" r="1.33"/>
			<circle class="st5" cx="165.04" cy="1026.91" r="1.33"/>
			<circle class="st5" cx="187.9" cy="1026.91" r="1.33"/>
			<circle class="st5" cx="210.75" cy="1026.91" r="1.33"/>
			<circle class="st5" cx="233.61" cy="1026.91" r="1.33"/>
			<circle class="st5" cx="256.47" cy="1026.91" r="1.33"/>
			<circle class="st5" cx="279.32" cy="1026.91" r="1.33"/>
			<circle class="st5" cx="302.18" cy="1026.91" r="1.33"/>
			<circle class="st5" cx="325.04" cy="1026.91" r="1.33"/>
			<circle class="st5" cx="347.9" cy="1026.91" r="1.33"/>
			<circle class="st5" cx="370.75" cy="1026.91" r="1.33"/>
			<circle class="st5" cx="393.61" cy="1026.91" r="1.33"/>
			<circle class="st5" cx="416.47" cy="1026.91" r="1.33"/>
			<circle class="st5" cx="439.32" cy="1026.91" r="1.33"/>
			<circle class="st5" cx="462.18" cy="1026.91" r="1.33"/>
			<circle class="st5" cx="485.04" cy="1026.91" r="1.33"/>
			<circle class="st5" cx="507.9" cy="1026.91" r="1.33"/>
			<circle class="st5" cx="530.75" cy="1026.91" r="1.33"/>
			<circle class="st5" cx="553.61" cy="1026.91" r="1.33"/>
			<circle class="st5" cx="576.47" cy="1026.91" r="1.33"/>
			<circle class="st5" cx="599.32" cy="1026.91" r="1.33"/>
			<circle class="st5" cx="622.18" cy="1026.91" r="1.33"/>
			<circle class="st5" cx="645.04" cy="1026.91" r="1.33"/>
			<circle class="st5" cx="667.9" cy="1026.91" r="1.33"/>
			<circle class="st5" cx="690.75" cy="1026.91" r="1.33"/>
			<circle class="st5" cx="713.61" cy="1026.91" r="1.33"/>
			<circle class="st5" cx="736.47" cy="1026.91" r="1.33"/>
			<circle class="st5" cx="759.32" cy="1026.91" r="1.33"/>
			<circle class="st5" cx="782.18" cy="1026.91" r="1.33"/>
			<circle class="st5" cx="805.04" cy="1026.91" r="1.33"/>
			<circle class="st5" cx="827.9" cy="1026.91" r="1.33"/>
			<circle class="st5" cx="850.75" cy="1026.91" r="1.33"/>
			<circle class="st5" cx="873.61" cy="1026.91" r="1.33"/>
			<circle class="st5" cx="896.47" cy="1026.91" r="1.33"/>
			<circle class="st5" cx="919.32" cy="1026.91" r="1.33"/>
			<circle class="st5" cx="942.18" cy="1026.91" r="1.33"/>
			<circle class="st5" cx="965.04" cy="1026.91" r="1.33"/>
			<circle class="st5" cx="987.9" cy="1026.91" r="1.33"/>
			<circle class="st5" cx="1010.75" cy="1026.91" r="1.33"/>
			<circle class="st5" cx="1033.61" cy="1026.91" r="1.33"/>
			<circle class="st5" cx="1056.47" cy="1026.91" r="1.33"/>
			<circle class="st5" cx="1079.32" cy="1026.91" r="1.33"/>
		</g>
	</g>
</g>
<g id="Layer_4">
	<g>
		<g>
			<g>
				<g>
					<path class="st8" d="M760.99,321.66c48.72-4.62,98.45-0.43,151.49,12.7c35.35,8.75,75.52,26.12,122.03,46.23
						c68.57,29.65,146.29,63.26,233.38,79.73c86.68,16.39,151.12,3.36,189.91-10.45c42.04-14.97,63.87-34.06,64.09-34.25l0.9,0.33
						c-0.22,0.19-22.18,19.41-64.45,34.47c-24.82,8.84-51.7,14.53-79.88,16.96c-35.21,3.01-72.55,0.85-111-6.42
						c-87.24-16.49-165.03-50.13-233.66-79.81c-46.46-20.09-86.58-37.44-121.83-46.17c-131.49-32.55-214.41-4.42-294.6,22.79
						c-57.96,19.66-112.7,38.24-180.03,29.53l0.34-0.65c66.91,8.66,121.46-9.85,179.22-29.45c39.38-13.36,80.1-27.18,127.7-33.64
						C750.06,322.81,755.52,322.18,760.99,321.66z"/>
				</g>
				<g>
					<path class="st8" d="M807.68,317c34.11-3.23,71.46-2.17,113.65,5.54c46.49,8.5,96.62,29.52,149.7,51.78
						c58.26,24.43,124.3,52.11,199.23,69.33c86.26,19.98,149.34,9.48,187.07-2.85c40.89-13.36,61.65-31.69,61.86-31.87l0.9,0.33
						c-0.21,0.18-21.12,18.65-62.26,32.1c-24.16,7.9-50.47,12.56-78.2,13.85c-34.64,1.61-71.6-2.07-109.86-10.93
						c-75.04-17.24-141.13-44.95-199.44-69.4c-53.01-22.23-103.08-43.22-149.42-51.7c-120.44-22.03-201.49,10.48-279.87,41.92
						c-68.75,27.58-133.68,53.62-220.58,42.08l0.34-0.65c86.43,11.48,151.15-14.49,219.68-41.97
						C691.68,344.02,744.01,323.03,807.68,317z"/>
				</g>
				<g>
					<path class="st8" d="M849.71,309.36c25.03-2.37,51.67-2.22,80.46,1.36c59.27,7.38,113.25,29.89,175.77,55.95
						c50.83,21.19,103.39,43.1,166.69,60.31c85.84,23.58,147.57,15.6,184.24,4.75c39.73-11.76,59.43-29.31,59.63-29.49l0.91,0.32
						c-0.2,0.18-20.06,17.89-60.07,29.74c-23.49,6.96-49.24,10.57-76.52,10.74c-34.07,0.21-70.65-4.99-108.72-15.45
						c-63.37-17.23-118.34-40.15-166.84-60.36c-62.43-26.02-116.34-48.5-175.4-55.86c-109.92-13.69-188.67,23.03-264.83,58.54
						c-37.85,17.65-76.99,35.9-119.24,47.51c-47.38,13.02-93.89,16.17-142.21,9.63l0.35-0.65c107.13,14.49,185.08-21.85,260.47-57
						C720.85,343.08,778.75,316.09,849.71,309.36z"/>
				</g>
				<g>
					<path class="st8" d="M885.64,299.52c17.72-1.68,35.46-1.88,53.37-0.62c73.2,5.15,131.25,29.92,198.45,58.6
						c41.71,17.8,84.83,36.2,137.53,52.81c85.42,27.18,145.79,21.71,181.41,12.34c38.57-10.15,57.21-26.94,57.4-27.11l0.91,0.32
						c-0.18,0.17-19,17.13-57.89,27.37c-22.83,6.01-48.01,8.58-74.84,7.62c-33.51-1.19-69.7-7.91-107.58-19.96
						c-52.75-16.63-95.9-35.04-137.64-52.85c-67.1-28.63-125.04-53.36-197.99-58.49c-100.24-7.06-172.96,31.77-249.95,72.88
						c-84.95,45.35-172.78,92.25-302.14,74.49l0.35-0.65c128.78,17.67,216.38-29.09,301.1-74.32
						c37.07-19.79,75.41-40.26,116.04-54.35C831.64,308.09,858.61,302.08,885.64,299.52z"/>
				</g>
				<g>
					<path class="st8" d="M918.99,238.42c10.42-1.53,21.15-2.04,32.26-1.41c87.56,4.98,146.55,51.69,221.23,110.82
						c34.01,26.93,72.57,57.46,117.85,86.61c64.86,41.97,121.74,56.58,169.08,43.45c44.77-12.42,64.27-46.2,64.46-46.53l0.94,0.58
						c-0.19,0.34-19.91,34.52-65.12,47.08c-47.63,13.23-104.82-1.43-169.95-43.57c-45.33-29.18-83.9-59.72-117.93-86.67
						c-74.54-59.02-133.41-105.63-220.64-110.59c-91.82-5.22-158.2,68.36-228.48,146.26c-43.76,48.5-89.01,98.66-142.39,131.41
						c-60.36,37.03-123.16,46.1-191.99,27.73l0.3-1.14c153.15,40.88,244.73-60.63,333.29-158.8
						C783.88,314.94,842.86,249.58,918.99,238.42z"/>
				</g>
				<g>
					<path class="st8" d="M949.48,231.01c5.14-0.68,10.33-1.07,15.62-1.16c100.41-1.75,155.36,46,231.42,112.09
						c28.49,24.76,60.78,52.82,99.25,81.26c66.8,49.39,124.56,68.68,171.67,57.37c40.26-9.67,57.43-39.21,57.6-39.5l0.94,0.59
						c-0.17,0.3-17.6,30.28-58.32,40.06c-47.42,11.38-105.47-7.97-172.54-57.55c-38.5-28.46-70.81-56.54-99.32-81.31
						c-75.88-65.94-130.7-113.58-230.72-111.84c-83.96,1.47-147.94,79.67-215.67,162.46c-47.27,57.78-96.15,117.53-155.64,156.99
						c-67.53,44.79-138.77,55.66-217.78,33.22l0.31-1.14c176.09,50.01,280.32-77.41,372.29-189.82
						C812.25,314.92,872.6,241.16,949.48,231.01z"/>
				</g>
			</g>
			<g>
				<path class="st5" d="M1121.94,940l-0.99-0.26c11.06-41.68,34.4-80.04,67.49-110.93c33.09-30.89,72.96-51.53,115.31-59.7
					c16.85-3.25,34.25-4.67,51.09-6.04c19.45-1.58,39.55-3.22,58.84-7.69c42.55-9.87,73.38-34.28,82.49-65.29
					c14.3-48.7-27.49-95.51-46.13-113.38c-7.42-7.11-15.34-14.12-22.99-20.89c-24.59-21.75-50.01-44.24-63.56-74.3
					c-8.92-19.8-12.42-42.34-15.82-64.13c-5.24-33.66-10.18-65.46-33.32-88.05c-26.47-25.84-67.37-28.41-100.04-27.76
					c-38.01,0.75-76.53,4.93-113.78,8.97c-49.22,5.34-100.13,10.85-150.38,8.52c-47.15-2.19-92.08-12.76-129.93-30.56
					c-43.51-20.47-75.78-49.27-95.89-85.6l0.9-0.5c37.44,67.61,121.54,110.83,224.98,115.63c50.17,2.32,101.03-3.18,150.22-8.52
					c37.27-4.04,75.81-8.22,113.87-8.97c32.87-0.65,74.04,1.95,100.78,28.06c23.38,22.83,28.35,54.79,33.62,88.62
					c3.38,21.73,6.88,44.2,15.74,63.87c13.45,29.86,38.79,52.28,63.3,73.96c7.67,6.78,15.59,13.79,23.02,20.92
					c18.77,18,60.86,65.17,46.4,114.41c-9.21,31.37-40.33,56.05-83.24,66c-19.36,4.49-39.5,6.13-58.99,7.72
					c-16.81,1.37-34.18,2.78-50.98,6.02C1217.63,786.76,1144.49,855.03,1121.94,940z"/>
			</g>
		</g>
		<g>
			<path class="st9" d="M1272.03,371.05l-14.25-14.25l14.25-14.25l14.25,14.25L1272.03,371.05z M1259.96,356.8l12.08,12.08
				l12.08-12.08l-12.08-12.08L1259.96,356.8z"/>
		</g>
		<g>
			<path class="st10" d="M1236.72,707.82l-47.16-47.16l47.16-47.16l47.16,47.16L1236.72,707.82z M1191.74,660.66l44.98,44.98
				l44.98-44.98l-44.98-44.98L1191.74,660.66z"/>
		</g>
		<g>
			<path class="st9" d="M515.23,510.36l-20.83-20.83l20.83-20.83l20.83,20.83L515.23,510.36z M496.57,489.53l18.66,18.66
				l18.66-18.66l-18.66-18.66L496.57,489.53z"/>
		</g>
		<g>
			<rect x="1168.87" y="551.56" class="st9" width="41.89" height="1.54"/>
		</g>
		<g>
			<circle class="st5" cx="478.98" cy="747.73" r="0.72"/>
			<circle class="st5" cx="491.29" cy="747.73" r="0.72"/>
			<circle class="st5" cx="503.61" cy="747.73" r="0.72"/>
			<circle class="st5" cx="515.92" cy="747.73" r="0.72"/>
			<circle class="st5" cx="528.24" cy="747.73" r="0.72"/>
			<circle class="st5" cx="540.55" cy="747.73" r="0.72"/>
			<circle class="st5" cx="552.86" cy="747.73" r="0.72"/>
			<circle class="st5" cx="565.18" cy="747.73" r="0.72"/>
			<circle class="st5" cx="577.49" cy="747.73" r="0.72"/>
			<circle class="st5" cx="589.81" cy="747.73" r="0.72"/>
			<circle class="st5" cx="602.12" cy="747.73" r="0.72"/>
			<circle class="st5" cx="614.43" cy="747.73" r="0.72"/>
			<circle class="st5" cx="626.75" cy="747.73" r="0.72"/>
			<circle class="st5" cx="639.06" cy="747.73" r="0.72"/>
			<circle class="st5" cx="651.37" cy="747.73" r="0.72"/>
			<circle class="st5" cx="663.69" cy="747.73" r="0.72"/>
			<circle class="st5" cx="676" cy="747.73" r="0.72"/>
			<circle class="st5" cx="688.32" cy="747.73" r="0.72"/>
			<circle class="st5" cx="700.63" cy="747.73" r="0.72"/>
			<circle class="st5" cx="712.94" cy="747.73" r="0.72"/>
			<circle class="st5" cx="725.26" cy="747.73" r="0.72"/>
			<circle class="st5" cx="737.57" cy="747.73" r="0.72"/>
			<circle class="st5" cx="749.89" cy="747.73" r="0.72"/>
			<circle class="st5" cx="762.2" cy="747.73" r="0.72"/>
			<circle class="st5" cx="774.51" cy="747.73" r="0.72"/>
			<circle class="st5" cx="786.83" cy="747.73" r="0.72"/>
			<circle class="st5" cx="799.14" cy="747.73" r="0.72"/>
			<circle class="st5" cx="811.46" cy="747.73" r="0.72"/>
			<circle class="st5" cx="823.77" cy="747.73" r="0.72"/>
			<circle class="st5" cx="836.08" cy="747.73" r="0.72"/>
			<circle class="st5" cx="848.4" cy="747.73" r="0.72"/>
			<circle class="st5" cx="860.71" cy="747.73" r="0.72"/>
			<circle class="st5" cx="873.03" cy="747.73" r="0.72"/>
			<circle class="st5" cx="885.34" cy="747.73" r="0.72"/>
			<circle class="st5" cx="897.65" cy="747.73" r="0.72"/>
			<circle class="st5" cx="909.97" cy="747.73" r="0.72"/>
			<circle class="st5" cx="922.28" cy="747.73" r="0.72"/>
			<circle class="st5" cx="934.6" cy="747.73" r="0.72"/>
			<circle class="st5" cx="946.91" cy="747.73" r="0.72"/>
			<circle class="st5" cx="959.22" cy="747.73" r="0.72"/>
			<circle class="st5" cx="971.54" cy="747.73" r="0.72"/>
			<circle class="st5" cx="983.85" cy="747.73" r="0.72"/>
			<circle class="st5" cx="996.17" cy="747.73" r="0.72"/>
			<circle class="st5" cx="478.98" cy="760.04" r="0.72"/>
			<circle class="st5" cx="491.29" cy="760.04" r="0.72"/>
			<circle class="st5" cx="503.61" cy="760.04" r="0.72"/>
			<circle class="st5" cx="515.92" cy="760.04" r="0.72"/>
			<circle class="st5" cx="528.24" cy="760.04" r="0.72"/>
			<circle class="st5" cx="540.55" cy="760.04" r="0.72"/>
			<circle class="st5" cx="552.86" cy="760.04" r="0.72"/>
			<circle class="st5" cx="565.18" cy="760.04" r="0.72"/>
			<circle class="st5" cx="577.49" cy="760.04" r="0.72"/>
			<circle class="st5" cx="589.81" cy="760.04" r="0.72"/>
			<circle class="st5" cx="602.12" cy="760.04" r="0.72"/>
			<circle class="st5" cx="614.43" cy="760.04" r="0.72"/>
			<circle class="st5" cx="626.75" cy="760.04" r="0.72"/>
			<circle class="st5" cx="639.06" cy="760.04" r="0.72"/>
			<circle class="st5" cx="651.37" cy="760.04" r="0.72"/>
			<circle class="st5" cx="663.69" cy="760.04" r="0.72"/>
			<circle class="st5" cx="676" cy="760.04" r="0.72"/>
			<circle class="st5" cx="688.32" cy="760.04" r="0.72"/>
			<circle class="st5" cx="700.63" cy="760.04" r="0.72"/>
			<circle class="st5" cx="712.94" cy="760.04" r="0.72"/>
			<circle class="st5" cx="725.26" cy="760.04" r="0.72"/>
			<circle class="st5" cx="737.57" cy="760.04" r="0.72"/>
			<circle class="st5" cx="749.89" cy="760.04" r="0.72"/>
			<circle class="st5" cx="762.2" cy="760.04" r="0.72"/>
			<circle class="st5" cx="774.51" cy="760.04" r="0.72"/>
			<circle class="st5" cx="786.83" cy="760.04" r="0.72"/>
			<circle class="st5" cx="799.14" cy="760.04" r="0.72"/>
			<circle class="st5" cx="811.46" cy="760.04" r="0.72"/>
			<circle class="st5" cx="823.77" cy="760.04" r="0.72"/>
			<circle class="st5" cx="836.08" cy="760.04" r="0.72"/>
			<circle class="st5" cx="848.4" cy="760.04" r="0.72"/>
			<circle class="st5" cx="860.71" cy="760.04" r="0.72"/>
			<circle class="st5" cx="873.03" cy="760.04" r="0.72"/>
			<circle class="st5" cx="885.34" cy="760.04" r="0.72"/>
			<circle class="st5" cx="897.65" cy="760.04" r="0.72"/>
			<circle class="st5" cx="909.97" cy="760.04" r="0.72"/>
			<circle class="st5" cx="922.28" cy="760.04" r="0.72"/>
			<circle class="st5" cx="934.6" cy="760.04" r="0.72"/>
			<circle class="st5" cx="946.91" cy="760.04" r="0.72"/>
			<circle class="st5" cx="959.22" cy="760.04" r="0.72"/>
			<circle class="st5" cx="971.54" cy="760.04" r="0.72"/>
			<circle class="st5" cx="983.85" cy="760.04" r="0.72"/>
			<circle class="st5" cx="996.17" cy="760.04" r="0.72"/>
			<circle class="st5" cx="478.98" cy="772.36" r="0.72"/>
			<circle class="st5" cx="491.29" cy="772.36" r="0.72"/>
			<circle class="st5" cx="503.61" cy="772.36" r="0.72"/>
			<circle class="st5" cx="515.92" cy="772.36" r="0.72"/>
			<circle class="st5" cx="528.24" cy="772.36" r="0.72"/>
			<circle class="st5" cx="540.55" cy="772.36" r="0.72"/>
			<circle class="st5" cx="552.86" cy="772.36" r="0.72"/>
			<circle class="st5" cx="565.18" cy="772.36" r="0.72"/>
			<circle class="st5" cx="577.49" cy="772.36" r="0.72"/>
			<circle class="st5" cx="589.81" cy="772.36" r="0.72"/>
			<circle class="st5" cx="602.12" cy="772.36" r="0.72"/>
			<circle class="st5" cx="614.43" cy="772.36" r="0.72"/>
			<circle class="st5" cx="626.75" cy="772.36" r="0.72"/>
			<circle class="st5" cx="639.06" cy="772.36" r="0.72"/>
			<circle class="st5" cx="651.37" cy="772.36" r="0.72"/>
			<circle class="st5" cx="663.69" cy="772.36" r="0.72"/>
			<circle class="st5" cx="676" cy="772.36" r="0.72"/>
			<circle class="st5" cx="688.32" cy="772.36" r="0.72"/>
			<circle class="st5" cx="700.63" cy="772.36" r="0.72"/>
			<circle class="st5" cx="712.94" cy="772.36" r="0.72"/>
			<circle class="st5" cx="725.26" cy="772.36" r="0.72"/>
			<circle class="st5" cx="737.57" cy="772.36" r="0.72"/>
			<circle class="st5" cx="749.89" cy="772.36" r="0.72"/>
			<circle class="st5" cx="762.2" cy="772.36" r="0.72"/>
			<circle class="st5" cx="774.51" cy="772.36" r="0.72"/>
			<circle class="st5" cx="786.83" cy="772.36" r="0.72"/>
			<circle class="st5" cx="799.14" cy="772.36" r="0.72"/>
			<circle class="st5" cx="811.46" cy="772.36" r="0.72"/>
			<circle class="st5" cx="823.77" cy="772.36" r="0.72"/>
			<circle class="st5" cx="836.08" cy="772.36" r="0.72"/>
			<circle class="st5" cx="848.4" cy="772.36" r="0.72"/>
			<circle class="st5" cx="860.71" cy="772.36" r="0.72"/>
			<circle class="st5" cx="873.03" cy="772.36" r="0.72"/>
			<circle class="st5" cx="885.34" cy="772.36" r="0.72"/>
			<circle class="st5" cx="897.65" cy="772.36" r="0.72"/>
			<circle class="st5" cx="909.97" cy="772.36" r="0.72"/>
			<circle class="st5" cx="922.28" cy="772.36" r="0.72"/>
			<circle class="st5" cx="934.6" cy="772.36" r="0.72"/>
			<circle class="st5" cx="946.91" cy="772.36" r="0.72"/>
			<circle class="st5" cx="959.22" cy="772.36" r="0.72"/>
			<circle class="st5" cx="971.54" cy="772.36" r="0.72"/>
			<circle class="st5" cx="983.85" cy="772.36" r="0.72"/>
			<circle class="st5" cx="996.17" cy="772.36" r="0.72"/>
			<circle class="st5" cx="478.98" cy="784.67" r="0.72"/>
			<circle class="st5" cx="491.29" cy="784.67" r="0.72"/>
			<circle class="st5" cx="503.61" cy="784.67" r="0.72"/>
			<circle class="st5" cx="515.92" cy="784.67" r="0.72"/>
			<circle class="st5" cx="528.24" cy="784.67" r="0.72"/>
			<circle class="st5" cx="540.55" cy="784.67" r="0.72"/>
			<circle class="st5" cx="552.86" cy="784.67" r="0.72"/>
			<circle class="st5" cx="565.18" cy="784.67" r="0.72"/>
			<circle class="st5" cx="577.49" cy="784.67" r="0.72"/>
			<circle class="st5" cx="589.81" cy="784.67" r="0.72"/>
			<circle class="st5" cx="602.12" cy="784.67" r="0.72"/>
			<circle class="st5" cx="614.43" cy="784.67" r="0.72"/>
			<circle class="st5" cx="626.75" cy="784.67" r="0.72"/>
			<circle class="st5" cx="639.06" cy="784.67" r="0.72"/>
			<circle class="st5" cx="651.37" cy="784.67" r="0.72"/>
			<circle class="st5" cx="663.69" cy="784.67" r="0.72"/>
			<circle class="st5" cx="676" cy="784.67" r="0.72"/>
			<circle class="st5" cx="688.32" cy="784.67" r="0.72"/>
			<circle class="st5" cx="700.63" cy="784.67" r="0.72"/>
			<circle class="st5" cx="712.94" cy="784.67" r="0.72"/>
			<circle class="st5" cx="725.26" cy="784.67" r="0.72"/>
			<circle class="st5" cx="737.57" cy="784.67" r="0.72"/>
			<circle class="st5" cx="749.89" cy="784.67" r="0.72"/>
			<circle class="st5" cx="762.2" cy="784.67" r="0.72"/>
			<circle class="st5" cx="774.51" cy="784.67" r="0.72"/>
			<circle class="st5" cx="786.83" cy="784.67" r="0.72"/>
			<circle class="st5" cx="799.14" cy="784.67" r="0.72"/>
			<circle class="st5" cx="811.46" cy="784.67" r="0.72"/>
			<circle class="st5" cx="823.77" cy="784.67" r="0.72"/>
			<circle class="st5" cx="836.08" cy="784.67" r="0.72"/>
			<circle class="st5" cx="848.4" cy="784.67" r="0.72"/>
			<circle class="st5" cx="860.71" cy="784.67" r="0.72"/>
			<circle class="st5" cx="873.03" cy="784.67" r="0.72"/>
			<circle class="st5" cx="885.34" cy="784.67" r="0.72"/>
			<circle class="st5" cx="897.65" cy="784.67" r="0.72"/>
			<circle class="st5" cx="909.97" cy="784.67" r="0.72"/>
			<circle class="st5" cx="922.28" cy="784.67" r="0.72"/>
			<circle class="st5" cx="934.6" cy="784.67" r="0.72"/>
			<circle class="st5" cx="946.91" cy="784.67" r="0.72"/>
			<circle class="st5" cx="959.22" cy="784.67" r="0.72"/>
			<circle class="st5" cx="971.54" cy="784.67" r="0.72"/>
			<circle class="st5" cx="983.85" cy="784.67" r="0.72"/>
			<circle class="st5" cx="996.17" cy="784.67" r="0.72"/>
			<circle class="st5" cx="478.98" cy="796.98" r="0.72"/>
			<circle class="st5" cx="491.29" cy="796.98" r="0.72"/>
			<circle class="st5" cx="503.61" cy="796.98" r="0.72"/>
			<circle class="st5" cx="515.92" cy="796.98" r="0.72"/>
			<circle class="st5" cx="528.24" cy="796.98" r="0.72"/>
			<circle class="st5" cx="540.55" cy="796.98" r="0.72"/>
			<circle class="st5" cx="552.86" cy="796.98" r="0.72"/>
			<circle class="st5" cx="565.18" cy="796.98" r="0.72"/>
			<circle class="st5" cx="577.49" cy="796.98" r="0.72"/>
			<circle class="st5" cx="589.81" cy="796.98" r="0.72"/>
			<circle class="st5" cx="602.12" cy="796.98" r="0.72"/>
			<circle class="st5" cx="614.43" cy="796.98" r="0.72"/>
			<circle class="st5" cx="626.75" cy="796.98" r="0.72"/>
			<circle class="st5" cx="639.06" cy="796.98" r="0.72"/>
			<circle class="st5" cx="651.37" cy="796.98" r="0.72"/>
			<circle class="st5" cx="663.69" cy="796.98" r="0.72"/>
			<circle class="st5" cx="676" cy="796.98" r="0.72"/>
			<circle class="st5" cx="688.32" cy="796.98" r="0.72"/>
			<circle class="st5" cx="700.63" cy="796.98" r="0.72"/>
			<circle class="st5" cx="712.94" cy="796.98" r="0.72"/>
			<circle class="st5" cx="725.26" cy="796.98" r="0.72"/>
			<circle class="st5" cx="737.57" cy="796.98" r="0.72"/>
			<circle class="st5" cx="749.89" cy="796.98" r="0.72"/>
			<circle class="st5" cx="762.2" cy="796.98" r="0.72"/>
			<circle class="st5" cx="774.51" cy="796.98" r="0.72"/>
			<circle class="st5" cx="786.83" cy="796.98" r="0.72"/>
			<circle class="st5" cx="799.14" cy="796.98" r="0.72"/>
			<circle class="st5" cx="811.46" cy="796.98" r="0.72"/>
			<circle class="st5" cx="823.77" cy="796.98" r="0.72"/>
			<circle class="st5" cx="836.08" cy="796.98" r="0.72"/>
			<circle class="st5" cx="848.4" cy="796.98" r="0.72"/>
			<circle class="st5" cx="860.71" cy="796.98" r="0.72"/>
			<circle class="st5" cx="873.03" cy="796.98" r="0.72"/>
			<circle class="st5" cx="885.34" cy="796.98" r="0.72"/>
			<circle class="st5" cx="897.65" cy="796.98" r="0.72"/>
			<circle class="st5" cx="909.97" cy="796.98" r="0.72"/>
			<circle class="st5" cx="922.28" cy="796.98" r="0.72"/>
			<circle class="st5" cx="934.6" cy="796.98" r="0.72"/>
			<circle class="st5" cx="946.91" cy="796.98" r="0.72"/>
			<circle class="st5" cx="959.22" cy="796.98" r="0.72"/>
			<circle class="st5" cx="971.54" cy="796.98" r="0.72"/>
			<circle class="st5" cx="983.85" cy="796.98" r="0.72"/>
			<circle class="st5" cx="996.17" cy="796.98" r="0.72"/>
		</g>
	</g>
</g>
</svg>
