<svg xmlns="http://www.w3.org/2000/svg" xmlns:xlink="http://www.w3.org/1999/xlink" width="1919" height="1079.001" viewBox="0 0 1919 1079.001"><defs><linearGradient id="a" x1="0.993" x2="0.006" y2="0.984" gradientUnits="objectBoundingBox"><stop offset="0" stop-color="#6b75fc"/><stop offset="1" stop-color="#369cf5"/></linearGradient></defs><path d="M1657.411,1299.225h-38.64a198.979,198.979,0,0,1-2.376-30.662c0-108.917,88.61-197.527,197.527-197.527a198.883,198.883,0,0,1,30.333,2.325,2.836,2.836,0,0,0,3.532.579,196.028,196.028,0,0,1,53.767,17.619,2.835,2.835,0,0,0,3.7,1.887A198.792,198.792,0,0,1,1982,1164.892a196.348,196.348,0,0,1,29.447,103.67,198.979,198.979,0,0,1-2.377,30.662h-38.64a159.848,159.848,0,0,0-72.91-166.415,158.192,158.192,0,0,0-49.968-20.147,2.834,2.834,0,1,0-3.271-.669,160.1,160.1,0,0,0-30.361-2.9c-87.931,0-159.468,71.537-159.468,159.469a160.131,160.131,0,0,0,2.958,30.662Zm285.471-134.078a2.837,2.837,0,1,0,2.837,2.838A2.839,2.839,0,0,0,1942.882,1165.146Zm0-19.3a2.837,2.837,0,1,0,2.837,2.837A2.839,2.839,0,0,0,1942.882,1145.846Zm-19.3,0a2.837,2.837,0,1,0,2.838,2.837A2.839,2.839,0,0,0,1923.581,1145.846Zm19.3-19.3a2.837,2.837,0,1,0,2.837,2.838A2.839,2.839,0,0,0,1942.882,1126.545Zm-19.3,0a2.837,2.837,0,1,0,2.838,2.838A2.839,2.839,0,0,0,1923.581,1126.545Zm-19.3,0a2.837,2.837,0,1,0,2.838,2.838A2.839,2.839,0,0,0,1904.279,1126.545Zm19.3-19.3a2.837,2.837,0,1,0,2.838,2.837A2.839,2.839,0,0,0,1923.581,1107.244Zm-19.3,0a2.837,2.837,0,1,0,2.838,2.837A2.838,2.838,0,0,0,1904.279,1107.244Zm-19.3,0a2.837,2.837,0,1,0,2.838,2.837A2.839,2.839,0,0,0,1884.979,1107.244Zm-19.3,0a2.837,2.837,0,1,0,2.838,2.837A2.838,2.838,0,0,0,1865.677,1107.244Zm19.3-19.3a2.837,2.837,0,1,0,2.838,2.837A2.839,2.839,0,0,0,1884.979,1087.943Zm-19.3,0a2.837,2.837,0,1,0,2.838,2.837A2.838,2.838,0,0,0,1865.677,1087.943Zm-19.3,0a2.837,2.837,0,1,0,2.837,2.837A2.839,2.839,0,0,0,1846.377,1087.943Zm-229.234,211.282H1578.7a239.415,239.415,0,0,1-1.973-30.662c0-130.789,106.4-237.193,237.19-237.193a239.639,239.639,0,0,1,29.64,1.842,2.836,2.836,0,0,0,5.439.745,235.628,235.628,0,0,1,55.52,15.395c-.081-.006-.159-.01-.241-.01a2.839,2.839,0,1,0,1.846.683,237.509,237.509,0,0,1,35.661,18.837,2.837,2.837,0,1,0,3.933,2.618v-.036a238.982,238.982,0,0,1,76.512,83.766,235.743,235.743,0,0,1,28.881,113.354,239.451,239.451,0,0,1-1.973,30.662H2010.7a200.018,200.018,0,0,0-5.379-85.705,198.224,198.224,0,0,0-21.762-49.162,200.46,200.46,0,0,0-76.92-72,2.836,2.836,0,1,0-5.017-2.56,197.594,197.594,0,0,0-52.606-17.275,2.8,2.8,0,0,0,.2-1.044,2.836,2.836,0,1,0-5.671,0c0,.054,0,.1,0,.147a200.535,200.535,0,0,0-29.625-2.2c-109.8,0-199.135,89.332-199.135,199.135a200.518,200.518,0,0,0,2.357,30.662Zm325.739-191.981a2.837,2.837,0,1,0,2.837,2.837A2.839,2.839,0,0,0,1942.882,1107.244Zm0-19.3a2.837,2.837,0,1,0,2.837,2.837A2.839,2.839,0,0,0,1942.882,1087.943Zm-19.3,0a2.837,2.837,0,1,0,2.838,2.837A2.839,2.839,0,0,0,1923.581,1087.943Zm0-19.3a2.837,2.837,0,1,0,2.838,2.838A2.839,2.839,0,0,0,1923.581,1068.641Zm-19.3,0a2.837,2.837,0,1,0,2.838,2.838A2.839,2.839,0,0,0,1904.279,1068.641Zm-19.3,0a2.837,2.837,0,1,0,2.838,2.838A2.839,2.839,0,0,0,1884.979,1068.641Zm-19.3,0a2.837,2.837,0,1,0,2.838,2.838A2.839,2.839,0,0,0,1865.677,1068.641Zm19.3-19.3a2.837,2.837,0,1,0,2.838,2.837A2.839,2.839,0,0,0,1884.979,1049.34Zm-19.3,0a2.837,2.837,0,1,0,2.838,2.837A2.838,2.838,0,0,0,1865.677,1049.34Zm-19.3,0a2.837,2.837,0,1,0,2.837,2.837A2.839,2.839,0,0,0,1846.377,1049.34Zm-269.3,249.885h-38.331a279.931,279.931,0,0,1-1.686-30.662,277.515,277.515,0,0,1,128.75-233.825,309.53,309.53,0,0,0,76.583-33.667,276.791,276.791,0,0,1,71.524-9.365,279.873,279.873,0,0,1,29.794,1.592,2.836,2.836,0,1,0,5.5.978,2.989,2.989,0,0,0-.02-.334c4.8.612,9.63,1.36,14.367,2.221a2.835,2.835,0,0,0,3.4.641,275.083,275.083,0,0,1,53.812,16.352,2.81,2.81,0,0,0-.031.42,2.835,2.835,0,0,0,5.065,1.753,277.061,277.061,0,0,1,163.28,283.894h-38.331a241.122,241.122,0,0,0,1.959-30.662,237.317,237.317,0,0,0-30.849-117.31,239.979,239.979,0,0,0-116.8-103.414,237.485,237.485,0,0,0-38.569-12.245,2.835,2.835,0,1,0-2.7-.593c-4.81-1.026-9.733-1.916-14.632-2.644a2.836,2.836,0,0,0-5.333-.731,241.208,241.208,0,0,0-29.911-1.864c-131.674,0-238.8,107.126-238.8,238.8a241.075,241.075,0,0,0,1.959,30.662Zm365.8-249.885a2.837,2.837,0,1,0,2.837,2.837A2.839,2.839,0,0,0,1942.882,1049.34Zm-19.3,0a2.837,2.837,0,1,0,2.838,2.837A2.839,2.839,0,0,0,1923.581,1049.34Zm19.3-19.3a2.837,2.837,0,1,0,2.837,2.838A2.839,2.839,0,0,0,1942.882,1030.039Zm-19.3,0a2.837,2.837,0,1,0,2.838,2.838A2.839,2.839,0,0,0,1923.581,1030.039Zm-19.3,0a2.837,2.837,0,1,0,2.838,2.838A2.839,2.839,0,0,0,1904.279,1030.039Zm-19.3,0a2.837,2.837,0,1,0,2.838,2.838A2.839,2.839,0,0,0,1884.979,1030.039Zm19.3-19.3a2.837,2.837,0,1,0,2.838,2.837A2.838,2.838,0,0,0,1904.279,1010.739Zm-19.3,0a2.837,2.837,0,1,0,2.838,2.837A2.839,2.839,0,0,0,1884.979,1010.739Zm-19.3,0a2.837,2.837,0,1,0,2.838,2.837A2.838,2.838,0,0,0,1865.677,1010.739Zm-19.3,0a2.837,2.837,0,1,0,2.837,2.837A2.839,2.839,0,0,0,1846.377,1010.739Zm122.415,288.486H1659.05a158.5,158.5,0,0,1-2.989-30.662c0-87.044,70.816-157.86,157.86-157.86a156.9,156.9,0,0,1,69.655,16.213,2.837,2.837,0,1,0,4.241,2.467,2.763,2.763,0,0,0-.016-.3,158.938,158.938,0,0,1,60.709,57.057,157.894,157.894,0,0,1,20.283,113.086Zm-25.91-114.777a2.837,2.837,0,1,0,2.837,2.837A2.839,2.839,0,0,0,1942.882,1184.448Zm-19.3,0a2.837,2.837,0,1,0,2.838,2.837A2.839,2.839,0,0,0,1923.581,1184.448Zm-19.3,0a2.837,2.837,0,1,0,2.838,2.837A2.838,2.838,0,0,0,1904.279,1184.448Zm-19.3,0a2.837,2.837,0,1,0,2.838,2.837A2.839,2.839,0,0,0,1884.979,1184.448Zm-19.3,0a2.837,2.837,0,1,0,2.838,2.837A2.838,2.838,0,0,0,1865.677,1184.448Zm-19.3,0a2.837,2.837,0,1,0,2.837,2.837A2.839,2.839,0,0,0,1846.377,1184.448Zm77.2-19.3a2.837,2.837,0,1,0,2.838,2.838A2.839,2.839,0,0,0,1923.581,1165.146Zm-19.3,0a2.837,2.837,0,1,0,2.838,2.838A2.839,2.839,0,0,0,1904.279,1165.146Zm-19.3,0a2.837,2.837,0,1,0,2.838,2.838A2.839,2.839,0,0,0,1884.979,1165.146Zm-19.3,0a2.837,2.837,0,1,0,2.838,2.838A2.839,2.839,0,0,0,1865.677,1165.146Zm-19.3,0a2.837,2.837,0,1,0,2.837,2.838A2.839,2.839,0,0,0,1846.377,1165.146Zm57.9-19.3a2.837,2.837,0,1,0,2.838,2.837A2.838,2.838,0,0,0,1904.279,1145.846Zm-19.3,0a2.837,2.837,0,1,0,2.838,2.837A2.839,2.839,0,0,0,1884.979,1145.846Zm-19.3,0a2.837,2.837,0,1,0,2.838,2.837A2.838,2.838,0,0,0,1865.677,1145.846Zm-19.3,0a2.837,2.837,0,1,0,2.837,2.837A2.839,2.839,0,0,0,1846.377,1145.846Zm19.3-19.3a2.837,2.837,0,1,0,2.838,2.838A2.839,2.839,0,0,0,1865.677,1126.545Zm-19.3,0a2.837,2.837,0,1,0,2.837,2.838A2.839,2.839,0,0,0,1846.377,1126.545ZM649.992,1299.224H193.771v-43.476l.672.673,133.4-133.4a2.834,2.834,0,1,0,1.083-1.083l18.217-18.217a2.836,2.836,0,1,0,1.085-1.085l18.217-18.216a2.833,2.833,0,1,0,1.083-1.084L602.045,848.82l-2.274-2.274-406,406V1126.863a2.837,2.837,0,1,0,0-4.9v-14.406a2.837,2.837,0,1,0,0-4.9v-14.405a2.837,2.837,0,1,0,0-4.9V1068.96a2.837,2.837,0,1,0,0-4.9v-14.405a2.837,2.837,0,1,0,0-4.9v-14.4a2.837,2.837,0,1,0,0-4.9v-14.406a2.837,2.837,0,1,0,0-4.9v-14.4a2.837,2.837,0,1,0,0-4.9V972.455a2.837,2.837,0,1,0,0-4.9v-14.4a2.837,2.837,0,1,0,0-4.9V933.853a2.837,2.837,0,1,0,0-4.9V914.552a2.837,2.837,0,1,0,0-4.9V895.251a2.837,2.837,0,1,0,0-4.9V875.95a2.837,2.837,0,1,0,0-4.9v-14.4a2.837,2.837,0,1,0,0-4.9V837.348a2.837,2.837,0,1,0,0-4.9V819.23a165.667,165.667,0,0,0,18.449-5.31,2.837,2.837,0,1,0,2.966-1.076,154.731,154.731,0,0,0,29.724-14.827A229.324,229.324,0,0,0,270.3,778.892a2.837,2.837,0,0,0,4.253-3.755c5.131-4.628,10.365-9.708,15.555-15.1a2.837,2.837,0,0,0,3.855-4.067c4.751-5.091,9.488-10.443,14.483-16.363a2.838,2.838,0,1,0,3.3-3.952c11.3-13.648,22.1-27.987,32.545-41.854l.013-.017.061-.081c7.491-9.949,15.238-20.237,23.042-30.106a2.837,2.837,0,0,0,3.519-4.4,424.651,424.651,0,0,1,30.242-33.8,314.986,314.986,0,0,0,119.273-61.617c2.342-.118,4.74-.177,7.13-.177,34.638,0,68.98,12.275,102.192,24.146l.061.022c32.828,11.738,66.774,23.876,100.85,23.876a129.947,129.947,0,0,0,27.5-2.866c31.885-6.919,59.036-26.495,85.294-45.425l0,0,.164-.117c10.743-7.741,21.852-15.746,33.135-22.77,77.022-47.931,174.011-56.618,251.944-63.6h.015c87.476-7.834,177.93-15.934,253.878-60.036,38.7-22.472,71.172-56.166,91.442-94.877a191.223,191.223,0,0,0,18.461-51.244,154.159,154.159,0,0,0,1.811-50.481h618.443V1158.9a315.036,315.036,0,0,0-30.347-61.295,322.6,322.6,0,0,0-88.558-91.586,315.889,315.889,0,0,0-50.423-28.266,2.834,2.834,0,1,0-2.985-1.31,315.518,315.518,0,0,0-54.932-17.988,2.834,2.834,0,1,0-2.229-.5c-4.875-1.077-9.871-2.057-14.851-2.91a2.855,2.855,0,0,0-2.768-2.211,2.814,2.814,0,0,0-2.423,1.364,324.249,324.249,0,0,0-49.333-3.77c-3.136,0-6.32.046-9.465.137a308.434,308.434,0,0,0,82.473-184.616l-1.6-.135a301.394,301.394,0,0,1-8.754,50.951,308.031,308.031,0,0,1-74.4,133.873,321.272,321.272,0,0,0-59.283,7.688,314.439,314.439,0,0,0-107.83,46.952,322.071,322.071,0,0,0-46.149,38.273c-.531.531-1,1.008-1.449,1.459-2.082.044-4.194.066-6.279.066-7.315,0-14.7-.271-21.951-.807-21.895-1.619-44.12-5.653-65.614-9.554l-.034-.006c-27.664-5.019-56.268-10.208-84.574-10.208a189.241,189.241,0,0,0-37.066,3.42c-29.416,5.815-58.058,19.561-90.139,43.259l265.164-265.164-2.274-2.275-283.833,283.833c-11.5,9.452-22.865,19.435-33.854,29.089l-.023.02c-38.094,33.469-77.484,68.075-125.08,84.165-22.606,7.642-47.591,11.357-76.381,11.358-33.639,0-68.1-5.054-101.435-9.942l-.045-.006-.665-.1c-8.763-1.284-17.824-2.611-26.688-3.818-11.709-1.591-22.311-2.771-32.412-3.609-12.376-1.027-24.295-1.547-35.424-1.547a316.5,316.5,0,0,0-34.532,1.807,236.429,236.429,0,0,0-34.349,6.276,181.144,181.144,0,0,0-32.791,12.029,147.19,147.19,0,0,0-57.1,48.6,181.526,181.526,0,0,0-20.094,37.327ZM368.915,1121.578a2.837,2.837,0,1,0,2.838,2.837A2.84,2.84,0,0,0,368.915,1121.578Zm-19.3,0a2.837,2.837,0,1,0,2.837,2.837A2.84,2.84,0,0,0,349.614,1121.578Zm-38.6,0a2.837,2.837,0,1,0,2.837,2.837A2.84,2.84,0,0,0,311.012,1121.578Zm-19.3,0a2.837,2.837,0,1,0,2.838,2.837A2.84,2.84,0,0,0,291.711,1121.578Zm-19.3,0a2.837,2.837,0,1,0,2.837,2.837A2.84,2.84,0,0,0,272.41,1121.578Zm-19.3,0a2.837,2.837,0,1,0,2.838,2.837A2.84,2.84,0,0,0,253.109,1121.578Zm-19.3,0a2.837,2.837,0,1,0,2.837,2.837A2.84,2.84,0,0,0,233.808,1121.578Zm-19.3,0a2.837,2.837,0,1,0,2.838,2.837A2.84,2.84,0,0,0,214.507,1121.578Zm154.408-19.3a2.837,2.837,0,1,0,2.838,2.837A2.84,2.84,0,0,0,368.915,1102.277Zm-38.6,0a2.837,2.837,0,1,0,2.838,2.837A2.84,2.84,0,0,0,330.313,1102.277Zm-19.3,0a2.837,2.837,0,1,0,2.837,2.837A2.841,2.841,0,0,0,311.012,1102.277Zm-19.3,0a2.837,2.837,0,1,0,2.838,2.837A2.84,2.84,0,0,0,291.711,1102.277Zm-19.3,0a2.837,2.837,0,1,0,2.837,2.837A2.841,2.841,0,0,0,272.41,1102.277Zm-19.3,0a2.837,2.837,0,1,0,2.838,2.837A2.84,2.84,0,0,0,253.109,1102.277Zm-19.3,0a2.837,2.837,0,1,0,2.837,2.837A2.841,2.841,0,0,0,233.808,1102.277Zm-19.3,0a2.837,2.837,0,1,0,2.838,2.837A2.84,2.84,0,0,0,214.507,1102.277Zm135.107-19.3a2.837,2.837,0,1,0,2.837,2.837A2.84,2.84,0,0,0,349.614,1082.976Zm-19.3,0a2.837,2.837,0,1,0,2.838,2.837A2.84,2.84,0,0,0,330.313,1082.976Zm-19.3,0a2.837,2.837,0,1,0,2.837,2.837A2.84,2.84,0,0,0,311.012,1082.976Zm-19.3,0a2.837,2.837,0,1,0,2.838,2.837A2.84,2.84,0,0,0,291.711,1082.976Zm-19.3,0a2.837,2.837,0,1,0,2.837,2.837A2.84,2.84,0,0,0,272.41,1082.976Zm-19.3,0a2.837,2.837,0,1,0,2.838,2.837A2.84,2.84,0,0,0,253.109,1082.976Zm-19.3,0a2.837,2.837,0,1,0,2.837,2.837A2.84,2.84,0,0,0,233.808,1082.976Zm-19.3,0a2.837,2.837,0,1,0,2.838,2.837A2.84,2.84,0,0,0,214.507,1082.976Zm154.408-19.3a2.837,2.837,0,1,0,2.838,2.837A2.84,2.84,0,0,0,368.915,1063.675Zm-19.3,0a2.837,2.837,0,1,0,2.837,2.837A2.84,2.84,0,0,0,349.614,1063.675Zm-19.3,0a2.837,2.837,0,1,0,2.838,2.837A2.84,2.84,0,0,0,330.313,1063.675Zm-19.3,0a2.837,2.837,0,1,0,2.837,2.837A2.84,2.84,0,0,0,311.012,1063.675Zm-19.3,0a2.837,2.837,0,1,0,2.838,2.837A2.84,2.84,0,0,0,291.711,1063.675Zm-19.3,0a2.837,2.837,0,1,0,2.837,2.837A2.84,2.84,0,0,0,272.41,1063.675Zm-19.3,0a2.837,2.837,0,1,0,2.838,2.837A2.84,2.84,0,0,0,253.109,1063.675Zm-19.3,0a2.837,2.837,0,1,0,2.837,2.837A2.84,2.84,0,0,0,233.808,1063.675Zm-19.3,0a2.837,2.837,0,1,0,2.838,2.837A2.84,2.84,0,0,0,214.507,1063.675Zm154.408-19.3a2.837,2.837,0,1,0,2.838,2.838A2.841,2.841,0,0,0,368.915,1044.374Zm-19.3,0a2.837,2.837,0,1,0,2.837,2.838A2.841,2.841,0,0,0,349.614,1044.374Zm-19.3,0a2.837,2.837,0,1,0,2.838,2.838A2.84,2.84,0,0,0,330.313,1044.374Zm-19.3,0a2.837,2.837,0,1,0,2.837,2.838A2.841,2.841,0,0,0,311.012,1044.374Zm-19.3,0a2.837,2.837,0,1,0,2.838,2.838A2.84,2.84,0,0,0,291.711,1044.374Zm-19.3,0a2.837,2.837,0,1,0,2.837,2.838A2.841,2.841,0,0,0,272.41,1044.374Zm-19.3,0a2.837,2.837,0,1,0,2.838,2.838A2.841,2.841,0,0,0,253.109,1044.374Zm-19.3,0a2.837,2.837,0,1,0,2.837,2.838A2.841,2.841,0,0,0,233.808,1044.374Zm-19.3,0a2.837,2.837,0,1,0,2.838,2.838A2.841,2.841,0,0,0,214.507,1044.374Zm154.408-19.3a2.837,2.837,0,1,0,2.838,2.837A2.84,2.84,0,0,0,368.915,1025.073Zm-19.3,0a2.837,2.837,0,1,0,2.837,2.837A2.84,2.84,0,0,0,349.614,1025.073Zm-19.3,0a2.837,2.837,0,1,0,2.838,2.837A2.84,2.84,0,0,0,330.313,1025.073Zm-19.3,0a2.837,2.837,0,1,0,2.837,2.837A2.84,2.84,0,0,0,311.012,1025.073Zm-19.3,0a2.837,2.837,0,1,0,2.838,2.837A2.84,2.84,0,0,0,291.711,1025.073Zm-19.3,0a2.837,2.837,0,1,0,2.837,2.837A2.84,2.84,0,0,0,272.41,1025.073Zm-19.3,0a2.837,2.837,0,1,0,2.838,2.837A2.84,2.84,0,0,0,253.109,1025.073Zm-19.3,0a2.837,2.837,0,1,0,2.837,2.837A2.84,2.84,0,0,0,233.808,1025.073Zm-19.3,0a2.837,2.837,0,1,0,2.838,2.837A2.84,2.84,0,0,0,214.507,1025.073Zm154.408-19.3a2.837,2.837,0,1,0,2.838,2.838A2.841,2.841,0,0,0,368.915,1005.772Zm-19.3,0a2.837,2.837,0,1,0,2.837,2.838A2.841,2.841,0,0,0,349.614,1005.772Zm-19.3,0a2.837,2.837,0,1,0,2.838,2.838A2.84,2.84,0,0,0,330.313,1005.772Zm-19.3,0a2.837,2.837,0,1,0,2.837,2.838A2.841,2.841,0,0,0,311.012,1005.772Zm-19.3,0a2.837,2.837,0,1,0,2.838,2.838A2.84,2.84,0,0,0,291.711,1005.772Zm-19.3,0a2.837,2.837,0,1,0,2.837,2.838A2.841,2.841,0,0,0,272.41,1005.772Zm-19.3,0a2.837,2.837,0,1,0,2.838,2.838A2.841,2.841,0,0,0,253.109,1005.772Zm-19.3,0a2.837,2.837,0,1,0,2.837,2.838A2.841,2.841,0,0,0,233.808,1005.772Zm-19.3,0a2.837,2.837,0,1,0,2.838,2.838A2.841,2.841,0,0,0,214.507,1005.772Zm154.408-19.3a2.837,2.837,0,1,0,2.838,2.837A2.84,2.84,0,0,0,368.915,986.471Zm-19.3,0a2.837,2.837,0,1,0,2.837,2.837A2.841,2.841,0,0,0,349.614,986.471Zm-19.3,0a2.837,2.837,0,1,0,2.838,2.837A2.84,2.84,0,0,0,330.313,986.471Zm-19.3,0a2.837,2.837,0,1,0,2.837,2.837A2.841,2.841,0,0,0,311.012,986.471Zm-19.3,0a2.837,2.837,0,1,0,2.838,2.837A2.84,2.84,0,0,0,291.711,986.471Zm-19.3,0a2.837,2.837,0,1,0,2.837,2.837A2.841,2.841,0,0,0,272.41,986.471Zm-19.3,0a2.837,2.837,0,1,0,2.838,2.837A2.84,2.84,0,0,0,253.109,986.471Zm-19.3,0a2.837,2.837,0,1,0,2.837,2.837A2.841,2.841,0,0,0,233.808,986.471Zm-19.3,0a2.837,2.837,0,1,0,2.838,2.837A2.84,2.84,0,0,0,214.507,986.471Zm154.408-19.3a2.837,2.837,0,1,0,2.838,2.838A2.841,2.841,0,0,0,368.915,967.17Zm-19.3,0a2.837,2.837,0,1,0,2.837,2.838A2.841,2.841,0,0,0,349.614,967.17Zm-19.3,0a2.837,2.837,0,1,0,2.838,2.838A2.841,2.841,0,0,0,330.313,967.17Zm-19.3,0a2.837,2.837,0,1,0,2.837,2.838A2.841,2.841,0,0,0,311.012,967.17Zm-19.3,0a2.837,2.837,0,1,0,2.838,2.838A2.841,2.841,0,0,0,291.711,967.17Zm-19.3,0a2.837,2.837,0,1,0,2.837,2.838A2.841,2.841,0,0,0,272.41,967.17Zm-19.3,0a2.837,2.837,0,1,0,2.838,2.838A2.841,2.841,0,0,0,253.109,967.17Zm-19.3,0a2.837,2.837,0,1,0,2.837,2.838A2.841,2.841,0,0,0,233.808,967.17Zm-19.3,0a2.837,2.837,0,1,0,2.838,2.838A2.841,2.841,0,0,0,214.507,967.17Zm1728.376-14.334a2.837,2.837,0,1,0,2.837,2.838A2.839,2.839,0,0,0,1942.882,952.835Zm-19.3,0a2.837,2.837,0,1,0,2.838,2.838A2.839,2.839,0,0,0,1923.581,952.835Zm-19.3,0a2.837,2.837,0,1,0,2.838,2.838A2.839,2.839,0,0,0,1904.279,952.835ZM368.915,947.869a2.837,2.837,0,1,0,2.838,2.837A2.84,2.84,0,0,0,368.915,947.869Zm-19.3,0a2.837,2.837,0,1,0,2.837,2.837A2.841,2.841,0,0,0,349.614,947.869Zm-19.3,0a2.837,2.837,0,1,0,2.838,2.837A2.84,2.84,0,0,0,330.313,947.869Zm-19.3,0a2.837,2.837,0,1,0,2.837,2.837A2.841,2.841,0,0,0,311.012,947.869Zm-19.3,0a2.837,2.837,0,1,0,2.838,2.837A2.84,2.84,0,0,0,291.711,947.869Zm-19.3,0a2.837,2.837,0,1,0,2.837,2.837A2.841,2.841,0,0,0,272.41,947.869Zm-19.3,0a2.837,2.837,0,1,0,2.838,2.837A2.84,2.84,0,0,0,253.109,947.869Zm-19.3,0a2.837,2.837,0,1,0,2.837,2.837A2.841,2.841,0,0,0,233.808,947.869Zm-19.3,0a2.837,2.837,0,1,0,2.838,2.837A2.84,2.84,0,0,0,214.507,947.869Zm1728.376-14.334a2.837,2.837,0,1,0,2.837,2.837A2.839,2.839,0,0,0,1942.882,933.535Zm-19.3,0a2.837,2.837,0,1,0,2.838,2.837A2.839,2.839,0,0,0,1923.581,933.535Zm-19.3,0a2.837,2.837,0,1,0,2.838,2.837A2.838,2.838,0,0,0,1904.279,933.535Zm-19.3,0a2.837,2.837,0,1,0,2.838,2.837A2.839,2.839,0,0,0,1884.979,933.535Zm-19.3,0a2.837,2.837,0,1,0,2.838,2.837A2.838,2.838,0,0,0,1865.677,933.535Zm-19.3,0a2.837,2.837,0,1,0,2.837,2.837A2.839,2.839,0,0,0,1846.377,933.535ZM368.915,928.568a2.837,2.837,0,1,0,2.838,2.838A2.841,2.841,0,0,0,368.915,928.568Zm-19.3,0a2.837,2.837,0,1,0,2.837,2.838A2.841,2.841,0,0,0,349.614,928.568Zm-19.3,0a2.837,2.837,0,1,0,2.838,2.838A2.84,2.84,0,0,0,330.313,928.568Zm-19.3,0a2.837,2.837,0,1,0,2.837,2.838A2.841,2.841,0,0,0,311.012,928.568Zm-19.3,0a2.837,2.837,0,1,0,2.838,2.838A2.84,2.84,0,0,0,291.711,928.568Zm-19.3,0a2.837,2.837,0,1,0,2.837,2.838A2.841,2.841,0,0,0,272.41,928.568Zm-19.3,0a2.837,2.837,0,1,0,2.838,2.838A2.841,2.841,0,0,0,253.109,928.568Zm-19.3,0a2.837,2.837,0,1,0,2.837,2.838A2.841,2.841,0,0,0,233.808,928.568Zm-19.3,0a2.837,2.837,0,1,0,2.838,2.838A2.84,2.84,0,0,0,214.507,928.568Zm1728.376-14.334a2.837,2.837,0,1,0,2.837,2.838A2.839,2.839,0,0,0,1942.882,914.234Zm-19.3,0a2.837,2.837,0,1,0,2.838,2.838A2.839,2.839,0,0,0,1923.581,914.234Zm-19.3,0a2.837,2.837,0,1,0,2.838,2.838A2.839,2.839,0,0,0,1904.279,914.234Zm-19.3,0a2.837,2.837,0,1,0,2.838,2.838A2.839,2.839,0,0,0,1884.979,914.234Zm-19.3,0a2.837,2.837,0,1,0,2.838,2.838A2.839,2.839,0,0,0,1865.677,914.234Zm-19.3,0a2.837,2.837,0,1,0,2.837,2.838A2.839,2.839,0,0,0,1846.377,914.234ZM368.915,909.267a2.837,2.837,0,1,0,2.838,2.837A2.84,2.84,0,0,0,368.915,909.267Zm-19.3,0a2.837,2.837,0,1,0,2.837,2.837A2.84,2.84,0,0,0,349.614,909.267Zm-19.3,0a2.837,2.837,0,1,0,2.838,2.837A2.84,2.84,0,0,0,330.313,909.267Zm-19.3,0a2.837,2.837,0,1,0,2.837,2.837A2.84,2.84,0,0,0,311.012,909.267Zm-19.3,0a2.837,2.837,0,1,0,2.838,2.837A2.84,2.84,0,0,0,291.711,909.267Zm-19.3,0a2.837,2.837,0,1,0,2.837,2.837A2.84,2.84,0,0,0,272.41,909.267Zm-19.3,0a2.837,2.837,0,1,0,2.838,2.837A2.84,2.84,0,0,0,253.109,909.267Zm-19.3,0a2.837,2.837,0,1,0,2.837,2.837A2.84,2.84,0,0,0,233.808,909.267Zm-19.3,0a2.837,2.837,0,1,0,2.838,2.837A2.84,2.84,0,0,0,214.507,909.267Zm154.408-19.3a2.837,2.837,0,1,0,2.838,2.837A2.84,2.84,0,0,0,368.915,889.966Zm-19.3,0a2.837,2.837,0,1,0,2.837,2.837A2.841,2.841,0,0,0,349.614,889.966Zm-19.3,0a2.837,2.837,0,1,0,2.838,2.837A2.84,2.84,0,0,0,330.313,889.966Zm-19.3,0a2.837,2.837,0,1,0,2.837,2.837A2.841,2.841,0,0,0,311.012,889.966Zm-19.3,0a2.837,2.837,0,1,0,2.838,2.837A2.84,2.84,0,0,0,291.711,889.966Zm-19.3,0a2.837,2.837,0,1,0,2.837,2.837A2.841,2.841,0,0,0,272.41,889.966Zm-19.3,0a2.837,2.837,0,1,0,2.838,2.837A2.84,2.84,0,0,0,253.109,889.966Zm-19.3,0a2.837,2.837,0,1,0,2.837,2.837A2.841,2.841,0,0,0,233.808,889.966Zm-19.3,0a2.837,2.837,0,1,0,2.838,2.837A2.84,2.84,0,0,0,214.507,889.966Zm154.408-19.3a2.837,2.837,0,1,0,2.838,2.838A2.841,2.841,0,0,0,368.915,870.665Zm-19.3,0a2.837,2.837,0,1,0,2.837,2.838A2.841,2.841,0,0,0,349.614,870.665Zm-19.3,0a2.837,2.837,0,1,0,2.838,2.838A2.84,2.84,0,0,0,330.313,870.665Zm-19.3,0a2.837,2.837,0,1,0,2.837,2.838A2.841,2.841,0,0,0,311.012,870.665Zm-19.3,0a2.837,2.837,0,1,0,2.838,2.838A2.84,2.84,0,0,0,291.711,870.665Zm-19.3,0a2.837,2.837,0,1,0,2.837,2.838A2.841,2.841,0,0,0,272.41,870.665Zm-19.3,0a2.837,2.837,0,1,0,2.838,2.838A2.841,2.841,0,0,0,253.109,870.665Zm-19.3,0a2.837,2.837,0,1,0,2.837,2.838A2.841,2.841,0,0,0,233.808,870.665Zm-19.3,0a2.837,2.837,0,1,0,2.838,2.838A2.84,2.84,0,0,0,214.507,870.665Zm154.408-19.3a2.837,2.837,0,1,0,2.838,2.837A2.84,2.84,0,0,0,368.915,851.364Zm-19.3,0a2.837,2.837,0,1,0,2.837,2.837A2.84,2.84,0,0,0,349.614,851.364Zm-19.3,0a2.837,2.837,0,1,0,2.838,2.837A2.84,2.84,0,0,0,330.313,851.364Zm-19.3,0a2.837,2.837,0,1,0,2.837,2.837A2.84,2.84,0,0,0,311.012,851.364Zm-19.3,0a2.837,2.837,0,1,0,2.838,2.837A2.84,2.84,0,0,0,291.711,851.364Zm-19.3,0a2.837,2.837,0,1,0,2.837,2.837A2.84,2.84,0,0,0,272.41,851.364Zm-19.3,0a2.837,2.837,0,1,0,2.838,2.837A2.84,2.84,0,0,0,253.109,851.364Zm-19.3,0a2.837,2.837,0,1,0,2.837,2.837A2.84,2.84,0,0,0,233.808,851.364Zm-19.3,0a2.837,2.837,0,1,0,2.838,2.837A2.84,2.84,0,0,0,214.507,851.364ZM670.681,640.976,460.041,851.616l2.274,2.274,210.639-210.64ZM368.915,832.063a2.837,2.837,0,1,0,2.838,2.838A2.841,2.841,0,0,0,368.915,832.063Zm-19.3,0a2.837,2.837,0,1,0,2.837,2.838A2.841,2.841,0,0,0,349.614,832.063Zm-19.3,0a2.837,2.837,0,1,0,2.838,2.838A2.84,2.84,0,0,0,330.313,832.063Zm-19.3,0a2.837,2.837,0,1,0,2.837,2.838A2.841,2.841,0,0,0,311.012,832.063Zm-19.3,0a2.837,2.837,0,1,0,2.838,2.838A2.84,2.84,0,0,0,291.711,832.063Zm-19.3,0a2.837,2.837,0,1,0,2.837,2.838A2.841,2.841,0,0,0,272.41,832.063Zm-19.3,0a2.837,2.837,0,1,0,2.838,2.838A2.841,2.841,0,0,0,253.109,832.063Zm-19.3,0a2.837,2.837,0,1,0,2.837,2.838A2.841,2.841,0,0,0,233.808,832.063Zm-19.3,0a2.837,2.837,0,1,0,2.838,2.838A2.841,2.841,0,0,0,214.507,832.063Zm154.408-19.3a2.837,2.837,0,1,0,2.838,2.837A2.84,2.84,0,0,0,368.915,812.762Zm-19.3,0a2.837,2.837,0,1,0,2.837,2.837A2.841,2.841,0,0,0,349.614,812.762Zm-19.3,0a2.837,2.837,0,1,0,2.838,2.837A2.84,2.84,0,0,0,330.313,812.762Zm-19.3,0a2.837,2.837,0,1,0,2.837,2.837A2.841,2.841,0,0,0,311.012,812.762Zm-19.3,0a2.837,2.837,0,1,0,2.838,2.837A2.84,2.84,0,0,0,291.711,812.762Zm-19.3,0a2.837,2.837,0,1,0,2.837,2.837A2.841,2.841,0,0,0,272.41,812.762Zm-19.3,0a2.837,2.837,0,1,0,2.838,2.837A2.84,2.84,0,0,0,253.109,812.762Zm-19.3,0a2.837,2.837,0,1,0,2.837,2.837A2.841,2.841,0,0,0,233.808,812.762Zm135.106-19.3a2.837,2.837,0,1,0,2.838,2.838A2.841,2.841,0,0,0,368.915,793.461Zm-19.3,0a2.837,2.837,0,1,0,2.837,2.838A2.841,2.841,0,0,0,349.614,793.461Zm-19.3,0a2.837,2.837,0,1,0,2.838,2.838A2.841,2.841,0,0,0,330.313,793.461Zm-19.3,0a2.837,2.837,0,1,0,2.837,2.838A2.841,2.841,0,0,0,311.012,793.461Zm-19.3,0a2.837,2.837,0,1,0,2.838,2.838A2.841,2.841,0,0,0,291.711,793.461Zm-19.3,0a2.837,2.837,0,1,0,2.837,2.838A2.841,2.841,0,0,0,272.41,793.461Zm-19.3,0a2.837,2.837,0,1,0,2.838,2.838A2.841,2.841,0,0,0,253.109,793.461Zm115.806-19.3A2.837,2.837,0,1,0,371.752,777,2.84,2.84,0,0,0,368.915,774.16Zm-19.3,0A2.837,2.837,0,1,0,352.451,777,2.841,2.841,0,0,0,349.614,774.16Zm-19.3,0A2.837,2.837,0,1,0,333.15,777,2.84,2.84,0,0,0,330.313,774.16Zm-19.3,0A2.837,2.837,0,1,0,313.849,777,2.841,2.841,0,0,0,311.012,774.16Zm-19.3,0A2.837,2.837,0,1,0,294.548,777,2.84,2.84,0,0,0,291.711,774.16Zm77.2-19.3a2.837,2.837,0,1,0,2.838,2.838A2.841,2.841,0,0,0,368.915,754.859Zm-19.3,0a2.837,2.837,0,1,0,2.837,2.838A2.841,2.841,0,0,0,349.614,754.859Zm-19.3,0a2.837,2.837,0,1,0,2.838,2.838A2.84,2.84,0,0,0,330.313,754.859Zm-19.3,0a2.837,2.837,0,1,0,2.837,2.838A2.841,2.841,0,0,0,311.012,754.859Zm57.9-19.3a2.837,2.837,0,1,0,2.838,2.838A2.841,2.841,0,0,0,368.915,735.557Zm-19.3,0a2.837,2.837,0,1,0,2.837,2.838A2.841,2.841,0,0,0,349.614,735.557Zm-19.3,0a2.837,2.837,0,1,0,2.838,2.838A2.841,2.841,0,0,0,330.313,735.557Zm38.6-19.3a2.837,2.837,0,1,0,2.838,2.837A2.84,2.84,0,0,0,368.915,716.257Zm-19.3,0a2.837,2.837,0,1,0,2.837,2.837A2.841,2.841,0,0,0,349.614,716.257Zm-19.3,0a2.837,2.837,0,1,0,2.838,2.837A2.84,2.84,0,0,0,330.313,716.257Zm38.6-19.3a2.837,2.837,0,1,0,2.838,2.838A2.841,2.841,0,0,0,368.915,696.956Zm-19.3,0a2.837,2.837,0,1,0,2.837,2.838A2.841,2.841,0,0,0,349.614,696.956Zm19.3-19.3a2.837,2.837,0,1,0,2.838,2.837A2.84,2.84,0,0,0,368.915,677.655Zm1743.856,621.569H2090.71a278.663,278.663,0,0,0-164.3-285.39c.008-.089.012-.173.012-.258a2.837,2.837,0,0,0-4.962-1.879,276.834,276.834,0,0,0-53.183-16.276,2.809,2.809,0,0,0,.241-1.146,2.835,2.835,0,1,0-5.671,0c0,.041,0,.083,0,.124-4.789-.852-9.676-1.589-14.525-2.189a2.835,2.835,0,0,0-3.359-.4,281.552,281.552,0,0,0-31.041-1.719,278.663,278.663,0,0,0-67.006,8.149,299.8,299.8,0,0,0,55.969-46.017c3.666-.126,7.379-.19,11.037-.19,10.216,0,20.519.495,30.623,1.47a2.837,2.837,0,1,0,4.067.418c4.749.52,9.539,1.155,14.236,1.887a2.835,2.835,0,0,0,5.469.9,314.155,314.155,0,0,1,80.968,25.753,318.355,318.355,0,0,1,163.485,181.738Zm-169.889-288.485a2.837,2.837,0,1,0,2.837,2.837A2.839,2.839,0,0,0,1942.882,1010.739Zm0-19.3a2.837,2.837,0,1,0,2.837,2.838A2.839,2.839,0,0,0,1942.882,991.437Zm-19.3,0a2.837,2.837,0,1,0,2.838,2.838A2.839,2.839,0,0,0,1923.581,991.437Zm-19.3,0a2.837,2.837,0,1,0,2.838,2.838A2.839,2.839,0,0,0,1904.279,991.437Zm-19.3,0a2.837,2.837,0,1,0,2.838,2.838A2.839,2.839,0,0,0,1884.979,991.437Zm38.6-19.3a2.837,2.837,0,1,0,2.838,2.837A2.839,2.839,0,0,0,1923.581,972.137Zm-19.3,0a2.837,2.837,0,1,0,2.838,2.837A2.838,2.838,0,0,0,1904.279,972.137Zm-19.3,0a2.837,2.837,0,1,0,2.838,2.837A2.839,2.839,0,0,0,1884.979,972.137Zm-19.3,0a2.837,2.837,0,1,0,2.838,2.837A2.838,2.838,0,0,0,1865.677,972.137Zm-19.3,0a2.837,2.837,0,1,0,2.837,2.837A2.839,2.839,0,0,0,1846.377,972.137Zm-309.244,327.087h-38.262c-.978-10.127-1.473-20.443-1.473-30.662a316.148,316.148,0,0,1,91.075-221.961,307.944,307.944,0,0,0,72.18-10.433,278.153,278.153,0,0,0-125.2,232.394,281.3,281.3,0,0,0,1.677,30.661Zm-39.9,0H1053.766L1273.4,1079.591c8.036-6.265,15.51-11.7,22.848-16.624a271.7,271.7,0,0,1,23.914-14.413,209.373,209.373,0,0,1,25.248-11.418,174.813,174.813,0,0,1,26.85-7.637,187.548,187.548,0,0,1,36.736-3.387c28.2,0,56.738,5.179,84.336,10.187,21.53,3.909,43.793,7.951,65.784,9.577,7.295.539,14.715.812,22.053.812,1.562,0,3.139-.012,4.688-.036a316.365,316.365,0,0,0-90.067,221.91c0,10.228.486,20.544,1.446,30.661Zm-133.083-161.737-75.233,75.222,2.275,2.275,75.233-75.223Zm-311.517,161.737H651.727A179.516,179.516,0,0,1,671.56,1262.6a145.5,145.5,0,0,1,56.376-47.878,179.7,179.7,0,0,1,32.522-11.915,234.892,234.892,0,0,1,34.09-6.218,314.752,314.752,0,0,1,34.291-1.791c11.093,0,22.975.52,35.316,1.545,10.066.835,20.639,2.014,32.322,3.6,9.289,1.259,18.85,2.663,27.285,3.9l.045.007c33.411,4.9,67.96,9.967,101.721,9.967,28.959,0,54.112-3.744,76.895-11.446,47.905-16.195,87.417-50.909,125.627-84.48l.228-.2c6.293-5.528,12.8-11.244,19.294-16.822l-196.644,196.645,1.707,1.707,0,0h0Zm537.48-254.279,0,0A317.785,317.785,0,0,1,1684.98,979.5a314.371,314.371,0,0,1,115.591-27.184c-6.679,6.925-13.751,13.582-21.02,19.788a301.019,301.019,0,0,1-37.8,27.473,276.9,276.9,0,0,0-76.6,33.676,306.541,306.541,0,0,1-75.034,11.691Zm80.9-13.428v0a275.614,275.614,0,0,1,65.535-28.809A308.5,308.5,0,0,1,1671.011,1031.517ZM197.859,816.607v0a2.838,2.838,0,0,0-4.089-3.454V798.746a2.837,2.837,0,1,0,0-4.9v-14.4a2.837,2.837,0,1,0,0-4.9V760.144a2.837,2.837,0,1,0,0-4.9V740.843a2.837,2.837,0,1,0,0-4.9v-14.4a2.837,2.837,0,1,0,0-4.9V702.241a2.837,2.837,0,1,0,0-4.9v-14.4a2.837,2.837,0,1,0,0-4.9V663.639a2.837,2.837,0,1,0,0-4.9v-14.4a2.837,2.837,0,1,0,0-4.9V625.037a2.837,2.837,0,1,0,0-4.9v-8.964a315.475,315.475,0,0,0,37.9,13.281,2.84,2.84,0,0,0,3.015.829A322.8,322.8,0,0,0,398.1,626.2c-9.445,9.558-19.07,20.395-28.607,32.211a2.839,2.839,0,0,0-3.159,3.954c-4.1,5.188-8.517,10.9-13.885,17.965a2.835,2.835,0,1,0-2.223,2.933c-2.409,3.183-4.786,6.34-7.085,9.393l-.119.157c-10.846,14.4-22.062,29.295-33.844,43.417a2.847,2.847,0,0,0-.621.743c-5.52,6.593-10.723,12.495-15.907,18.043a2.839,2.839,0,0,0-3.562,3.759c-5.327,5.541-10.7,10.747-15.957,15.476A2.841,2.841,0,0,0,269.573,777a2.878,2.878,0,0,0,.024.375,227.883,227.883,0,0,1-25.559,19.3A151.217,151.217,0,0,1,222,808.377a163.148,163.148,0,0,1-24.143,8.23Zm35.95-23.146a2.837,2.837,0,1,0,2.837,2.838A2.841,2.841,0,0,0,233.808,793.461Zm-19.3,0a2.837,2.837,0,1,0,2.838,2.838A2.841,2.841,0,0,0,214.507,793.461Zm38.6-19.3A2.837,2.837,0,1,0,255.947,777,2.84,2.84,0,0,0,253.109,774.16Zm-19.3,0A2.837,2.837,0,1,0,236.645,777,2.841,2.841,0,0,0,233.808,774.16Zm-19.3,0A2.837,2.837,0,1,0,217.345,777,2.84,2.84,0,0,0,214.507,774.16Zm57.9-19.3a2.837,2.837,0,1,0,2.837,2.838A2.841,2.841,0,0,0,272.41,754.859Zm-19.3,0a2.837,2.837,0,1,0,2.838,2.838A2.841,2.841,0,0,0,253.109,754.859Zm-19.3,0a2.837,2.837,0,1,0,2.837,2.838A2.841,2.841,0,0,0,233.808,754.859Zm-19.3,0a2.837,2.837,0,1,0,2.838,2.838A2.84,2.84,0,0,0,214.507,754.859Zm77.2-19.3a2.837,2.837,0,1,0,2.838,2.838A2.841,2.841,0,0,0,291.711,735.557Zm-19.3,0a2.837,2.837,0,1,0,2.837,2.838A2.841,2.841,0,0,0,272.41,735.557Zm-19.3,0a2.837,2.837,0,1,0,2.838,2.838A2.841,2.841,0,0,0,253.109,735.557Zm-19.3,0a2.837,2.837,0,1,0,2.837,2.838A2.841,2.841,0,0,0,233.808,735.557Zm-19.3,0a2.837,2.837,0,1,0,2.838,2.838A2.841,2.841,0,0,0,214.507,735.557Zm96.505-19.3a2.837,2.837,0,1,0,2.837,2.837A2.841,2.841,0,0,0,311.012,716.257Zm-19.3,0a2.837,2.837,0,1,0,2.838,2.837A2.84,2.84,0,0,0,291.711,716.257Zm-19.3,0a2.837,2.837,0,1,0,2.837,2.837A2.841,2.841,0,0,0,272.41,716.257Zm-19.3,0a2.837,2.837,0,1,0,2.838,2.837A2.84,2.84,0,0,0,253.109,716.257Zm-19.3,0a2.837,2.837,0,1,0,2.837,2.837A2.841,2.841,0,0,0,233.808,716.257Zm-19.3,0a2.837,2.837,0,1,0,2.838,2.837A2.84,2.84,0,0,0,214.507,716.257Zm115.806-19.3a2.837,2.837,0,1,0,2.838,2.838A2.84,2.84,0,0,0,330.313,696.956Zm-19.3,0a2.837,2.837,0,1,0,2.837,2.838A2.841,2.841,0,0,0,311.012,696.956Zm-19.3,0a2.837,2.837,0,1,0,2.838,2.838A2.84,2.84,0,0,0,291.711,696.956Zm-19.3,0a2.837,2.837,0,1,0,2.837,2.838A2.841,2.841,0,0,0,272.41,696.956Zm-19.3,0a2.837,2.837,0,1,0,2.838,2.838A2.841,2.841,0,0,0,253.109,696.956Zm-19.3,0a2.837,2.837,0,1,0,2.837,2.838A2.841,2.841,0,0,0,233.808,696.956Zm-19.3,0a2.837,2.837,0,1,0,2.838,2.838A2.84,2.84,0,0,0,214.507,696.956Zm115.806-19.3a2.837,2.837,0,1,0,2.838,2.837A2.84,2.84,0,0,0,330.313,677.655Zm-19.3,0a2.837,2.837,0,1,0,2.837,2.837A2.841,2.841,0,0,0,311.012,677.655Zm-19.3,0a2.837,2.837,0,1,0,2.838,2.837A2.84,2.84,0,0,0,291.711,677.655Zm-19.3,0a2.837,2.837,0,1,0,2.837,2.837A2.841,2.841,0,0,0,272.41,677.655Zm-19.3,0a2.837,2.837,0,1,0,2.838,2.837A2.84,2.84,0,0,0,253.109,677.655Zm-19.3,0a2.837,2.837,0,1,0,2.837,2.837A2.841,2.841,0,0,0,233.808,677.655Zm-19.3,0a2.837,2.837,0,1,0,2.838,2.837A2.84,2.84,0,0,0,214.507,677.655Zm135.107-19.3a2.837,2.837,0,1,0,2.837,2.838A2.841,2.841,0,0,0,349.614,658.354Zm-19.3,0a2.837,2.837,0,1,0,2.838,2.838A2.841,2.841,0,0,0,330.313,658.354Zm-19.3,0a2.837,2.837,0,1,0,2.837,2.838A2.841,2.841,0,0,0,311.012,658.354Zm-19.3,0a2.837,2.837,0,1,0,2.838,2.838A2.841,2.841,0,0,0,291.711,658.354Zm-19.3,0a2.837,2.837,0,1,0,2.837,2.838A2.841,2.841,0,0,0,272.41,658.354Zm-19.3,0a2.837,2.837,0,1,0,2.838,2.838A2.841,2.841,0,0,0,253.109,658.354Zm-19.3,0a2.837,2.837,0,1,0,2.837,2.838A2.841,2.841,0,0,0,233.808,658.354Zm-19.3,0a2.837,2.837,0,1,0,2.838,2.838A2.841,2.841,0,0,0,214.507,658.354Zm154.408-19.3a2.837,2.837,0,1,0,2.838,2.837A2.84,2.84,0,0,0,368.915,639.053Zm-19.3,0a2.837,2.837,0,1,0,2.837,2.837A2.841,2.841,0,0,0,349.614,639.053Zm-19.3,0a2.837,2.837,0,1,0,2.838,2.837A2.84,2.84,0,0,0,330.313,639.053Zm-19.3,0a2.837,2.837,0,1,0,2.837,2.837A2.841,2.841,0,0,0,311.012,639.053Zm-19.3,0a2.837,2.837,0,1,0,2.838,2.837A2.84,2.84,0,0,0,291.711,639.053Zm-19.3,0a2.837,2.837,0,1,0,2.837,2.837A2.841,2.841,0,0,0,272.41,639.053Zm-19.3,0a2.837,2.837,0,1,0,2.838,2.837A2.84,2.84,0,0,0,253.109,639.053Zm-19.3,0a2.837,2.837,0,1,0,2.837,2.837A2.841,2.841,0,0,0,233.808,639.053Zm-19.3,0a2.837,2.837,0,1,0,2.838,2.837A2.84,2.84,0,0,0,214.507,639.053Zm0-19.3a2.837,2.837,0,1,0,2.838,2.838A2.841,2.841,0,0,0,214.507,619.752Zm103.622,14.9a316.428,316.428,0,0,1-81.821-10.721,2.838,2.838,0,1,0-5.334-1.479,315.2,315.2,0,0,1-37.2-13.257v-3.459a2.837,2.837,0,1,0,0-4.9V586.435a2.837,2.837,0,1,0,0-4.9V567.254a277.678,277.678,0,0,0,37.495,15.471,2.812,2.812,0,0,0-.3,1.263,2.838,2.838,0,0,0,5.641.437,277.716,277.716,0,0,0,81.517,12.17c153.546,0,278.465-124.917,278.465-278.462a276.671,276.671,0,0,0-17.765-97.908h40.33A315.688,315.688,0,0,1,567.1,513.371a319.783,319.783,0,0,1-47.676,48.85c-1.664.095-3.328.219-4.947.37a140.865,140.865,0,0,0-28.8,5.812,163.772,163.772,0,0,0-28.517,12.083,212.456,212.456,0,0,0-28.35,18.433,293.911,293.911,0,0,0-28.3,24.862A316.391,316.391,0,0,1,318.128,634.652Zm50.786-14.9a2.837,2.837,0,1,0,2.838,2.838A2.841,2.841,0,0,0,368.915,619.752Zm-19.3,0a2.837,2.837,0,1,0,2.837,2.838A2.841,2.841,0,0,0,349.614,619.752Zm-19.3,0a2.837,2.837,0,1,0,2.838,2.838A2.841,2.841,0,0,0,330.313,619.752Zm-19.3,0a2.837,2.837,0,1,0,2.837,2.838A2.841,2.841,0,0,0,311.012,619.752Zm-19.3,0a2.837,2.837,0,1,0,2.838,2.838A2.841,2.841,0,0,0,291.711,619.752Zm-19.3,0a2.837,2.837,0,1,0,2.837,2.838A2.841,2.841,0,0,0,272.41,619.752Zm-19.3,0a2.837,2.837,0,1,0,2.838,2.838A2.841,2.841,0,0,0,253.109,619.752Zm115.806-19.3a2.837,2.837,0,1,0,2.838,2.837A2.84,2.84,0,0,0,368.915,600.451Zm-19.3,0a2.837,2.837,0,1,0,2.837,2.837A2.841,2.841,0,0,0,349.614,600.451Zm-19.3,0a2.837,2.837,0,1,0,2.838,2.837A2.84,2.84,0,0,0,330.313,600.451Zm-19.3,0a2.837,2.837,0,1,0,2.837,2.837A2.841,2.841,0,0,0,311.012,600.451Zm-19.3,0a2.837,2.837,0,1,0,2.838,2.837A2.84,2.84,0,0,0,291.711,600.451Zm-19.3,0a2.837,2.837,0,1,0,2.837,2.837A2.841,2.841,0,0,0,272.41,600.451Zm-19.3,0a2.837,2.837,0,1,0,2.838,2.837A2.84,2.84,0,0,0,253.109,600.451Zm-19.3,0a2.837,2.837,0,1,0,2.837,2.837A2.841,2.841,0,0,0,233.808,600.451Zm-19.3,0a2.837,2.837,0,1,0,2.838,2.837A2.84,2.84,0,0,0,214.507,600.451Zm0-19.3a2.837,2.837,0,1,0,2.838,2.838A2.84,2.84,0,0,0,214.507,581.15ZM403.7,622.9v0a285.872,285.872,0,0,1,27.566-23.825A208.017,208.017,0,0,1,458.87,581.4a161.284,161.284,0,0,1,27.752-11.6,139.112,139.112,0,0,1,28.009-5.6c.862-.081,1.757-.155,2.659-.221a318.33,318.33,0,0,1-53.421,35.09A315.05,315.05,0,0,1,403.7,622.9Zm326.986-12.87h0c-33.818,0-67.622-12.087-100.314-23.776-33.362-11.929-67.859-24.263-102.809-24.263-1.7,0-3.408.03-5.083.088,7.1-5.97,14.054-12.343,20.656-18.945a316.084,316.084,0,0,0,93.127-225,319.34,319.34,0,0,0-15.247-97.908h871.68a154.261,154.261,0,0,1-3.765,58.558,198.4,198.4,0,0,1-23.43,54.581,235.955,235.955,0,0,1-17.358,24.615,248.456,248.456,0,0,1-42.54,41.509,228.212,228.212,0,0,1-23.8,15.946c-75.638,43.92-165.907,52.006-253.2,59.825h-.009c-78.1,6.993-175.3,15.7-252.663,63.838-11.4,7.1-22.58,15.156-33.389,22.948-26.125,18.835-53.135,38.309-84.7,45.158A128.305,128.305,0,0,1,730.685,610.033ZM318.128,594.985a276.112,276.112,0,0,1-81.819-12.337,2.833,2.833,0,0,0-2.5-1.5,2.8,2.8,0,0,0-1.27.3,276.1,276.1,0,0,1-38.768-15.994V521.929a237.333,237.333,0,0,0,124.358,35c131.676,0,238.8-107.125,238.8-238.8a237.386,237.386,0,0,0-21-97.908h41.181a275.19,275.19,0,0,1,13.271,47.454,278.257,278.257,0,0,1,4.606,50.455C594.986,470.79,470.788,594.985,318.128,594.985Zm50.786-13.836a2.837,2.837,0,1,0,2.838,2.838A2.841,2.841,0,0,0,368.915,581.15Zm-19.3,0a2.837,2.837,0,1,0,2.837,2.838A2.841,2.841,0,0,0,349.614,581.15Zm-19.3,0a2.837,2.837,0,1,0,2.838,2.838A2.84,2.84,0,0,0,330.313,581.15Zm-19.3,0a2.837,2.837,0,1,0,2.837,2.838A2.841,2.841,0,0,0,311.012,581.15Zm-19.3,0a2.837,2.837,0,1,0,2.838,2.838A2.84,2.84,0,0,0,291.711,581.15Zm-19.3,0a2.837,2.837,0,1,0,2.837,2.838A2.841,2.841,0,0,0,272.41,581.15Zm-19.3,0a2.837,2.837,0,1,0,2.838,2.838A2.841,2.841,0,0,0,253.109,581.15Zm65.02-25.828a235.739,235.739,0,0,1-124.358-35.282V473.553a199.072,199.072,0,0,0,57.339,32.108,198.056,198.056,0,0,0,67.019,11.6c109.8,0,199.132-89.33,199.132-199.131a197.957,197.957,0,0,0-25.772-97.908h42.674a235.787,235.787,0,0,1,21.16,97.908C555.323,448.919,448.918,555.322,318.128,555.322Zm0-39.667a196.278,196.278,0,0,1-97.214-25.619,198.921,198.921,0,0,1-27.144-18.549V417.851a160.478,160.478,0,0,0,54.312,43.525A158.515,158.515,0,0,0,318.128,477.6c87.93,0,159.465-71.535,159.465-159.465a158.671,158.671,0,0,0-33.674-97.908h45.718a196.345,196.345,0,0,1,26.014,97.908C515.652,427.047,427.043,515.655,318.128,515.655Zm0-39.667a158.053,158.053,0,0,1-124.358-60.725V221c.2-.257.407-.519.61-.774H441.875a157.12,157.12,0,0,1,34.11,97.908C475.986,405.174,405.171,475.988,318.128,475.988Z" transform="translate(-193.771 -220.224)" fill="url(#a)"/></svg>